<?xml version="1.0" encoding="UTF-8" standalone="no"?>
<svg
   xmlns:dc="http://purl.org/dc/elements/1.1/"
   xmlns:cc="http://creativecommons.org/ns#"
   xmlns:rdf="http://www.w3.org/1999/02/22-rdf-syntax-ns#"
   xmlns:svg="http://www.w3.org/2000/svg"
   xmlns="http://www.w3.org/2000/svg"
   xmlns:sodipodi="http://sodipodi.sourceforge.net/DTD/sodipodi-0.dtd"
   xmlns:inkscape="http://www.inkscape.org/namespaces/inkscape"
   version="1.1"
   x="0px"
   y="0px"
   viewBox="0 0 418.74734 229.18253"
   xml:space="preserve"
   id="svg2"
   inkscape:version="0.91 r13725"
   sodipodi:docname="noun_forensic.svg"
   width="418.74734"
   height="229.18254"><metadata
     id="metadata38"><rdf:RDF><cc:Work
         rdf:about=""><dc:format>image/svg+xml</dc:format><dc:type
           rdf:resource="http://purl.org/dc/dcmitype/StillImage" /><dc:title></dc:title></cc:Work></rdf:RDF></metadata><defs
     id="defs36" /><sodipodi:namedview
     pagecolor="#ffffff"
     bordercolor="#666666"
     borderopacity="1"
     objecttolerance="10"
     gridtolerance="10"
     guidetolerance="10"
     inkscape:pageopacity="0"
     inkscape:pageshadow="2"
     inkscape:window-width="1440"
     inkscape:window-height="849"
     id="namedview34"
     showgrid="false"
     fit-margin-top="0"
     fit-margin-left="0"
     fit-margin-right="0"
     fit-margin-bottom="0"
     inkscape:zoom="2.3300464"
     inkscape:cx="142.73467"
     inkscape:cy="98.057846"
     inkscape:window-x="0"
     inkscape:window-y="0"
     inkscape:window-maximized="1"
     inkscape:current-layer="svg2" /><g
     id="g4"
     transform="translate(1.4179478e-4,-0.00445591)"><path
       d="m 112.726,121.037 0,-0.262 0,-6.58 c -8.477,-6.616 -14.887,-13.21 -19.749,-19.402 -5.026,2.334 -10.66,3.211 -16.236,2.474 -0.627,-0.083 -1.253,-0.186 -1.878,-0.311 -0.208,-0.041 -0.417,-0.072 -0.624,-0.118 -1.633,-0.362 -3.235,-0.867 -4.78,-1.499 l -1.76,1.607 -2.174,1.984 -1.475,1.349 -1.352,-1.479 -1.482,-1.624 -8.369,7.639 -5.47,4.992 -6.132,5.597 c 0.21,0.514 0.387,1.044 0.511,1.597 0.582,2.605 0.113,5.283 -1.315,7.539 -1.844,2.908 -5.003,4.645 -8.452,4.645 -1.896,0 -3.747,-0.541 -5.351,-1.558 -1.385,-0.881 -2.71,-1.764 -3.988,-2.649 l 0,2.843 0,89 c 0,6.828 5.537,12.363 12.365,12.363 6.826,0 12.363,-5.535 12.363,-12.363 l 0,-81.273 4.771,0 0,81.273 c 0,6.828 5.537,12.363 12.365,12.363 6.826,0 12.363,-5.535 12.363,-12.363 l 0,-107.94 c 0,-0.593 -0.056,-1.171 -0.137,-1.742 l 0,-7.4 c 6.449,9.236 15.585,19.204 28.455,28.845 1.439,1.08 3.124,1.602 4.795,1.602 2.146,0 4.266,-0.862 5.814,-2.504 -2.233,-3.429 -2.964,-6.176 -3.018,-6.388 l -0.06,-0.257 z"
       id="path6"
       inkscape:connector-curvature="0" /><circle
       transform="matrix(0.9739,-0.2268,0.2268,0.9739,-3.8079,11.8564)"
       cx="49.694"
       cy="22.5"
       id="ellipse8"
       r="22.495001" /><path
       d="m 185.121,48.338 c 0,0 -2.196,8.784 -12.078,14.274 -8.398,4.665 -17.643,8.997 -20.817,10.458 2.727,1.259 8.992,4.2 15.67,7.686 1.713,-0.896 3.447,-1.826 5.148,-2.771 9.882,-5.49 12.078,-14.274 12.078,-14.274 l 0,-15.373 z"
       id="path10"
       inkscape:connector-curvature="0" /><path
       d="m 130.978,83.554 c -0.622,0.338 -1.24,0.678 -1.857,1.019 -9.882,5.49 -12.078,14.274 -12.078,14.274 l 0,5.567 c 0,0 0.015,0.055 0.081,0.267 0.064,0.211 0.175,0.536 0.342,0.951 0.329,0.826 0.871,2.016 1.709,3.367 0.045,0.075 0.103,0.154 0.15,0.23 1.241,-2.026 3.112,-4.395 5.82,-6.589 l 44.543,0 c -2.749,-1.496 -5.547,-2.944 -8.159,-4.259 l -29.541,0 c 5.337,-2.861 10.697,-5.477 14.375,-7.222 -3.26,-1.519 -9.208,-4.353 -15.385,-7.605 z"
       id="path12"
       inkscape:connector-curvature="0" /><path
       d="m 150.513,128.754 c 0.176,0.08 0.273,0.123 0.273,0.123 0.025,0.011 7.307,3.291 15.605,7.563 2.192,-1.131 4.451,-2.33 6.651,-3.553 6.173,-3.43 9.348,-8.145 10.859,-11.201 -0.186,-0.738 -1.245,-4.954 -1.306,-5.146 -0.066,-0.21 -0.175,-0.537 -0.342,-0.95 -0.137,-0.349 -0.324,-0.772 -0.544,-1.235 -0.303,-0.635 -0.679,-1.351 -1.163,-2.133 -0.095,-0.152 -0.207,-0.313 -0.309,-0.469 -0.351,-0.537 -0.731,-1.088 -1.176,-1.658 l -59.166,0 c 0.952,1.365 2.194,2.834 3.795,4.26 l 53.896,0 c -1.299,1.111 -2.796,2.188 -4.546,3.161 -2.689,1.493 -5.461,2.95 -8.095,4.292 l -28.794,0 c 2.655,1.358 5.192,2.608 7.382,3.664 0.428,0.207 0.837,0.404 1.236,0.595 l 11.52,0 c -3.15,1.501 -5.21,2.43 -5.21,2.43 0,0 -0.199,0.089 -0.566,0.257 z"
       id="path14"
       inkscape:connector-curvature="0" /><path
       d="m 117.043,208.651 0,15.373 c 0,0 2.196,-8.784 12.078,-14.274 4.811,-2.673 9.898,-5.234 13.963,-7.211 -3.993,-1.907 -9.522,-4.631 -14.942,-7.571 -9.03,5.506 -11.099,13.683 -11.099,13.683 z"
       id="path16"
       inkscape:connector-curvature="0" /><path
       d="m 129.529,139.25 c -0.136,0.075 -0.271,0.15 -0.407,0.225 -9.882,5.49 -12.078,14.275 -12.078,14.275 l 0,7.132 c 0.004,-0.005 0.015,0.055 0.081,0.263 0.066,0.213 0.177,0.539 0.339,0.953 0.14,0.348 0.326,0.772 0.548,1.234 0.232,0.484 0.515,1.02 0.849,1.594 0.103,0.178 0.198,0.35 0.313,0.534 0.42,0.677 0.911,1.395 1.486,2.132 l 58.701,0 c -1.641,1.689 -3.703,3.372 -6.317,4.824 -1.61,0.895 -3.252,1.776 -4.875,2.629 l -38.134,0 c 2.75,1.495 5.547,2.945 8.161,4.259 l 21.546,0 c -5.018,2.452 -8.659,4.093 -8.659,4.093 0,0 -0.843,0.38 -2.265,1.042 1.243,0.576 1.967,0.902 1.967,0.902 0.026,0.011 6.436,2.899 14.08,6.782 2.659,-1.354 5.463,-2.825 8.179,-4.334 5.849,-3.25 8.992,-7.642 10.595,-10.694 -0.38,-1.508 -0.995,-3.948 -1.041,-4.094 -0.064,-0.21 -0.177,-0.536 -0.339,-0.946 -0.329,-0.831 -0.874,-2.017 -1.712,-3.369 -0.219,-0.354 -0.461,-0.721 -0.722,-1.094 -0.063,-0.092 -0.137,-0.186 -0.204,-0.277 -0.924,-1.287 -2.096,-2.65 -3.589,-3.982 l -56.188,0 c 1.587,-2.383 3.986,-5.118 7.57,-7.453 l 36.154,0 c -2.657,-1.357 -5.192,-2.609 -7.382,-3.668 -0.426,-0.205 -0.834,-0.4 -1.231,-0.591 l -19.811,0 c 3.492,-1.811 6.847,-3.463 9.57,-4.77 -3.723,-1.76 -9.435,-4.529 -15.185,-7.601 z"
       id="path18"
       inkscape:connector-curvature="0" /><path
       d="m 184.868,104.041 0,-3.593 c 0,0 -2.258,-9.034 -12.421,-14.681 -2.32,-1.288 -4.701,-2.553 -7.01,-3.74 -8.268,-4.261 -15.576,-7.553 -15.576,-7.553 0,0 -0.126,-0.057 -0.354,-0.16 -2.04,-0.93 -12.668,-5.818 -22.231,-11.132 -10.164,-5.646 -12.422,-14.681 -12.422,-14.681 l 0,15.81 c 0,0 2.258,9.034 12.422,14.681 2.019,1.122 4.085,2.225 6.108,3.274 6.962,3.616 13.413,6.615 15.646,7.641 0.537,0.245 0.83,0.378 0.83,0.378 0,0 7.938,3.576 16.63,8.097 1.975,1.027 3.987,2.103 5.956,3.195 0.616,0.343 1.202,0.698 1.761,1.063 3.476,2.266 5.879,4.903 7.511,7.251 2.436,3.507 3.149,6.366 3.149,6.366 l 0,-12.216 z"
       id="path20"
       inkscape:connector-curvature="0" /><path
       d="m 172.447,142.23 c -2.838,-1.576 -5.769,-3.114 -8.54,-4.523 -7.62,-3.872 -14.046,-6.768 -14.046,-6.768 0,0 -0.75,-0.338 -2.04,-0.937 -1.84,-0.854 -4.782,-2.241 -8.218,-3.937 -2.586,-1.275 -5.452,-2.726 -8.343,-4.259 -1.33,-0.706 -2.668,-1.43 -3.984,-2.16 -2.859,-1.59 -5.074,-3.445 -6.809,-5.293 -0.916,-0.977 -1.704,-1.949 -2.36,-2.881 -0.063,-0.091 -0.127,-0.181 -0.189,-0.271 -0.324,-0.474 -0.611,-0.929 -0.875,-1.373 -1.657,-2.78 -2.189,-4.862 -2.189,-4.862 l 0,10.866 0,4.943 c 0,0 0.546,2.155 2.276,5.013 1.816,3 4.939,6.774 10.146,9.667 1.529,0.85 3.086,1.686 4.629,2.501 6.195,3.264 12.195,6.121 15.449,7.638 1.574,0.733 2.507,1.154 2.507,1.154 0,0 4.413,1.987 10.258,4.872 2.586,1.276 5.45,2.727 8.341,4.259 1.332,0.707 2.67,1.43 3.987,2.162 2.858,1.588 5.073,3.443 6.807,5.291 0.708,0.756 1.336,1.504 1.886,2.237 0.232,0.309 0.459,0.615 0.664,0.916 2.361,3.446 3.064,6.235 3.064,6.235 l 0,-13.777 0,-2.031 c -0.001,-0.004 -2.258,-9.036 -12.421,-14.682 z"
       id="path22"
       inkscape:connector-curvature="0" /><path
       d="m 172.447,198.694 c -3.372,-1.874 -6.876,-3.693 -10.092,-5.308 -6.92,-3.473 -12.494,-5.984 -12.494,-5.984 0,0 -1.414,-0.638 -3.702,-1.714 -3.134,-1.475 -7.904,-3.771 -12.929,-6.385 -1.974,-1.027 -3.986,-2.102 -5.954,-3.195 -0.616,-0.342 -1.201,-0.698 -1.762,-1.063 -3.719,-2.423 -6.197,-5.267 -7.827,-7.732 -0.231,-0.349 -0.447,-0.689 -0.644,-1.02 -1.657,-2.782 -2.189,-4.863 -2.189,-4.863 l 0,15.81 c 0,0 2.258,9.034 12.422,14.681 1.049,0.582 2.111,1.16 3.173,1.729 5.759,3.079 11.517,5.87 15.249,7.633 2.556,1.206 4.163,1.931 4.163,1.931 0,0 11.954,5.387 22.586,11.293 10.163,5.646 12.421,14.68 12.421,14.68 l 0,-15.809 c 0,-0.003 -2.257,-9.038 -12.421,-14.684 z"
       id="path24"
       inkscape:connector-curvature="0" /><path
       d="m 61.345,94.351 2.03,2.223 0.802,0.878 0.988,-0.902 3.902,-3.563 c 1.382,0.643 2.812,1.15 4.266,1.551 1.122,0.31 2.259,0.558 3.407,0.721 5.036,0.718 10.241,0.023 14.989,-2.093 2.604,-1.161 5.073,-2.739 7.294,-4.767 C 110.166,78.211 110.946,60.932 100.78,49.787 90.598,38.652 73.315,37.864 62.168,48.043 60.926,49.177 59.829,50.408 58.846,51.7 53.185,59.14 51.804,68.888 54.885,77.471 L 50,81.929 l 2.836,3.106 -13.458,12.289 -9.184,8.385 c 2.003,1.577 4.362,3.262 7.156,5.033 1.18,0.747 2.165,1.716 2.925,2.84 l 6.977,-6.367 14.093,-12.864 z M 94.567,55.456 c 7.034,7.723 6.489,19.669 -1.22,26.725 -1.934,1.761 -4.131,3.046 -6.45,3.863 -3.278,1.155 -6.796,1.357 -10.156,0.66 -3.758,-0.779 -7.318,-2.687 -10.11,-5.734 -0.12,-0.132 -0.22,-0.273 -0.335,-0.408 -3.777,-4.393 -5.204,-10.035 -4.344,-15.371 0.654,-4.063 2.619,-7.943 5.89,-10.94 0.772,-0.703 1.596,-1.309 2.443,-1.86 0.222,-0.145 0.437,-0.304 0.662,-0.438 7.557,-4.487 17.456,-3.228 23.62,3.503 z"
       id="path26"
       inkscape:connector-curvature="0" /><path
       d="m 22.649,122.536 c 1.593,1.135 3.277,2.269 5.062,3.402 1.328,0.843 2.812,1.245 4.277,1.245 2.649,0 5.239,-1.313 6.764,-3.714 1.298,-2.046 1.545,-4.455 0.894,-6.605 -0.202,-0.67 -0.495,-1.313 -0.87,-1.913 -0.614,-0.985 -1.445,-1.856 -2.492,-2.52 -2.901,-1.84 -5.411,-3.63 -7.585,-5.356 -0.541,-0.43 -1.066,-0.856 -1.566,-1.278 -1.107,-0.936 -2.114,-1.85 -3.024,-2.738 -0.518,-0.507 -1.001,-1.004 -1.458,-1.493 -1.156,-1.237 -2.129,-2.423 -2.927,-3.544 -1.859,-2.635 -2.845,-4.858 -3.324,-6.837 -0.274,-1.13 -0.388,-2.182 -0.396,-3.18 0.003,-2.572 0.773,-5.054 2.195,-7.579 1.142,-2.035 2.735,-4.008 4.452,-5.782 l 0,23.896 c 0.703,0.85 1.553,1.788 2.577,2.807 0.969,0.963 2.092,1.994 3.399,3.089 l 8.466,-7.73 12.921,-11.796 -1.487,-1.625 -1.352,-1.477 1.479,-1.352 3.926,-3.585 c -2.673,-8.646 -1.19,-17.88 3.796,-25.17 l -25.999,0 c -0.644,0 -1.266,0.087 -1.863,0.235 -1.217,0.03 -2.445,0.331 -3.591,0.948 l -0.003,0 C 24.549,53.098 18.869,56.142 12.859,61.816 9.856,64.666 6.749,68.191 4.28,72.537 1.821,76.862 0,82.121 0,88.005 c -0.004,1.048 0.077,2.111 0.196,3.18 0.597,5.336 2.717,10.873 6.509,16.14 3.71,5.178 8.917,10.206 15.944,15.211 z"
       id="path28"
       inkscape:connector-curvature="0" /></g><text
     xml:space="preserve"
     style="font-style:normal;font-weight:normal;font-size:10px;line-height:125%;font-family:sans-serif;letter-spacing:0px;word-spacing:0px;fill:#000000;fill-opacity:1;stroke:none;stroke-width:1px;stroke-linecap:butt;stroke-linejoin:miter;stroke-opacity:1"
     x="306.08621"
     y="113.94554"
     id="text3366"
     sodipodi:linespacing="125%"><tspan
       sodipodi:role="line"
       id="tspan3368"
       x="306.08621"
       y="113.94554"
       style="font-size:30px;text-align:center;text-anchor:middle">Criado por</tspan><tspan
       sodipodi:role="line"
       x="306.08621"
       y="151.44554"
       id="tspan3370"
       style="font-size:30px;text-align:center;text-anchor:middle">Gan Khoon Lay</tspan></text>
</svg>