<svg xmlns="http://www.w3.org/2000/svg" xmlns:xlink="http://www.w3.org/1999/xlink" version="1.1" x="0px" y="0px" viewBox="0 0 100 125" enable-background="new 0 0 100 100" xml:space="preserve"><path d="M28.802,85.12c0.082-0.234,0.124-0.476,0.124-0.729v-3.93c0-1.179-0.955-2.141-2.138-2.141h-5.991  c-1.183,0-2.141,0.962-2.141,2.141v3.93c0,0.254,0.045,0.495,0.131,0.729h-2.279V14.881h2.148v2.821  c0,1.188,0.958,2.142,2.141,2.142h5.991c1.183,0,2.138-0.954,2.138-2.142v-2.821h39.019v2.821c0,1.188,0.961,2.142,2.143,2.142  h5.984c1.184,0,2.141-0.954,2.141-2.142v-2.821h2.146V85.12h-2.271c0.082-0.234,0.125-0.476,0.125-0.729v-3.93  c0-1.179-0.957-2.141-2.141-2.141h-5.984c-1.182,0-2.143,0.962-2.143,2.141v3.93c0,0.254,0.045,0.495,0.127,0.729H28.802z   M18.657,27.111v3.934c0,1.179,0.958,2.14,2.141,2.14h5.991c1.183,0,2.138-0.961,2.138-2.14v-3.934c0-1.186-0.955-2.138-2.138-2.138  h-5.991C19.615,24.974,18.657,25.926,18.657,27.111z M18.657,40.444v3.935c0,1.186,0.958,2.139,2.141,2.139h5.991  c1.183,0,2.138-0.953,2.138-2.139v-3.935c0-1.179-0.955-2.139-2.138-2.139h-5.991C19.615,38.306,18.657,39.266,18.657,40.444z   M18.657,53.784v3.936c0,1.178,0.958,2.138,2.141,2.138h5.991c1.183,0,2.138-0.96,2.138-2.138v-3.936  c0-1.176-0.955-2.141-2.138-2.141h-5.991C19.615,51.644,18.657,52.608,18.657,53.784z M18.657,67.128v3.933  c0,1.179,0.958,2.138,2.141,2.138h5.991c1.183,0,2.138-0.959,2.138-2.138v-3.933c0-1.187-0.955-2.141-2.138-2.141h-5.991  C19.615,64.987,18.657,65.941,18.657,67.128z M76.072,24.974h-5.984c-1.182,0-2.143,0.952-2.143,2.138v3.934  c0,1.179,0.961,2.14,2.143,2.14h5.984c1.184,0,2.141-0.961,2.141-2.14v-3.934C78.213,25.926,77.256,24.974,76.072,24.974z   M76.072,38.306h-5.984c-1.182,0-2.143,0.96-2.143,2.139v3.935c0,1.186,0.961,2.139,2.143,2.139h5.984  c1.184,0,2.141-0.953,2.141-2.139v-3.935C78.213,39.266,77.256,38.306,76.072,38.306z M76.072,51.644h-5.984  c-1.182,0-2.143,0.965-2.143,2.141v3.936c0,1.178,0.961,2.138,2.143,2.138h5.984c1.184,0,2.141-0.96,2.141-2.138v-3.936  C78.213,52.608,77.256,51.644,76.072,51.644z M76.072,64.987h-5.984c-1.182,0-2.143,0.954-2.143,2.141v3.933  c0,1.179,0.961,2.138,2.143,2.138h5.984c1.184,0,2.141-0.959,2.141-2.138v-3.933C78.213,65.941,77.256,64.987,76.072,64.987z"/><text x="0" y="115" fill="#000000" font-size="5px" font-weight="bold" font-family="'Helvetica Neue', Helvetica, Arial-Unicode, Arial, Sans-serif">Created by Aldric Rodríguez</text><text x="0" y="120" fill="#000000" font-size="5px" font-weight="bold" font-family="'Helvetica Neue', Helvetica, Arial-Unicode, Arial, Sans-serif">from the Noun Project</text></svg>