<?xml version="1.0" encoding="UTF-8" standalone="no"?>
<svg
   xmlns:dc="http://purl.org/dc/elements/1.1/"
   xmlns:cc="http://creativecommons.org/ns#"
   xmlns:rdf="http://www.w3.org/1999/02/22-rdf-syntax-ns#"
   xmlns:svg="http://www.w3.org/2000/svg"
   xmlns="http://www.w3.org/2000/svg"
   xmlns:sodipodi="http://sodipodi.sourceforge.net/DTD/sodipodi-0.dtd"
   xmlns:inkscape="http://www.inkscape.org/namespaces/inkscape"
   version="1.1"
   x="0px"
   y="0px"
   viewBox="0 0 467.72894 283.36302"
   xml:space="preserve"
   id="svg2"
   inkscape:version="0.91 r13725"
   sodipodi:docname="noun_butterfly.svg"
   width="467.72894"
   height="283.36301"><metadata
     id="metadata66"><rdf:RDF><cc:Work
         rdf:about=""><dc:format>image/svg+xml</dc:format><dc:type
           rdf:resource="http://purl.org/dc/dcmitype/StillImage" /><dc:title></dc:title></cc:Work></rdf:RDF></metadata><defs
     id="defs64" /><sodipodi:namedview
     pagecolor="#ffffff"
     bordercolor="#666666"
     borderopacity="1"
     objecttolerance="10"
     gridtolerance="10"
     guidetolerance="10"
     inkscape:pageopacity="0"
     inkscape:pageshadow="2"
     inkscape:window-width="1440"
     inkscape:window-height="849"
     id="namedview62"
     showgrid="false"
     fit-margin-top="0"
     fit-margin-left="0"
     fit-margin-right="0"
     fit-margin-bottom="0"
     inkscape:zoom="1.8845335"
     inkscape:cx="186.47821"
     inkscape:cy="100.16213"
     inkscape:window-x="0"
     inkscape:window-y="0"
     inkscape:window-maximized="1"
     inkscape:current-layer="svg2" /><g
     id="g4"><path
       d="m 64.689,283.363 c 6.828,0 12.365,-5.533 12.365,-12.363 l 0,-158.55 c 5.075,-0.46 12.246,-1.38 20.578,-3.227 16.258,-3.624 37.021,-10.741 54.934,-25.366 3.419,-2.798 3.924,-7.839 1.126,-11.259 -2.798,-3.419 -7.837,-3.924 -11.257,-1.124 -15.086,12.373 -33.551,18.879 -48.271,22.129 -7.349,1.633 -13.739,2.465 -18.241,2.884 -2.253,0.208 -4.031,0.316 -5.225,0.372 -0.404,0.018 -0.735,0.03 -1,0.038 -0.124,-0.006 -0.246,-0.019 -0.373,-0.019 l -38.634,0 c -0.162,0 -0.322,0.015 -0.482,0.024 -1.816,0.038 -4.756,0.446 -8.096,2.13 -5.381,2.666 -11.178,8.502 -15.236,18.842 -4.107,10.38 -6.864,25.387 -6.877,48.044 0,5.855 0.188,12.224 0.595,19.158 0.249,4.251 3.774,7.533 7.98,7.533 0.157,0 0.316,-0.004 0.475,-0.014 4.41,-0.26 7.776,-4.045 7.519,-8.455 C 16.178,177.489 16,171.431 16,165.918 15.965,141.704 19.495,128.1 22.963,121 l 0,150 c 0,6.83 5.537,12.363 12.363,12.363 6.828,0 12.365,-5.533 12.365,-12.363 l 0,-90.271 4.635,0 0,90.271 c 0,6.83 5.537,12.363 12.363,12.363 z"
       id="path6"
       inkscape:connector-curvature="0" /><circle
       cx="50.009998"
       cy="68.68"
       r="22.5"
       id="circle8" /><path
       d="m 138.147,36.139 c 3.117,2.073 8.974,1.483 14.437,-1.754 6.574,-3.9 10.074,-10.138 7.822,-13.94 -0.035,-0.059 -0.082,-0.109 -0.121,-0.167 -2.367,-3.62 -9.393,-3.494 -15.859,0.343 -3.422,2.028 -6,4.691 -7.378,7.316 -1.393,-2.617 -3.985,-5.265 -7.417,-7.275 -6.489,-3.796 -13.508,-3.885 -15.857,-0.256 -0.039,0.059 -0.088,0.112 -0.123,0.174 -2.232,3.812 1.303,10.031 7.896,13.893 5.48,3.204 11.338,3.763 14.445,1.675 -1.975,3.05 -7.244,3.465 -12.727,1.271 -2.841,2.802 -3.964,6.263 -2.495,8.555 1.844,2.871 7.061,2.814 11.654,-0.13 2.112,-1.355 3.717,-3.087 4.662,-4.841 0.955,1.748 2.568,3.47 4.688,4.813 4.611,2.919 9.83,2.946 11.656,0.063 1.455,-2.3 0.312,-5.755 -2.545,-8.541 -5.473,2.229 -10.746,1.842 -12.738,-1.199 z"
       id="path10"
       inkscape:connector-curvature="0" /><polygon
       points="99.334,81.166 99.334,6 268.002,6 268.002,131.998 99.334,131.998 99.334,118.666 93.334,118.666 93.334,138.001 274,138.001 274,0 93.334,0 93.334,81.166 "
       id="polygon12" /><path
       d="m 151.635,96.102 c -1.145,5.722 7.248,14.114 7.248,14.114 0,0 14.299,-3.306 16.498,-4.196 0,0 -14.209,-11.826 -23.746,-9.918 z"
       id="path14"
       inkscape:connector-curvature="0" /><path
       d="m 160.496,115.869 c -4.264,6.729 10.318,8.748 11.439,7.627 1.123,-1.122 3.479,-9.31 3.479,-9.31 l -0.785,-5.496 c 0,0 -9.871,0.449 -14.133,7.179 z"
       id="path16"
       inkscape:connector-curvature="0" /><path
       d="m 200.482,96.102 c -9.537,-1.907 -23.746,9.918 -23.746,9.918 2.201,0.891 16.498,4.196 16.498,4.196 0,0 8.393,-8.393 7.248,-14.114 z"
       id="path18"
       inkscape:connector-curvature="0" /><path
       d="m 177.49,108.69 -0.785,5.496 c 0,0 2.355,8.188 3.477,9.31 1.121,1.121 15.703,-0.897 11.441,-7.627 -4.264,-6.73 -14.133,-7.179 -14.133,-7.179 z"
       id="path20"
       inkscape:connector-curvature="0" /><path
       d="m 171.826,58.657 c -5.318,0 -6.029,0.894 -6.029,1.997 0,1.104 0.711,1.997 6.029,1.997 4.48,0 10.784,-0.635 12.668,-1.494 l 0,13.947 c 0,0.648 0.525,1.175 1.174,1.175 0.648,0 1.176,-0.526 1.176,-1.175 l 0,-13.946 c 1.886,0.859 8.186,1.493 12.666,1.493 5.32,0 6.029,-0.894 6.029,-1.997 0,-1.103 -0.709,-1.997 -6.029,-1.997 -4.48,0 -10.78,0.634 -12.666,1.493 l 0,-2.086 c 1.535,0.617 8.367,-0.214 13.021,-1.283 5.186,-1.191 5.678,-2.222 5.43,-3.296 -0.246,-1.076 -1.139,-1.788 -6.324,-0.597 -4.518,1.038 -10.796,3.176 -12.178,4.421 -0.119,-0.524 -0.565,-0.923 -1.125,-0.923 -0.561,0 -1.006,0.399 -1.124,0.924 -1.381,-1.245 -7.661,-3.384 -12.179,-4.422 -5.186,-1.191 -6.078,-0.479 -6.324,0.597 -0.248,1.074 0.246,2.105 5.43,3.296 4.654,1.069 11.488,1.9 13.023,1.283 l 0,2.087 c -1.884,-0.859 -8.187,-1.494 -12.668,-1.494 z"
       id="path22"
       inkscape:connector-curvature="0" /><circle
       cx="185.668"
       cy="52.939999"
       r="2.6619999"
       id="circle24" /><path
       d="m 202.041,75.485 c -0.248,1.074 0.246,2.105 5.43,3.296 4.654,1.069 11.488,1.9 13.023,1.283 l 0,2.087 c -1.884,-0.859 -8.188,-1.494 -12.668,-1.494 -5.318,0 -6.029,0.894 -6.029,1.997 0,1.103 0.711,1.997 6.029,1.997 4.48,0 10.784,-0.635 12.668,-1.494 l 0,13.947 c 0,0.648 0.525,1.175 1.174,1.175 0.648,0 1.176,-0.526 1.176,-1.175 l 0,-13.946 c 1.886,0.859 8.186,1.493 12.666,1.493 5.32,0 6.029,-0.894 6.029,-1.997 0,-1.103 -0.709,-1.997 -6.029,-1.997 -4.48,0 -10.78,0.634 -12.666,1.493 l 0,-2.086 c 1.535,0.617 8.367,-0.214 13.021,-1.283 5.186,-1.19 5.678,-2.222 5.43,-3.296 -0.246,-1.076 -1.139,-1.788 -6.324,-0.597 -4.518,1.038 -10.796,3.176 -12.178,4.421 -0.119,-0.524 -0.565,-0.923 -1.125,-0.923 -0.561,0 -1.006,0.4 -1.124,0.924 -1.381,-1.245 -7.661,-3.384 -12.179,-4.422 -5.185,-1.191 -6.078,-0.479 -6.324,0.597 z"
       id="path26"
       inkscape:connector-curvature="0" /><circle
       cx="221.668"
       cy="74.940002"
       r="2.6619999"
       id="circle28" /><path
       d="m 181.939,35.55 c 3.74,0 6.771,-4.223 6.771,-9.432 0,-2.825 -0.896,-5.353 -2.311,-7.082 0.241,-0.575 0.375,-1.205 0.375,-1.866 0,-2.671 -2.164,-4.837 -4.836,-4.837 -2.672,0 -4.836,2.166 -4.836,4.837 0,0.662 0.134,1.291 0.375,1.865 -1.414,1.728 -2.311,4.257 -2.311,7.083 0.002,5.209 3.033,9.432 6.773,9.432 z"
       id="path30"
       inkscape:connector-curvature="0" /><path
       d="m 202.605,35.55 c 3.74,0 6.771,-4.223 6.771,-9.432 0,-2.825 -0.896,-5.353 -2.309,-7.082 0.24,-0.575 0.375,-1.205 0.375,-1.867 0,-2.671 -2.166,-4.837 -4.838,-4.837 -2.67,0 -4.836,2.166 -4.836,4.837 0,0.662 0.134,1.292 0.375,1.866 -1.414,1.729 -2.311,4.257 -2.311,7.082 0.002,5.21 3.035,9.433 6.773,9.433 z"
       id="path32"
       inkscape:connector-curvature="0" /><path
       d="m 237.418,103.666 c 0,-1.31 -0.639,-2.462 -1.611,-3.191 -0.137,-1.204 -1.148,-2.142 -2.389,-2.142 -1.241,0 -2.252,0.939 -2.389,2.144 -0.973,0.729 -1.611,1.881 -1.611,3.19 0,2.209 1.791,4 4,4 2.209,0 4,-1.792 4,-4.001 z"
       id="path34"
       inkscape:connector-curvature="0" /><path
       d="m 245.057,111.975 c -0.137,-1.204 -1.148,-2.142 -2.389,-2.142 -1.241,0 -2.252,0.939 -2.389,2.143 -0.973,0.729 -1.611,1.881 -1.611,3.19 0,2.209 1.791,4 4,4 2.209,0 4,-1.791 4,-4 0,-1.31 -0.639,-2.462 -1.611,-3.191 z"
       id="path36"
       inkscape:connector-curvature="0" /><path
       d="m 255.502,122.999 c 2.209,0 4,-1.791 4,-4 0,-1.31 -0.639,-2.462 -1.611,-3.191 -0.139,-1.204 -1.148,-2.142 -2.389,-2.142 -1.24,0 -2.252,0.939 -2.389,2.142 -0.973,0.729 -1.611,1.882 -1.611,3.191 0,2.209 1.791,4 4,4 z"
       id="path38"
       inkscape:connector-curvature="0" /><path
       d="m 232.223,117.808 c -0.137,-1.204 -1.148,-2.142 -2.389,-2.142 -1.241,0 -2.252,0.939 -2.389,2.143 -0.973,0.729 -1.611,1.881 -1.611,3.19 0,2.209 1.791,4 4,4 2.209,0 4,-1.791 4,-4 0,-1.31 -0.639,-2.462 -1.611,-3.191 z"
       id="path40"
       inkscape:connector-curvature="0" /><path
       d="m 249.918,104.666 c 2.209,0 4,-1.791 4,-4 0,-1.31 -0.639,-2.462 -1.611,-3.191 -0.137,-1.204 -1.148,-2.142 -2.389,-2.142 -1.241,0 -2.252,0.939 -2.389,2.144 -0.973,0.729 -1.611,1.881 -1.611,3.19 0,2.208 1.791,3.999 4,3.999 z"
       id="path42"
       inkscape:connector-curvature="0" /><path
       d="m 219.586,46.667 c 0,1.657 4.104,3 9.166,3 2.342,0 4.473,-0.29 6.092,-0.763 -0.032,0.538 -0.059,1.083 -0.073,1.642 -1.747,0.476 -4.042,1.67 -6.325,3.392 -4.041,3.048 -6.51,6.591 -5.512,7.914 0.996,1.323 5.082,-0.075 9.125,-3.123 1.088,-0.821 2.059,-1.678 2.882,-2.519 0.492,5.489 1.898,9.456 3.562,9.456 1.66,0 3.068,-3.967 3.56,-9.455 0.823,0.84 1.793,1.696 2.883,2.518 4.043,3.048 8.127,4.446 9.125,3.123 0.998,-1.323 -1.471,-4.866 -5.512,-7.914 -2.283,-1.721 -4.58,-2.915 -6.326,-3.392 -0.016,-0.559 -0.041,-1.104 -0.074,-1.642 1.621,0.473 3.752,0.763 6.094,0.763 5.063,0 9.166,-1.343 9.166,-3 0,-1.657 -4.104,-3 -9.166,-3 -2.585,0 -4.916,0.352 -6.582,0.915 -0.665,-3.851 -1.834,-6.416 -3.168,-6.416 -1.336,0 -2.504,2.565 -3.169,6.416 -1.666,-0.563 -3.997,-0.915 -6.581,-0.915 -5.064,0 -9.167,1.343 -9.167,3 z"
       id="path44"
       inkscape:connector-curvature="0" /><path
       d="m 254.383,15.769 c -0.438,-1.981 -1.105,-3.247 -1.852,-3.247 -0.748,0 -1.414,1.266 -1.854,3.247 -1.051,0.949 -2.331,3.345 -3.266,6.306 -1.283,4.06 -1.432,7.633 -0.332,7.98 0.857,0.272 2.223,-1.508 3.39,-4.23 0.415,2.608 1.183,4.364 2.062,4.364 0.879,0 1.645,-1.755 2.061,-4.363 1.168,2.722 2.531,4.501 3.391,4.229 1.1,-0.348 0.951,-3.921 -0.332,-7.98 -0.937,-2.961 -2.216,-5.357 -3.268,-6.306 z"
       id="path46"
       inkscape:connector-curvature="0" /><path
       d="m 230.882,25.826 c 0.415,2.608 1.183,4.364 2.061,4.364 0.879,0 1.645,-1.755 2.061,-4.363 1.168,2.722 2.531,4.501 3.391,4.229 1.1,-0.348 0.951,-3.921 -0.332,-7.98 -0.936,-2.961 -2.216,-5.357 -3.268,-6.306 -0.438,-1.981 -1.105,-3.247 -1.852,-3.247 -0.748,0 -1.414,1.266 -1.854,3.247 -1.051,0.949 -2.331,3.345 -3.266,6.306 -1.283,4.06 -1.432,7.633 -0.332,7.98 0.859,0.271 2.224,-1.508 3.391,-4.23 z"
       id="path48"
       inkscape:connector-curvature="0" /><circle
       cx="116.502"
       cy="65.834"
       r="4.1659999"
       id="circle50" /><circle
       cx="133.502"
       cy="61.167"
       r="4.1659999"
       id="circle52" /><rect
       x="110.002"
       y="113.999"
       width="32"
       height="4"
       id="rect54" /><rect
       x="110.002"
       y="122.999"
       width="16"
       height="4"
       id="rect56" /></g><text
     x="0"
     y="298.36301"
     font-size="5px"
     font-weight="bold"
     id="text58"
     style="font-weight:bold;font-size:5px;font-family:'Helvetica Neue', Helvetica, Arial-Unicode, Arial, Sans-serif;fill:#000000" />
<text
     xml:space="preserve"
     style="font-style:normal;font-weight:normal;font-size:10px;line-height:125%;font-family:sans-serif;letter-spacing:0px;word-spacing:0px;fill:#000000;fill-opacity:1;stroke:none;stroke-width:1px;stroke-linecap:butt;stroke-linejoin:miter;stroke-opacity:1"
     x="336.16956"
     y="184.40045"
     id="text3394"
     sodipodi:linespacing="125%"><tspan
       sodipodi:role="line"
       id="tspan3396"
       x="336.16956"
       y="184.40045"
       style="font-size:30px;text-align:center;text-anchor:middle">Criado por</tspan><tspan
       sodipodi:role="line"
       x="336.16956"
       y="221.90045"
       id="tspan3398"
       style="font-size:30px;text-align:center;text-anchor:middle">Gan Khoon Lay</tspan></text>
</svg>