<svg xmlns="http://www.w3.org/2000/svg" xmlns:xlink="http://www.w3.org/1999/xlink" version="1.1" x="0px" y="0px" viewBox="0 0 96 120" enable-background="new 0 0 96 96" xml:space="preserve"><g><path d="M71.44,43.712c0.357-2.947,0.716-5.894,1.073-8.841c-1.418-0.172-2.837-0.329-4.257-0.471   c0.021-0.216,0.043-0.432,0.064-0.648c0.337-3.17-4.6-4.297-10.776-4.576c-6.359-0.292-12.729-0.292-19.089,0   c-6.178,0.279-11.114,1.406-10.777,4.576c0.021,0.216,0.043,0.432,0.065,0.648c-1.42,0.142-2.839,0.299-4.257,0.471   c0.358,2.947,0.715,5.894,1.073,8.841c-2.215,0.416-3.755,2.07-3.506,3.776c0.249,1.708,2.135,2.861,4.297,2.746   c1.321,10.879,2.641,21.757,3.961,32.636c2.812-0.341,5.63-0.605,8.453-0.792c0.09,1.356,0.179,2.713,0.269,4.069   c0.156,2.19,2.055,3.841,4.243,3.757c2.187-0.086,3.952-1.879,3.937-4.075c-0.016-1.359-0.032-2.719-0.048-4.078   c1.222-0.015,2.444-0.015,3.666,0c-0.017,1.359-0.032,2.719-0.049,4.078c-0.015,2.196,1.751,3.989,3.938,4.075   c2.188,0.084,4.087-1.566,4.243-3.757c0.09-1.356,0.18-2.713,0.27-4.069c2.822,0.187,5.642,0.451,8.453,0.792   c1.32-10.879,2.641-21.757,3.961-32.636c2.163,0.114,4.049-1.039,4.298-2.746C75.195,45.782,73.655,44.127,71.44,43.712z    M68.516,43.959c0.464,0.049,0.929,0.101,1.394,0.153c0.419,0.048,0.724,0.334,0.715,0.65c-0.003,0.026-0.006,0.053-0.009,0.079   c-0.064,0.309-0.425,0.517-0.843,0.469c-0.92-0.104-1.841-0.202-2.763-0.294c-0.214,0.258-0.382,0.546-0.488,0.855   c1.005,0.098,2.009,0.203,3.013,0.316c0.045,0.005,0.091,0.01,0.137,0.016c0.352,0.04,0.612,0.25,0.688,0.501   c0.016,0.047,0.021,0.097,0.02,0.146c-0.003,0.027-0.006,0.054-0.01,0.082c-0.01,0.047-0.027,0.094-0.053,0.138   c-0.131,0.228-0.435,0.371-0.78,0.332c-0.046-0.005-0.091-0.01-0.137-0.016c-0.997-0.112-1.995-0.217-2.993-0.314   c0.045,0.325,0.15,0.637,0.308,0.933c0.907,0.09,1.814,0.187,2.721,0.29c0.41,0.047,0.708,0.333,0.698,0.647   c-0.003,0.026-0.006,0.053-0.01,0.079c-0.063,0.308-0.417,0.518-0.825,0.471c-0.451-0.051-0.903-0.101-1.355-0.148   c0.572,0.393,1.275,0.672,2.048,0.807c-1.262,10.712-2.523,21.425-3.785,32.137c-12.094-1.425-24.313-1.425-36.408,0   c-1.262-10.712-2.523-21.424-3.785-32.136c0.775-0.135,1.476-0.414,2.048-0.807c-0.452,0.048-0.903,0.098-1.355,0.148   c-0.407,0.047-0.759-0.162-0.826-0.469c-0.003-0.028-0.006-0.056-0.01-0.084c-0.007-0.313,0.289-0.599,0.699-0.646   c0.906-0.103,1.813-0.2,2.719-0.29c0.158-0.296,0.264-0.608,0.309-0.934c-0.999,0.097-1.997,0.202-2.994,0.314   c-0.045,0.005-0.09,0.01-0.136,0.016c-0.347,0.039-0.65-0.104-0.78-0.332c-0.027-0.042-0.041-0.089-0.054-0.136   c-0.003-0.028-0.007-0.057-0.01-0.084c0-0.05,0.004-0.099,0.021-0.146c0.075-0.251,0.339-0.462,0.687-0.501   c0.046-0.005,0.091-0.01,0.137-0.015c1.004-0.113,2.008-0.219,3.013-0.316c-0.108-0.309-0.274-0.598-0.489-0.855   c-0.921,0.091-1.842,0.189-2.763,0.294c-0.416,0.047-0.776-0.16-0.843-0.467c-0.003-0.028-0.006-0.056-0.01-0.083   c-0.006-0.314,0.297-0.6,0.716-0.647c0.464-0.053,0.928-0.104,1.393-0.153c-0.659-0.262-1.431-0.379-2.241-0.326   c-0.328-2.778-0.655-5.557-0.982-8.335c15.771-1.857,31.706-1.857,47.478,0c-0.327,2.778-0.654,5.556-0.981,8.334   C69.947,43.581,69.174,43.697,68.516,43.959z"/><circle cx="48" cy="16.927" r="10.834"/></g><text x="0" y="111" fill="#000000" font-size="5px" font-weight="bold" font-family="'Helvetica Neue', Helvetica, Arial-Unicode, Arial, Sans-serif">Created by designvector</text><text x="0" y="116" fill="#000000" font-size="5px" font-weight="bold" font-family="'Helvetica Neue', Helvetica, Arial-Unicode, Arial, Sans-serif">from the Noun Project</text></svg>