<?xml version="1.0" encoding="UTF-8" standalone="no"?>
<svg
   xmlns:dc="http://purl.org/dc/elements/1.1/"
   xmlns:cc="http://creativecommons.org/ns#"
   xmlns:rdf="http://www.w3.org/1999/02/22-rdf-syntax-ns#"
   xmlns:svg="http://www.w3.org/2000/svg"
   xmlns="http://www.w3.org/2000/svg"
   xmlns:sodipodi="http://sodipodi.sourceforge.net/DTD/sodipodi-0.dtd"
   xmlns:inkscape="http://www.inkscape.org/namespaces/inkscape"
   version="1.1"
   x="0px"
   y="0px"
   viewBox="-346 256 187.03831 99.672997"
   enable-background="new -346 256 100 100"
   xml:space="preserve"
   id="svg2"
   inkscape:version="0.91 r13725"
   sodipodi:docname="noun_union.svg"
   width="187.03831"
   height="99.672997"><metadata
     id="metadata20"><rdf:RDF><cc:Work
         rdf:about=""><dc:format>image/svg+xml</dc:format><dc:type
           rdf:resource="http://purl.org/dc/dcmitype/StillImage" /><dc:title></dc:title></cc:Work></rdf:RDF></metadata><defs
     id="defs18" /><sodipodi:namedview
     pagecolor="#ffffff"
     bordercolor="#666666"
     borderopacity="1"
     objecttolerance="10"
     gridtolerance="10"
     guidetolerance="10"
     inkscape:pageopacity="0"
     inkscape:pageshadow="2"
     inkscape:window-width="1440"
     inkscape:window-height="849"
     id="namedview16"
     showgrid="false"
     fit-margin-top="0"
     fit-margin-left="0"
     fit-margin-right="0"
     fit-margin-bottom="0"
     inkscape:zoom="1.888"
     inkscape:cx="-96.182197"
     inkscape:cy="44.350059"
     inkscape:window-x="0"
     inkscape:window-y="0"
     inkscape:window-maximized="1"
     inkscape:current-layer="svg2" /><g
     id="g4"
     transform="translate(4.7891652e-5,-0.33)"><path
       d="m -319.598,256.33 c 4.579,0 8.288,3.708 8.288,8.289 0,4.578 -3.708,8.286 -8.288,8.286 -4.576,0 -8.284,-3.708 -8.284,-8.286 0.001,-4.58 3.709,-8.289 8.284,-8.289 z"
       id="path6"
       inkscape:connector-curvature="0" /><path
       d="m -269.165,256.33 c 4.579,0 8.287,3.708 8.287,8.289 0,4.578 -3.708,8.286 -8.287,8.286 -4.576,0 -8.284,-3.708 -8.284,-8.286 0,-4.58 3.708,-8.289 8.284,-8.289 z"
       id="path8"
       inkscape:connector-curvature="0" /><path
       d="m -259.084,275.016 -21.795,0.005 c -4.217,0 -8.542,1.156 -12.276,3.225 -3.68,-2.186 -7.974,-3.417 -12.161,-3.417 l -23.289,0 c -5.992,0 -8.893,4.855 -9.674,7.589 l -7.497,22.769 c -1.516,5.159 5.101,7.139 6.663,2.323 l 7.159,-22.369 3.566,0 -1.9333,39.37379 0.1593,-4.68159 0,32.2318 c 0,5.246 7.864,5.246 7.864,0 l -0.006,-28.312 3.808,0 0,28.353 c 0,5.181 7.83,5.206 7.83,0 l 0,-28.152 0.0925,5.6179 0.10956,-47.5959 5.148,0 c 2.005,0 4.072,0.426 6.008,1.185 -2.646,3.063 -4.3,6.87 -4.3,11.214 0,3.902 1.83,7.517 4.537,10.562 -0.713,0.388 -1.437,0.737 -2.158,1.031 -1.828,0.746 -2.705,2.83 -1.96,4.658 0.565,1.386 1.901,2.227 3.311,2.227 0.449,0 0.905,-0.086 1.347,-0.266 1.743,-0.711 3.515,-1.651 5.208,-2.774 1.677,1.084 3.427,1.998 5.148,2.692 0.44,0.177 0.896,0.261 1.343,0.261 1.423,0 2.771,-0.851 3.334,-2.253 0.742,-1.842 -0.15,-3.936 -1.991,-4.676 -0.713,-0.288 -1.43,-0.625 -2.136,-1.001 2.599,-3.025 4.344,-6.6 4.344,-10.46 0,-4.23 -1.506,-7.948 -3.914,-10.983 2.034,-0.757 4.208,-1.18 6.317,-1.18 l 1.16,0 -0.011,69.023 c 0,2.631 2.136,4.767 4.767,4.767 2.639,0 4.288,-2.136 4.288,-4.767 l 0.007,-35.521 3.352,0.017 -0.014,35.637 c 0,2.63 2.006,4.634 4.64,4.634 2.632,0 4.768,-2.136 4.768,-4.767 l 0.021,-64.489 3.453,0 0,22.338 c 0,5.112 6.669,5.112 6.656,0 l 0,-22.879 c -0.002,-5.652 -4.684,-11.19 -11.293,-11.19 z m -34.279,25.519 c -1.837,-1.938 -3.055,-4.1 -3.055,-6.162 0,-2.758 1.219,-5.188 3.128,-7.141 1.755,1.965 2.862,4.397 2.862,7.141 0,2.069 -1.167,4.224 -2.935,6.162 z"
       id="path10"
       inkscape:connector-curvature="0"
       sodipodi:nodetypes="cccsscccccccscccsscccscscccscccscccscsccsccccscccsccccccscc" /></g><text
     x="-345.99994"
     y="370.67001"
     font-size="5px"
     font-weight="bold"
     id="text12"
     style="font-weight:bold;font-size:5px;font-family:'Helvetica Neue', Helvetica, Arial-Unicode, Arial, Sans-serif;fill:#000000" />
<text
     xml:space="preserve"
     style="font-style:normal;font-weight:normal;font-size:10px;line-height:125%;font-family:sans-serif;letter-spacing:0px;word-spacing:0px;fill:#000000;fill-opacity:1;stroke:none;stroke-width:1px;stroke-linecap:butt;stroke-linejoin:miter;stroke-opacity:1"
     x="-199.13503"
     y="295.39459"
     id="text3348"
     sodipodi:linespacing="125%"><tspan
       sodipodi:role="line"
       id="tspan3350"
       x="-199.13503"
       y="295.39459"
       style="font-size:15px;text-align:center;text-anchor:middle">Criado por</tspan><tspan
       sodipodi:role="line"
       x="-199.13503"
       y="314.14459"
       id="tspan3352"
       style="font-size:15px;text-align:center;text-anchor:middle">Luis Prado</tspan><tspan
       sodipodi:role="line"
       x="-199.13503"
       y="332.89459"
       style="font-size:15px;text-align:center;text-anchor:middle"
       id="tspan3354">(adaptado)</tspan></text>
</svg>