<?xml version="1.0" encoding="UTF-8" standalone="no"?>
<svg
   xmlns:dc="http://purl.org/dc/elements/1.1/"
   xmlns:cc="http://creativecommons.org/ns#"
   xmlns:rdf="http://www.w3.org/1999/02/22-rdf-syntax-ns#"
   xmlns:svg="http://www.w3.org/2000/svg"
   xmlns="http://www.w3.org/2000/svg"
   xmlns:sodipodi="http://sodipodi.sourceforge.net/DTD/sodipodi-0.dtd"
   xmlns:inkscape="http://www.inkscape.org/namespaces/inkscape"
   version="1.1"
   x="0px"
   y="0px"
   viewBox="0 0 141.51259 89.522507"
   enable-background="new 0 0 100 100"
   xml:space="preserve"
   id="svg2"
   inkscape:version="0.91 r13725"
   sodipodi:docname="noun_scientist3.svg"
   width="141.51259"
   height="89.522507"><metadata
     id="metadata14"><rdf:RDF><cc:Work
         rdf:about=""><dc:format>image/svg+xml</dc:format><dc:type
           rdf:resource="http://purl.org/dc/dcmitype/StillImage" /><dc:title></dc:title></cc:Work></rdf:RDF></metadata><defs
     id="defs12" /><sodipodi:namedview
     pagecolor="#ffffff"
     bordercolor="#666666"
     borderopacity="1"
     objecttolerance="10"
     gridtolerance="10"
     guidetolerance="10"
     inkscape:pageopacity="0"
     inkscape:pageshadow="2"
     inkscape:window-width="1440"
     inkscape:window-height="849"
     id="namedview10"
     showgrid="false"
     fit-margin-top="0"
     fit-margin-left="0"
     fit-margin-right="0"
     fit-margin-bottom="0"
     inkscape:zoom="5.3400704"
     inkscape:cx="69.060379"
     inkscape:cy="35.491314"
     inkscape:window-x="0"
     inkscape:window-y="0"
     inkscape:window-maximized="1"
     inkscape:current-layer="svg2" /><path
     d="m 34.46466,22.37437 c 0,0.806641 -0.653869,1.460571 -1.46051,1.460571 -0.806641,0 -1.460571,-0.65393 -1.460571,-1.460571 0,-0.806641 0.653931,-1.46051 1.460571,-1.46051 0.806641,0 1.46051,0.653869 1.46051,1.46051 z m 45.03632,61.670595 -0.01758,3.736328 c -0.0029,0.959961 -0.788086,1.741211 -1.75,1.741211 l -75.9834019,0 c -0.964844,0 -1.75,-0.785156 -1.75,-1.75 l 0,-3.731445 c 0,-0.118897 0.03357,-0.227356 0.08282,-0.32727 0.0042,-0.0086 0.002,-0.01868 0.0065,-0.02722 l 8.986854,-16.730471 c 0.302734,-0.5625 0.885742,-0.911133 1.5224609,-0.911133 l 0.973144,0 0,-1.283203 c 0,-0.414062 0.335938,-0.75 0.75,-0.75 l 2.325867,0 9.72052,-22.097656 c 0.272095,-0.618469 0.657654,-1.160156 1.109558,-1.635925 0.640564,-1.152466 1.855957,-1.943177 3.265442,-1.943177 l 4.405762,1.22e-4 0,-1.934753 c -2.932679,-1.728271 -4.707398,-4.544067 -5.771241,-7.930542 -0.132263,0.02484 -0.26593,0.03754 -0.400146,0.03754 -1.253906,4.88e-4 -2.560059,-1.059571 -3.206055,-2.718264 -0.782226,-2.007324 -0.257324,-4.023926 1.195313,-4.589844 0.05231,-0.02039 0.107177,-0.02271 0.160217,-0.03876 -0.52301,-2.599915 -1.917847,-11.5946046 2.467712,-16.9959103 2.312989,-2.8496089 5.840332,-4.22021441 10.454102,-4.05664011 0.121094,0.00391 0.238281,0.03125 0.34668,0.078125 5.874023,-0.6967773 10.284179,0.5654297 13.113281,3.75048781 4.744144,5.342041 3.471867,14.3587646 2.911381,17.2350456 0.0376,0.01233 0.07678,0.01312 0.114014,0.02765 1.452148,0.566407 1.976562,2.58252 1.195312,4.590332 -0.646484,1.658205 -1.953125,2.717776 -3.207035,2.717776 -0.131897,0 -0.263489,-0.01172 -0.393799,-0.03577 -1.063232,3.399902 -2.839477,6.22406 -5.777099,7.950073 l 0,1.913696 4.230468,1.23e-4 c 3.962895,-0.06934 4.914067,0.776855 6.077153,2.727539 l 11.543945,19.358886 c 1.034302,1.732849 0.990234,3.928833 -0.09735,5.623047 l 0.79657,0 c 0.637695,0 1.221679,0.34961 1.522461,0.91211 l 8.987304,16.729492 c 0.0049,0.0091 0.0025,0.0199 0.007,0.02918 0.04913,0.100525 0.08246,0.209594 0.08191,0.329223 z M 52.535644,27.00102 c 0.57074,-0.01697 1.3736,-0.674257 1.795414,-1.755861 0.487305,-1.249512 0.220703,-2.428711 -0.341797,-2.648438 -0.03046,-0.01178 -0.06653,-0.01117 -0.09949,-0.01782 -0.116943,0.09277 -0.251224,0.164856 -0.403446,0.19458 -0.06055,0.01172 -0.121094,0.01758 -0.181641,0.01758 -0.01019,0 -0.01898,-0.0067 -0.02917,-0.007 -0.170349,1.45813 -0.409424,2.872498 -0.739869,4.216921 z m -25.56604,0.0012 c -0.339782,-1.375857 -0.58374,-2.82477 -0.755554,-4.318972 -0.167236,-0.0824 -0.329406,-0.126587 -0.475769,-0.126587 -0.08105,0 -0.157226,0.01318 -0.227051,0.04004 -0.562988,0.219727 -0.829101,1.398438 -0.342285,2.647949 0.422852,1.086243 1.227173,1.745303 1.800659,1.757571 z m 22.313904,12.833252 2.57782,4.490722 c 0.166016,0.291504 0.204102,0.637696 0.106445,0.952149 -0.09863,0.318847 -0.331054,0.585937 -0.637695,0.734375 l -4.121094,1.984375 0.895691,1.467407 1.483215,0.387085 c 0.400391,0.104492 0.640625,0.513672 0.536133,0.915039 l -0.578125,2.21582 c -0.0498,0.192383 -0.174805,0.357422 -0.34668,0.458008 -0.05664,0.0332 -0.11621,0.05762 -0.177734,0.07519 l -0.513123,1.964905 0.268982,0.05756 c 0.661682,0.141968 1.250855,0.468628 1.72107,0.933167 0.07983,-0.01086 0.161255,-0.01758 0.244751,-0.0015 l 0.39917,0.07953 4.283451,0.853088 -2.141789,-3.426697 -0.130676,-0.209045 c -0.219727,-0.351563 -0.113281,-0.813477 0.238281,-1.033203 0.352539,-0.21875 0.814457,-0.113281 1.033207,0.238281 l 3.192383,5.108399 c 0.15918,0.253906 0.151367,0.577148 -0.01855,0.823242 -0.141601,0.206054 -0.374023,0.324219 -0.617187,0.324219 -0.04883,0 -0.09766,-0.0049 -0.146485,-0.01465 l -5.39838,-1.075867 c 0.124268,0.506836 0.14679,1.036133 0.03412,1.561219 l -0.663086,3.099609 c -0.118286,0.553101 -0.369873,1.04065 -0.702698,1.453613 l 9.092838,1.793457 3.803772,0.750245 0.191834,0.03784 c 0.48584,0.09241 0.976318,0.07184 1.444519,-0.03784 0.547363,-0.128174 1.062073,-0.382447 1.498169,-0.750245 0.255554,-0.215576 0.485656,-0.466735 0.677429,-0.753906 0.816406,-1.225586 0.856445,-2.834961 0.101562,-4.100586 L 55.370121,41.831586 C 54.527347,40.418012 54.133793,39.76811 50.592773,39.835493 l -1.309265,0 z m 15.074894,30.358886 0,4.805665 1.572266,0 0,-4.805665 c 0,-0.276367 0.149414,-0.517578 0.37207,-0.648437 l 0,-0.06348 -2.316406,0 0,0.06348 c 0.222656,0.130859 0.37207,0.37207 0.37207,0.648437 z m -1.5,10.115235 0,-3.523438 -2.427734,0 0,3.523438 c 0,0.03778 -0.0093,0.07318 -0.01215,0.110351 l 2.452026,0 c -0.0028,-0.03717 -0.01215,-0.07257 -0.01215,-0.110351 z M 46.511719,62.443403 c -0.04974,0.232666 -0.207642,0.40863 -0.405823,0.506714 -0.101318,0.05011 -0.209656,0.08606 -0.326599,0.08606 -0.006,0 -0.01227,-0.0018 -0.01825,-0.0019 -0.04602,-0.001 -0.09247,-0.0043 -0.139953,-0.01471 L 45.02301,62.891698 42.531433,62.358922 c 0.04852,0.08862 0.103149,0.172302 0.164429,0.252625 0.168823,0.221496 0.382568,0.406189 0.633301,0.542724 0.165161,0.08997 0.340148,0.165772 0.533142,0.207092 l 0.983093,0.210389 0.734253,0.157104 0.305847,0.06543 0.427979,0.09161 0.64746,0.138549 c 0.06213,0.01331 0.123536,0.01318 0.185425,0.02051 0.375489,0.04431 0.741333,-0.01593 1.067566,-0.166443 0.554138,-0.255737 0.989563,-0.753784 1.126892,-1.39508 l 0.663086,-3.09961 c 0.112305,-0.523437 0.01367,-1.058593 -0.277344,-1.507812 -0.291015,-0.450195 -0.740234,-0.758789 -1.263672,-0.871094 l -0.333923,-0.07147 -0.734009,-0.157044 -0.734008,-0.157104 -1.296692,-0.277466 c -0.08258,-0.01776 -0.16565,-0.02124 -0.248657,-0.0285 -0.272095,-0.02387 -0.542054,0.007 -0.799439,0.09277 -0.159668,0.05322 -0.315674,0.119324 -0.460693,0.213074 -0.04218,0.02722 -0.07654,0.06238 -0.11615,0.09228 l 2.744201,0.587402 0.346558,0.07422 c 0.143188,0.0307 0.258057,0.109375 0.355713,0.204468 0.178772,0.17395 0.276672,0.424072 0.220459,0.686157 -0.02545,0.119141 -0.08508,0.218811 -0.156983,0.307495 -0.100707,0.124207 -0.234375,0.212464 -0.388977,0.252991 -0.06085,0.01599 -0.121948,0.03229 -0.186462,0.03229 -0.05273,0 -0.105469,-0.0049 -0.158203,-0.0166 l -0.41156,-0.08807 -3.160828,-0.676636 -0.133301,0.622925 3.132996,0.670655 0.43988,0.09418 c 0.103882,0.02228 0.197144,0.06598 0.278321,0.124084 0.111206,0.07953 0.186401,0.192505 0.240295,0.316284 0.06024,0.138611 0.09167,0.291077 0.05756,0.450257 -0.03986,0.186218 -0.148254,0.337768 -0.290649,0.442627 -0.103943,0.07654 -0.227417,0.120544 -0.358399,0.135742 -0.02826,0.0033 -0.0545,0.0144 -0.08337,0.0144 -0.05273,0 -0.105468,-0.0049 -0.158203,-0.0166 l -0.504821,-0.108033 -3.067505,-0.656677 -0.133484,0.623719 3.039856,0.650024 0.533142,0.114014 c 0.07062,0.0152 0.129944,0.05042 0.190613,0.08301 0.105468,0.05658 0.197631,0.129151 0.264221,0.224793 0.114502,0.164429 0.166687,0.371338 0.121338,0.582825 z M 46.21289,52.111372 45.496582,54.854291 c 0.06073,0.0098 0.12146,0.0078 0.182129,0.02075 l 0.38446,0.08228 0.977173,0.209106 0.694031,-2.657593 c 0.0498,-0.192382 0.174805,-0.357421 0.34668,-0.458007 0.05664,-0.0332 0.116211,-0.05762 0.177734,-0.0752 l 0.149292,-0.573242 0.07532,-0.289062 -0.299316,-0.07806 -1.942871,-0.506897 -0.224609,0.862304 c 0.04492,0.04492 0.08496,0.0957 0.117187,0.151368 0.101562,0.171875 0.129883,0.376953 0.0791,0.569336 z m -0.463256,13.933593 5.700195,0 -3.129456,-0.617309 c -0.303039,0.08527 -0.61615,0.141723 -0.939514,0.141723 -0.242187,0 -0.488281,-0.02539 -0.734375,-0.07813 l -0.712463,-0.152465 -0.184387,0.706176 z m -5.563599,-9.401184 -0.120605,0.265442 3.989746,-2.472351 0.54248,-2.077454 c -0.04492,-0.04492 -0.08496,-0.0957 -0.117187,-0.151367 -0.101563,-0.171875 -0.129883,-0.376953 -0.0791,-0.569336 l 0.578123,-2.214843 c 0.104492,-0.401368 0.516602,-0.642579 0.915039,-0.536133 l 0.119751,0.03125 -0.257446,-0.421875 c -0.176758,-0.290039 -0.223633,-0.641602 -0.12793,-0.964844 0.09668,-0.326172 0.332031,-0.599609 0.644531,-0.75 l 4.126954,-1.987305 -2.695313,-4.696777 -7.519043,16.545593 z m 4.665527,-19.438659 c -0.09631,0.02704 -0.19458,0.04553 -0.291259,0.07098 -1.377015,0.523926 -2.952637,0.857056 -4.772217,0.949524 -1.791199,-0.09052 -3.346985,-0.411682 -4.710938,-0.916076 -0.142456,-0.03638 -0.286621,-0.06464 -0.428222,-0.104432 l 0,2.722657 4.862243,2.628479 0.06403,0.03461 c 0.06348,0.03424 0.117859,0.07739 0.175293,0.117614 0.05743,-0.04022 0.111817,-0.08337 0.175293,-0.117614 l 0.06403,-0.03461 4.861755,-2.628662 0,-2.722473 z m -4.21289,6.705078 c -0.05957,0.03223 -0.0791,0.06494 -0.08203,0.07373 l 0.03052,0.04596 1.77417,2.669372 c 0.03125,0.0459 0.103516,0.08496 0.19043,0.102539 0.11914,0.02246 0.242187,9.77e-4 0.327148,-0.05664 l 0.230103,-0.158692 2.416748,-5.318664 -4.887085,2.642395 z m -6.739868,-2.683228 -0.07794,-0.04211 0.07794,0.170166 2.34967,5.130493 0.373108,0.259644 c 0.0835,0.05664 0.206543,0.07715 0.327148,0.05664 0.08643,-0.0166 0.159668,-0.05664 0.19043,-0.102539 l 1.770203,-2.669495 0.02911,-0.04388 c 0.0029,-0.01074 -0.0166,-0.04346 -0.07617,-0.07568 l -4.9635,-2.683228 z m 3.175903,7.062683 1.192749,2.604492 0.07306,-0.653869 c 0.009,-0.08148 0.182983,-0.145752 0.394653,-0.145752 l 2.030396,0 c 0.21167,0 0.38562,0.06427 0.394653,0.145752 l 0.05689,0.509704 1.121765,-2.468628 c -0.02411,-0.0037 -0.04822,-0.0023 -0.07227,-0.0069 -0.329345,-0.06378 -0.617736,-0.21051 -0.852478,-0.41394 l -0.216919,1.380615 c -0.03656,0.232788 -0.198913,0.400574 -0.387512,0.400574 l -2.118835,0 c -0.188599,0 -0.350952,-0.167786 -0.387512,-0.400574 l -0.21698,-1.380798 c -0.234986,0.203552 -0.523377,0.350342 -0.852478,0.414123 -0.05292,0.01025 -0.106018,0.0093 -0.15918,0.0152 z M 35.721313,35.926252 c 1.194153,0.437317 2.529724,0.723267 4.066773,0.801331 1.549316,-0.07928 2.892822,-0.372925 4.092102,-0.822388 3.56134,-1.334778 5.677856,-4.234558 6.87616,-8.340515 0.105529,-0.361573 0.209045,-0.726319 0.300781,-1.106264 0.243347,-1.007447 0.442932,-2.074524 0.59906,-3.204712 0.06122,-0.443238 0.111023,-0.903992 0.160278,-1.365113 0.01495,-0.139831 0.03156,-0.277221 0.04547,-0.418701 l -0.621705,-0.857544 c -4.329101,-2.329101 -6.452148,-6.038574 -7.39746,-8.302734 -2.451172,2.804199 -6.42334,2.754883 -6.621094,2.74707 -0.431641,-0.0098 -0.802735,-0.30957 -0.902832,-0.72998 -0.02539,-0.107422 -0.03174,-0.216309 -0.02002,-0.321778 -2.336425,0.916016 -4.54541,1.042481 -4.711425,1.050782 -0.319825,0.02344 -0.63379,-0.137696 -0.81836,-0.393067 -1.172851,0.540039 -2.168945,0.75586 -2.629883,0.833496 -0.301513,0.736512 -0.555786,1.632081 -0.73114,2.709168 0.0578,1.284302 0.151001,2.51001 0.276978,3.684875 0.0495,0.461487 0.09949,0.922547 0.16101,1.366089 0.15625,1.12677 0.35608,2.190613 0.599549,3.195374 0.09216,0.380373 0.195923,0.745729 0.301941,1.107668 1.209655,4.12976 3.353149,7.040893 6.973815,8.366943 z m -4.033325,4.204162 -2.457031,4.227051 3.808594,1.809571 c 0.111267,0.05298 0.198181,0.136779 0.286377,0.218017 0.1557,0.143372 0.285278,0.310547 0.345459,0.514405 0.04639,0.157226 0.05774,0.321533 0.03564,0.481811 -0.0221,0.160278 -0.07764,0.316528 -0.165039,0.457642 l -0.126099,0.204162 -1.873901,3.034119 7.168945,4.388672 -7.022949,-15.33545 z m -5.194824,25.174317 1.221558,0 0.546386,-1.552246 c -0.186401,-0.349854 -0.254577,-0.760437 -0.161499,-1.169434 0.06604,-0.290344 0.111389,-0.601684 0.146973,-0.926269 0.0614,-0.560791 0.08331,-1.17511 0.05762,-1.890137 -0.0015,-0.03986 0.0072,-0.07935 0.007,-0.119141 -0.0022,-0.446228 0.06421,-0.891174 0.216614,-1.324218 0.225281,-0.640015 0.600159,-1.198914 1.079529,-1.622254 0.162842,-0.143799 0.337219,-0.272461 0.522522,-0.382629 0.190674,-0.113892 0.38678,-0.204712 0.585693,-0.274414 0.609436,-0.213501 1.246399,-0.219361 1.843506,-0.0088 1.581543,0.55664 2.347656,2.489257 1.70752,4.307617 -0.166504,0.472656 -0.41211,0.898437 -0.729981,1.265625 -0.739258,0.854492 -1.249023,1.592773 -1.60498,2.323242 -0.181702,0.372498 -0.492676,0.636108 -0.852234,0.793274 l -0.204102,0.579773 2.228699,0 c 0.549988,0 1.027038,0.299194 1.290161,0.740234 l 6.629944,0 0.616638,-2.36145 c -0.479675,-0.55658 -0.77533,-1.254334 -0.836182,-2.00415 -0.01733,-0.213746 -0.01355,-0.429322 0.0098,-0.64856 0.01294,-0.121338 0.0141,-0.241821 0.04016,-0.36377 L 41.466753,57.80594 40.1924,58.595735 c -0.209961,0.129883 -0.444336,0.19336 -0.677735,0.19336 -0.305664,0 -0.609375,-0.109375 -0.854492,-0.324219 C 38.2549,58.108431 38.1299,57.543978 38.349626,57.060579 l 0.02039,-0.04492 -7.658081,-4.688171 -0.233398,-0.142883 c -0.270996,-0.165039 -0.46045,-0.423828 -0.533204,-0.727539 -0.07178,-0.301758 -0.021,-0.614258 0.144044,-0.881836 l 1.980957,-3.208008 -3.798829,-1.805176 c -0.301757,-0.143066 -0.530761,-0.404785 -0.627441,-0.716797 -0.09522,-0.307617 -0.05615,-0.645996 0.107422,-0.927246 l 2.267822,-3.901062 0.105713,-0.181885 -1.381836,-6.1e-5 c -0.904785,0 -1.681457,0.539795 -2.038452,1.311585 -0.132507,0.28656 -0.211548,0.602478 -0.211548,0.938415 l 0,19.832947 0,1.86261 0,1.52417 z M 29.5625,62.915082 c -0.02344,0.10254 0.0498,0.214844 0.166015,0.254883 l 0.56543,0.200196 c 0.117188,0.04199 0.244141,0 0.289063,-0.0957 0.414551,-0.850586 0.992676,-1.692383 1.818847,-2.647461 0.194825,-0.22461 0.346192,-0.488282 0.449707,-0.782227 0.365723,-1.038086 0.01074,-2.113281 -0.791015,-2.395508 l -4.89e-4,0 c -0.127929,-0.04492 -0.261718,-0.06738 -0.398437,-0.06738 -0.252441,0 -0.51416,0.07617 -0.76416,0.225586 -0.430176,0.25586 -0.769043,0.686524 -0.95459,1.213868 -0.103516,0.293945 -0.150391,0.59375 -0.139648,0.890625 0.04541,1.263671 -0.03125,2.281249 -0.240723,3.203124 z m 3.54834,3.896485 -2.76532,-0.0018 -3.030274,8.608215 5.791016,0 0.0046,-8.606445 z m -3.871582,-2.22345 -3.812561,10.829895 0.616333,0 3.744018,-10.635925 -0.54779,-0.19397 z m -6.872071,2.216614 -0.0063,0.740234 -6.1e-5,0.0039 c 0.567077,0.004 1.05426,0.318786 1.313415,0.777404 0.123535,0.218567 0.199768,0.467041 0.199768,0.735291 l 0,6.356445 0.28064,0 3.030945,-8.610229 -4.818421,-0.0031 z m -6.080993,-2.792969 0.597595,0 c 0.414062,0 0.75,0.335938 0.75,0.75 l 0,1.283203 3.443726,0 c 0.263061,-0.44104 0.73999,-0.740234 1.289672,-0.740234 l 2.625977,0 0,-21.086121 -8.70697,19.793152 z m -2.4693,2.09082 0,4.747071 c 0,0.106445 -0.02246,0.211914 -0.06641,0.308594 l -3.714844,8.233398 c -0.04883,0.107422 -0.0098,0.195312 0.01758,0.238281 0.02783,0.04297 0.0918,0.114258 0.21045,0.114258 l 8.679199,0 c 0.118652,0 0.182129,-0.07129 0.209961,-0.114258 0.02734,-0.04297 0.06641,-0.129883 0.01758,-0.238281 l -0.287415,-0.636963 c -0.02356,0.0034 -0.04456,0.01392 -0.06903,0.01392 l -2.827148,0 c -0.276367,0 -0.5,-0.223633 -0.5,-0.5 0,-0.276367 0.223633,-0.5 0.5,-0.5 l 2.451294,0 -0.451172,-1 -2.000122,0 c -0.276367,0 -0.5,-0.223633 -0.5,-0.5 0,-0.276367 0.223633,-0.5 0.5,-0.5 l 1.058594,0 0.490295,0 -0.451172,-1 -0.730835,0 -0.366882,0 c -0.262512,0 -0.471252,-0.203979 -0.492127,-0.460998 -0.0011,-0.01355 -0.0079,-0.02515 -0.0079,-0.039 0,-0.276367 0.223633,-0.5 0.5,-0.5 l 0.07117,0 0.575378,0 -1.177795,-2.610352 c -0.04395,-0.09668 -0.06641,-0.202148 -0.06641,-0.308593 l 0,-4.747071 c 0,-0.02075 0.01184,-0.03735 0.01349,-0.05762 0.0015,-0.01862 0.0096,-0.03467 0.01239,-0.05286 l 0.262207,-0.480347 -0.05084,0 -2.097595,0 c 0.140686,0.110474 0.222961,0.276306 0.257141,0.458923 0.0048,0.02527 0.01532,0.0481 0.01746,0.07428 0.0016,0.02026 0.01349,0.03686 0.01349,0.05762 z m -11.8124999,17.188477 75.4926799,0 -8.394531,-15.625977 c -0.04004,-0.07422 -0.116211,-0.120117 -0.200196,-0.120117 l -2.283386,0 c -0.252685,0.167053 -0.514526,0.318238 -0.791321,0.4375 l 1.225098,0 c 0.414063,0 0.75,0.335938 0.75,0.75 l 0,1.461914 c 0,0.276368 -0.149414,0.517578 -0.37207,0.648438 l 0,4.443359 2.044922,0 c 0.414062,0 0.75,0.335938 0.75,0.75 l 0,5.133789 c 0,0.414063 -0.335938,0.75 -0.75,0.75 l -22.662114,0 c -0.414062,0 -0.75,-0.335937 -0.75,-0.75 l 0,-5.133789 c 0,-0.414062 0.335938,-0.75 0.75,-0.75 l 2.044922,0 0,-4.443359 c -0.222656,-0.13086 -0.37207,-0.37207 -0.37207,-0.648438 l 0,-1.461914 c 0,-0.414062 0.335938,-0.75 0.75,-0.75 l 3.816406,0 c 0.414063,0 0.750004,0.335938 0.750004,0.75 l 0,1.461914 c 0,0.276368 -0.149418,0.517578 -0.372074,0.648438 l 0,4.443359 2.427738,0 0,-4.443359 c -0.222656,-0.13086 -0.37207,-0.37207 -0.37207,-0.648438 l 0,-1.461914 c 0,-0.414062 0.335937,-0.75 0.75,-0.75 l 3.816406,0 c 0.414063,0 0.75,0.335938 0.75,0.75 l 0,1.461914 c 0,0.276368 -0.149414,0.517578 -0.37207,0.648438 l 0,4.443359 2.427734,0 0,-4.443359 c -0.222656,-0.13086 -0.37207,-0.37207 -0.37207,-0.648438 l 0,-1.461914 c 0,-0.1828 0.0733,-0.34436 0.182068,-0.474487 l -3.614624,-0.713013 -13.695866,0 -0.172363,0.660157 c -0.13086,0.502929 -0.408203,0.944335 -0.780274,1.242187 -0.319336,0.257813 -0.692382,0.392578 -1.063476,0.392578 -0.126953,0 -0.254883,-0.0166 -0.378907,-0.04883 l -1.037109,-0.270506 c -0.809509,-0.211548 -1.295776,-1.033142 -1.238708,-1.975586 l -6.076233,0 0,12.128907 c 0,0.830078 -0.675782,1.505859 -1.506836,1.505859 l -9.223633,0 c -0.830566,0 -1.506348,-0.675781 -1.506348,-1.505859 l 0,-10.612305 C 21.536621,69.054767 20.86084,68.37895 20.86084,67.548872 l 0,-0.0039 -3.97168,0 0,3.143555 3.648438,8.085937 c 0.245605,0.543946 0.19873,1.167969 -0.125,1.668946 -0.323243,0.501953 -0.873047,0.800781 -1.469727,0.800781 l -8.679199,0 c -0.5971679,0 -1.1464849,-0.298828 -1.4702149,-0.800781 -0.323731,-0.500977 -0.370606,-1.125 -0.125,-1.668946 l 3.6484369,-8.085937 0,-3.143555 -1.718261,0 c -0.08398,0 -0.161133,0.04687 -0.20166,0.121094 l -8.3925789,15.625 z m 55.3540079,-13.09668 0,3.479309 1.572266,0 0,-3.479309 c 0,-0.276367 0.149414,-0.517578 0.37207,-0.648437 l 0,-0.06348 -2.316406,0 0,0.06348 c 0.222656,0.130859 0.37207,0.37207 0.37207,0.648437 z m -1.5,10.115235 0,-3.523438 -2.427738,0 0,3.523438 c 0,0.03778 -0.0093,0.07318 -0.01215,0.110351 l 2.45203,0 c -0.0028,-0.03717 -0.01215,-0.07257 -0.01215,-0.110351 z m -5.500004,-10.115235 0,3.479309 1.572266,0 0,-3.479309 c 0,-0.276367 0.149414,-0.517578 0.37207,-0.648437 l 0,-0.06348 -2.316406,0 0,0.06348 c 0.222656,0.130859 0.37207,0.37207 0.37207,0.648437 z m -1.5,10.115235 0,-3.523438 -1.294922,0 0,3.633789 1.307068,0 c -0.0028,-0.03717 -0.01215,-0.07257 -0.01215,-0.110351 z m 19.867192,0.110351 0,-3.633789 -1.294922,0 0,3.523438 c 0,0.03778 -0.0093,0.07318 -0.01215,0.110351 l 1.307068,0 z m 9.27185,4.371094 -76.4974399,0 0,2.981445 c 0,0.137696 0.112305,0.25 0.25,0.25 l 75.9833979,0 c 0.137696,0 0.25,-0.111328 0.25,-0.248047 l 0.01404,-2.983398 z M 46.496399,23.834941 c 0.80664,0 1.460571,-0.65393 1.460571,-1.460571 0,-0.806641 -0.653931,-1.46051 -1.460571,-1.46051 -0.806641,0 -1.460511,0.653869 -1.460511,1.46051 0,0.806641 0.65387,1.460571 1.460511,1.460571 z m -7.117493,4.692446 1.323242,0 c 0.414063,0 0.75,-0.335937 0.75,-0.75 0,-0.414062 -0.335937,-0.75 -0.75,-0.75 l -1.15332,0 0,-1.932619 c 0,-0.414062 -0.335938,-0.75 -0.75,-0.75 -0.414063,0 -0.75,0.335938 -0.75,0.75 l 0,2.102541 c 0,0.733399 0.59668,1.330078 1.330078,1.330078 z M 39.75,33.460004 c 1.77539,0 3.671875,-0.43164 3.671875,-1.642578 0,-0.414062 -0.335938,-0.75 -0.75,-0.75 -0.333985,0 -0.617188,0.21875 -0.714844,0.520996 -0.25,0.148926 -1.040039,0.371582 -2.207031,0.371582 -1.166992,0 -1.955567,-0.222656 -2.206543,-0.371093 -0.09668,-0.302735 -0.379883,-0.521485 -0.714356,-0.521485 -0.414062,0 -0.75,0.335938 -0.75,0.75 0,1.210938 1.896485,1.642578 3.670899,1.642578 z"
     id="path4"
     inkscape:connector-curvature="0" /><text
     x="-10.249508"
     y="109.76125"
     font-size="5px"
     font-weight="bold"
     id="text6"
     style="font-weight:bold;font-size:5px;font-family:'Helvetica Neue', Helvetica, Arial-Unicode, Arial, Sans-serif;fill:#000000" />
<text
     xml:space="preserve"
     style="font-style:normal;font-weight:normal;font-size:10px;line-height:125%;font-family:sans-serif;letter-spacing:0px;word-spacing:0px;fill:#000000;fill-opacity:1;stroke:none;stroke-width:1px;stroke-linecap:butt;stroke-linejoin:miter;stroke-opacity:1"
     x="115.39931"
     y="39.237965"
     id="text3342"
     sodipodi:linespacing="125%"><tspan
       sodipodi:role="line"
       id="tspan3344"
       x="115.39931"
       y="39.237965"
       style="text-align:center;text-anchor:middle">Criado por</tspan><tspan
       sodipodi:role="line"
       x="115.39931"
       y="51.737965"
       id="tspan3346"
       style="text-align:center;text-anchor:middle">Llisole</tspan></text>
</svg>