<?xml version="1.0" encoding="UTF-8" standalone="no"?>
<svg
   xmlns:dc="http://purl.org/dc/elements/1.1/"
   xmlns:cc="http://creativecommons.org/ns#"
   xmlns:rdf="http://www.w3.org/1999/02/22-rdf-syntax-ns#"
   xmlns:svg="http://www.w3.org/2000/svg"
   xmlns="http://www.w3.org/2000/svg"
   xmlns:sodipodi="http://sodipodi.sourceforge.net/DTD/sodipodi-0.dtd"
   xmlns:inkscape="http://www.inkscape.org/namespaces/inkscape"
   version="1.1"
   x="0px"
   y="0px"
   viewBox="0 0 451.2537 202.67992"
   xml:space="preserve"
   id="svg2"
   inkscape:version="0.91 r13725"
   sodipodi:docname="noun_botany_886257.svg"
   width="451.25369"
   height="202.67992"><metadata
     id="metadata34"><rdf:RDF><cc:Work
         rdf:about=""><dc:format>image/svg+xml</dc:format><dc:type
           rdf:resource="http://purl.org/dc/dcmitype/StillImage" /><dc:title></dc:title></cc:Work></rdf:RDF></metadata><defs
     id="defs32" /><sodipodi:namedview
     pagecolor="#ffffff"
     bordercolor="#666666"
     borderopacity="1"
     objecttolerance="10"
     gridtolerance="10"
     guidetolerance="10"
     inkscape:pageopacity="0"
     inkscape:pageshadow="2"
     inkscape:window-width="1440"
     inkscape:window-height="849"
     id="namedview30"
     showgrid="false"
     fit-margin-top="0"
     fit-margin-left="0"
     fit-margin-right="0"
     fit-margin-bottom="0"
     inkscape:zoom="2.6348078"
     inkscape:cx="270.96081"
     inkscape:cy="128.54468"
     inkscape:window-x="0"
     inkscape:window-y="0"
     inkscape:window-maximized="1"
     inkscape:current-layer="svg2" /><g
     id="g4"
     transform="translate(8.3799321e-5,0.00492303)"><g
       id="g6"><ellipse
         transform="matrix(0.7226,-0.6913,0.6913,0.7226,10.813,71.9337)"
         cx="95.035004"
         cy="22.493999"
         rx="22.493"
         ry="22.496"
         id="ellipse8" /><path
         d="m 12.037,105.022 c 0.432,0.274 0.85,0.536 1.259,0.787 3.803,7.942 9.497,23.272 9.47,43.713 -0.004,10.849 -1.572,23.192 -5.896,36.88 -2.082,6.583 1.566,13.605 8.149,15.688 1.253,0.396 2.522,0.584 3.771,0.584 5.308,0.001 10.231,-3.405 11.917,-8.733 5.114,-16.169 7.063,-31.141 7.06,-44.418 -0.007,-4.677 -0.253,-9.13 -0.675,-13.358 -0.203,-0.004 -0.405,-0.007 -0.608,-0.025 -5.493,-0.442 -9.606,-5.273 -9.163,-10.77 l 1.83,-22.723 c -1.629,-4.173 -3.252,-7.633 -4.648,-10.326 1.873,-3.002 3.965,-5.929 6.186,-8.766 l 2.968,-36.852 c 0.413,-5.156 4.784,-9.197 9.955,-9.197 0.267,0 0.54,0.01 0.812,0.034 5.494,0.443 9.605,5.273 9.17,10.767 l -0.917,11.379 c 0.155,-0.159 0.319,-0.324 0.472,-0.481 7.846,-6.763 11.22,-18.788 5.238,-25.237 -5.982,-6.452 -18.879,-9.34 -31.103,0.163 -16.733,13.163 -25.141,23.355 -35.128,43.367 -6.189,15.191 2.145,22.61 9.881,27.524 z"
         id="path10"
         inkscape:connector-curvature="0" /><path
         d="m 54.262,39.53 c -4.404,-0.354 -8.26,2.929 -8.615,7.333 l -6.334,78.666 c -0.354,4.403 2.928,8.262 7.334,8.617 0.219,0.018 0.435,0.026 0.65,0.026 4.127,0 7.627,-3.173 7.964,-7.358 l 6.335,-78.668 c 0.353,-4.405 -2.928,-8.261 -7.334,-8.616 z"
         id="path12"
         inkscape:connector-curvature="0" /></g><g
       id="g14"><ellipse
         transform="matrix(0.7291,-0.6844,0.6844,0.7291,-0.0843,115.8896)"
         cx="146.354"
         cy="58.050999"
         rx="22.495001"
         ry="22.493999"
         id="ellipse16" /><path
         d="m 174.973,85.198 c -0.564,-5.364 3.36,-10.285 8.754,-10.933 0.398,-0.048 0.807,-0.072 1.207,-0.072 5.047,0 9.308,3.785 9.916,8.803 0.04,0.334 0.139,1.282 0.139,2.763 0.008,4.368 -0.852,13.344 -6.602,24.6 4.65,5.558 9.309,11.628 13.119,17.992 l -30.262,14.146 c -3.861,1.806 -6.54,5.457 -7.099,9.684 -0.561,4.224 1.075,8.449 4.333,11.197 l 43.109,36.352 c 2.345,1.979 5.206,2.945 8.051,2.945 3.558,0 7.09,-1.51 9.564,-4.442 4.449,-5.277 3.78,-13.163 -1.497,-17.614 l -28.166,-23.751 20.371,-9.523 c 0.995,-0.377 2.051,-0.885 3.186,-1.489 l 0.984,-0.46 c 0.823,-0.385 1.58,-0.852 2.276,-1.38 7.501,-4.525 14.8,-11.551 9.785,-26.046 -8.896,-20.519 -16.744,-31.148 -32.743,-45.193 -11.696,-10.148 -24.729,-7.958 -31.049,-1.837 -5.541,5.365 -4.13,15.395 1.338,22.622 1.113,-3.768 1.293,-6.496 1.299,-7.811 0,-0.287 -0.007,-0.469 -0.013,-0.553 z"
         id="path18"
         inkscape:connector-curvature="0" /><path
         d="m 112.898,97.779 c -1.35,1.12 -1.795,2.793 -1.787,4.377 0.076,4.52 3.058,10.43 7.859,16.328 2.67,3.232 5.522,5.9 8.234,7.808 2.736,1.888 5.258,3.106 7.747,3.146 0.011,0 0.02,0 0.031,0 0.376,0 0.757,-0.052 1.136,-0.131 l 3.383,4.097 c 0.564,-0.662 1.217,-1.266 1.971,-1.779 0.47,-0.32 0.924,-0.643 1.384,-0.964 l -3.392,-4.108 c 0.34,-0.813 0.479,-1.7 0.475,-2.565 -0.076,-4.52 -3.057,-10.43 -7.86,-16.328 -2.67,-3.234 -5.521,-5.902 -8.234,-7.808 -2.735,-1.888 -5.255,-3.107 -7.746,-3.147 -1.103,-0.004 -2.274,0.306 -3.201,1.074 z m 16.098,12.427 c 4.479,5.344 7.02,11.131 6.944,13.783 -0.008,0.935 -0.242,1.227 -0.335,1.295 -0.076,0.058 -0.213,0.149 -0.653,0.155 -0.978,0.038 -3.11,-0.748 -5.448,-2.42 -2.353,-1.654 -4.988,-4.097 -7.447,-7.081 -4.479,-5.342 -7.022,-11.129 -6.945,-13.781 0.008,-0.939 0.242,-1.227 0.33,-1.291 0.084,-0.063 0.221,-0.153 0.657,-0.159 0.979,-0.04 3.11,0.749 5.447,2.42 2.354,1.652 4.989,4.098 7.45,7.079 z"
         id="path20"
         inkscape:connector-curvature="0" /><path
         d="m 140.481,144.394 c 1.547,2.278 4.061,3.504 6.623,3.504 1.548,0 3.113,-0.449 4.49,-1.384 18.643,-12.659 29.135,-25.681 34.828,-36.699 5.707,-11.01 6.573,-19.892 6.564,-24.059 0,-1.365 -0.088,-2.23 -0.123,-2.522 -0.529,-4.387 -4.515,-7.514 -8.899,-6.985 -4.346,0.523 -7.456,4.438 -6.999,8.775 0,0.005 0.001,0.018 0.003,0.038 0.006,0.082 0.018,0.305 0.018,0.693 -0.008,2.059 -0.387,8.216 -4.773,16.704 -4.401,8.48 -12.855,19.416 -29.615,30.819 -3.653,2.487 -4.602,7.461 -2.117,11.116 z"
         id="path22"
         inkscape:connector-curvature="0" /></g><path
       d="m 61.629,172.918 c 13.681,-1.68 22.986,3.431 37.424,-2.353 -0.533,5.673 -1.448,12.205 -2.994,18.931 -10.131,0.835 -29.045,8.281 -25.271,11.223 4,3.118 49.75,2.144 53.5,-0.39 3.454,-2.333 -14.288,-9.619 -24.146,-10.758 1.737,-7.8 2.664,-15.275 3.141,-21.469 15.538,1.53 23.035,-6.013 36.66,-8.248 -19.938,-12.829 -31.877,-1.435 -36.426,4.707 0.2,-3.591 0.256,-6.602 0.257,-8.757 0,-0.821 -0.008,-1.511 -0.018,-2.075 9.603,-1.41 13.44,-7.086 21.704,-10.33 -14.086,-5.308 -20.326,2.755 -22.672,7.504 0.396,-5.404 -1.04,-14.934 -15.258,-17.825 5.102,6.913 5.499,13.546 12.202,19.677 0.018,0.563 0.042,1.597 0.042,3.049 0,0.759 -0.008,1.631 -0.025,2.598 -2.947,-5.467 -11.375,-16.328 -29.195,-8.049 10.893,3.361 16.168,10.374 29.117,10.812 -0.077,2.097 -0.207,4.491 -0.417,7.115 -4.994,-4.251 -20.797,-14.771 -37.625,4.638 z"
       id="path24"
       inkscape:connector-curvature="0" /></g><text
     x="8.3799321e-05"
     y="217.67892"
     font-size="5px"
     font-weight="bold"
     id="text26"
     style="font-weight:bold;font-size:5px;font-family:'Helvetica Neue', Helvetica, Arial-Unicode, Arial, Sans-serif;fill:#000000" />
<text
     xml:space="preserve"
     style="font-style:normal;font-weight:normal;font-size:10px;line-height:125%;font-family:sans-serif;letter-spacing:0px;word-spacing:0px;fill:#000000;fill-opacity:1;stroke:none;stroke-width:1px;stroke-linecap:butt;stroke-linejoin:miter;stroke-opacity:1"
     x="357.36942"
     y="103.8109"
     id="text3362"
     sodipodi:linespacing="125%"><tspan
       sodipodi:role="line"
       x="357.36942"
       y="103.8109"
       id="tspan3366"
       style="font-size:25px;text-align:center;text-anchor:middle">Criado por</tspan><tspan
       sodipodi:role="line"
       x="357.36942"
       y="135.0609"
       id="tspan3370"
       style="font-size:25px;text-align:center;text-anchor:middle">Gan Khoon Lay</tspan></text>
</svg>