<?xml version="1.0" encoding="UTF-8" standalone="no"?>
<svg
   xmlns:dc="http://purl.org/dc/elements/1.1/"
   xmlns:cc="http://creativecommons.org/ns#"
   xmlns:rdf="http://www.w3.org/1999/02/22-rdf-syntax-ns#"
   xmlns:svg="http://www.w3.org/2000/svg"
   xmlns="http://www.w3.org/2000/svg"
   xmlns:sodipodi="http://sodipodi.sourceforge.net/DTD/sodipodi-0.dtd"
   xmlns:inkscape="http://www.inkscape.org/namespaces/inkscape"
   version="1.1"
   x="0px"
   y="0px"
   viewBox="0 0 558.80151 378.24673"
   enable-background="new 0 0 400 400"
   xml:space="preserve"
   id="svg2"
   inkscape:version="0.91 r13725"
   sodipodi:docname="noun_scientist1.svg"
   width="558.80151"
   height="378.24673"><metadata
     id="metadata60"><rdf:RDF><cc:Work
         rdf:about=""><dc:format>image/svg+xml</dc:format><dc:type
           rdf:resource="http://purl.org/dc/dcmitype/StillImage" /><dc:title></dc:title></cc:Work></rdf:RDF></metadata><defs
     id="defs58" /><sodipodi:namedview
     pagecolor="#ffffff"
     bordercolor="#666666"
     borderopacity="1"
     objecttolerance="10"
     gridtolerance="10"
     guidetolerance="10"
     inkscape:pageopacity="0"
     inkscape:pageshadow="2"
     inkscape:window-width="1440"
     inkscape:window-height="849"
     id="namedview56"
     showgrid="false"
     fit-margin-top="0"
     fit-margin-left="0"
     fit-margin-right="0"
     fit-margin-bottom="0"
     inkscape:zoom="1.3350176"
     inkscape:cx="255.38526"
     inkscape:cy="258.40032"
     inkscape:window-x="0"
     inkscape:window-y="0"
     inkscape:window-maximized="1"
     inkscape:current-layer="svg2" /><path
     d="m 61.807721,253.74675 2.8,-37.5 c -5.3,6.2 -13,20 -13.6,24 0.6,2 5,7.3 10.8,13.5 z"
     id="path4"
     inkscape:connector-curvature="0"
     style="fill:none" /><path
     d="m 143.50772,80.746746 c 0,-7.4 -6,-13.5 -13.5,-13.5 -7.5,0 -13.5,6 -13.5,13.5 0,7.4 6,13.5 13.5,13.5 7.5,0 13.5,-6.1 13.5,-13.5 z"
     id="path6"
     inkscape:connector-curvature="0"
     style="fill:none" /><path
     d="m 70.707721,150.74675 c 4.5,2.5 16.9,8.1 28.3,12.9 0.999999,0.3 2.399999,1.3 2.099999,4.4 -0.3,3.2 -2.299999,9.2 -3.999999,13.9 2.2,2.3 10.599999,10 20.899999,0.2 -2.8,-7.5 -4.8,-14.4 -4.8,-15.3 0.1,-1.5 0.1,-1.5 9.1,-7.3 5.8,-3.7 13.3,-8.6 19,-12.6 -3.1,-1.2 -4.9,-5.1 -2.7,-8.4 9.9,-15.3 20.1,-32.8 22.1,-48.000004 0.5,-3.6 0.2,-11.5 -0.7,-15 -5.4,-20.1 -23.3,-32.1 -39,-34.7 -7.3,-1.2 -14,-4 -17,2.8 -3.3,7.4 -7.799999,14.1 -13.699999,19.9 5.4,2.8 9.2,8 10.199999,14.2 l 10.6,0 c 1.5,-9.3 9.5,-16.5 19.2,-16.5 9.7,0 17.8,7.2 19.2,16.5 l 5.1,0 c 1.7,0 3,1.3 3,3 0,1.7 -1.3,3 -3,3 l -5.1,0 c -1.5,9.3 -9.5,16.500004 -19.2,16.500004 -9.7,0 -17.8,-7.200004 -19.2,-16.500004 l -10.6,0 c -1.499999,9.3 -9.499999,16.500004 -19.199999,16.500004 -9.7,0 -17.8,-7.200004 -19.2,-16.500004 l -6.1,0 c -2.4,3.3 -3.9,8.3 -3.8,11.5 0.4,21.900004 22.4,31.800004 18.5,55.500004 z m 20.4,-39.5 0.8,-0.1 c 2.8,-0.2 5.5,-0.4 8.099999,2 0.2,0.2 0.5,0.5 0.7,0.7 0.1,0.1 0.2,0.3 0.4,0.6 0.7,1.1 1.6,2.2 3.1,2.2 0,0 0,0 0,0 1,0 1.5,-0.6 2.5,-2 0.3,-0.4 0.5,-0.8 0.9,-1.2 0.1,-0.1 0.2,-0.2 0.3,-0.4 2,-2.1 4,-2.1 6.4,-2.1 0.6,0 1.3,0 2.1,0 1.1,0 2,0.8 2.1,1.9 0,1.1 -6.9,2.1 -7.7,3 -0.2,0.3 -0.4,0.6 -0.6,0.9 -1,1.5 -2.5,3.8 -5.8,3.8 0,0 0,0 0,0 -3.6,0 -5.599999,-2.9 -6.299999,-3.9 -0.1,-0.1 -0.1,-0.2 -0.2,-0.2 -1.3,-1.5 -8.3,-2 -8.4,-3.1 -0.3,-1.1 0.5,-2.1 1.6,-2.1 z m -3,16.9 c 1.2,0 2.6,0.6 4.6,1.4 2.9,1.2 6.8,2.9 11.099999,2.9 4.2,0 8.2,-1.7 11.1,-2.9 1.9,-0.8 3.4,-1.4 4.6,-1.4 1.7,0 2.9,1.2 2.9,3.1 0,4.6 -8.2,16.3 -18.5,16.3 -10.299999,0 -18.499999,-11.7 -18.499999,-16.3 -0.2,-1.9 1,-3.1 2.7,-3.1 z"
     id="path8"
     inkscape:connector-curvature="0"
     style="fill:none" /><path
     d="m 119.10772,291.04675 c -0.4,0 -12.2,0.8 -5.9,-1.6 1.1,-0.3 2.2,-0.6 3.2,-0.7 l 0,-5.5 0,-3.8 c -1.4,0.3 -2.8,0.6 -4.1,1 -3.1,0.8 -6.2,1.9 -8.6,3.9 -1.8,1.6 -3.5,3.7 -5.599999,4.4 -0.5,0 -1,-0.1 -1.5,-0.1 -3.1,-0.2 -6.1,-0.2 -8.5,0.2 -0.3,0.1 -0.6,0.1 -0.9,0.2 l 0,0 c 0,0 0,0 0,0 -0.4,0.1 -0.7,0.2 -1,0.3 -0.1,0 -0.2,0.1 -0.3,0.1 -0.3,0.1 -0.6,0.2 -0.9,0.4 l 0,0 c 0,0 0,0 0,0 0,0 -0.1,0 -0.1,0 -4.8,2.4 -9.6,3.3 -13,15.3 -3.4,12 -2.4,14.3 -2.4,14.3 2.8,2 15.5,7.4 27.5,11.1 0.2,0.1 0.4,0.1 0.6,0.2 0.4,0.1 0.9,0.3 1.3,0.4 4.099999,1.2 8.099999,2.2 11.399999,2.8 17.8,3 36.4,-0.1 44.4,-4.8 1.9,-1.1 6.7,-4.5 8,-7 1.2,-2.5 1.4,-5.7 -0.7,-6.6 -2.1,-0.9 -5.9,0.6 -11.9,2.2 -5.3,1.4 -12.4,2.1 -20.1,3.2 16.2,-2.5 35.7,-8.1 34.6,-16.6 -0.7,-5.9 -10.3,-2.2 -18.9,-0.3 -6,1.4 -12.5,2 -20.1,2.6 7.6,-1.6 17.6,-3.7 25.6,-6.3 2.7,-0.8 10.1,-2.6 10.1,-9.9 0,-4.8 -7.4,-3 -9.9,-2.7 -9,1.1 -32.2,3.3 -32.3,3.3 z"
     id="path10"
     inkscape:connector-curvature="0"
     style="fill:none" /><path
     d="m 136.10772,245.94675 c -0.8,0 -1.5,0.6 -1.6,1.4 -0.1,1 -0.1,2 -0.2,3 -0.1,0.8 0.6,1.5 1.4,1.6 0,0 0.1,0 0.1,0 0.8,0 1.4,-0.6 1.5,-1.4 0.1,-1 0.1,-2 0.2,-3 0,-0.9 -0.6,-1.6 -1.4,-1.6 z"
     id="path12"
     inkscape:connector-curvature="0"
     style="fill:none" /><path
     d="m 120.20772,338.64675 0,2.6 c 0,9.2 7.5,16.7 16.7,16.7 9.2,0 16.7,-7.5 16.7,-16.7 l 0,-8.4 c -12.3,6.7 -31.9,5.8 -33.4,5.8 z"
     id="path14"
     inkscape:connector-curvature="0"
     style="fill:none" /><path
     d="m 131.50772,229.44675 c 0.6,-3.4 1.5,-6.5 2.6,-9.6 -0.1,0 -0.2,0 -0.4,0 -0.2,0 -0.5,0 -0.7,0.1 -0.2,0 -0.4,0 -0.6,0 -5.6,0.5 -10.1,2.2 -11.4,3.7 -0.4,0.5 -0.8,1.2 -0.3,1.8 0.1,0.1 2.3,3.1 10.8,4 z"
     id="path16"
     inkscape:connector-curvature="0"
     style="fill:none" /><path
     d="m 116.90772,168.14675 c 1.3,4.4 7,22.2 11.2,29.8 5.9,-11.7 15.3,-31.7 15.8,-49.2 -5.5,3.8 -13.5,9.7 -18.7,13.1 -2.5,1.5 -6.9,5.3 -8.3,6.3 z"
     id="path18"
     inkscape:connector-curvature="0"
     style="fill:none" /><path
     d="m 70.007721,153.74675 c -0.1,0.3 -0.1,0.6 -0.2,1 0,0.1 -0.1,0.2 -0.1,0.3 -0.4,10 2.5,27.3 17.5,42.7 1.2,-2.6 4.3,-11.1 6.2,-16.2 3.1,-8.2 4.8,-13 5,-14.8 -13.8,-5.9 -24,-10.7 -28.4,-13 z"
     id="path20"
     inkscape:connector-curvature="0"
     style="fill:none" /><path
     d="m 103.80772,143.44675 c 6.9,0 12.7,-7.3 14.2,-10.9 -0.5,0.2 -1.1,0.4 -1.6,0.6 -3,1.3 -7.6,3.2 -12.6,3.2 -4.999999,0 -9.599999,-1.9 -12.599999,-3.2 -0.5,-0.2 -1.1,-0.4 -1.6,-0.6 1.5,3.6 7.3,10.9 14.199999,10.9 z"
     id="path22"
     inkscape:connector-curvature="0"
     style="fill:none" /><path
     d="m 81.107721,94.246746 c 7.4,0 13.5,-6 13.5,-13.5 0,-6 -4,-11.1 -9.5,-12.9 -4.8,3.8 -10.5,7.1 -17.1,9.8 -0.2,1 -0.4,2 -0.4,3 0,7.5 6,13.6 13.5,13.6 z"
     id="path24"
     inkscape:connector-curvature="0"
     style="fill:none" /><path
     d="m 141.30772,221.54675 c 0.3,-0.8 -0.2,-1.6 -1,-1.9 -0.8,-0.3 -1.6,0.2 -1.9,1 -1,3.1 -1.8,6.2 -2.3,9.7 l 3.1,-0.2 c 0.5,-3.3 1.1,-5.7 2.1,-8.6 z"
     id="path26"
     inkscape:connector-curvature="0"
     style="fill:none" /><path
     d="m 180.80772,183.24675 c -1.8,0.9 -4.2,2 -6.6,3.2 -0.7,0.4 -1,1.3 -0.7,2 0.3,0.5 0.8,0.8 1.3,0.8 0.2,0 0.5,-0.1 0.7,-0.2 2.4,-1.2 4.7,-2.3 6.5,-3.2 0.7,-0.4 1.1,-1.3 0.7,-2 -0.3,-0.7 -1.2,-1 -1.9,-0.6 z"
     id="path28"
     inkscape:connector-curvature="0"
     style="fill:none" /><path
     d="m 173.00772,193.34675 c -0.5,-1.4 -1.1,-2.9 -2,-4.8 -0.5,-1.1 -1.1,-2.4 -1.7,-3.6 0,0 0,0 0,0 5.1,-2.7 9.9,-5.1 13.7,-7 0.6,-0.3 2.5,-1.2 5.1,-2.4 -0.3,-6 -0.4,-12.4 -0.3,-18.3 l -33.3,16.7 c 0.3,0.2 0.6,0.4 0.8,0.6 0.1,0 0.1,0.1 0.2,0.1 0.3,0.2 0.6,0.4 0.8,0.7 0.1,0.1 0.2,0.1 0.2,0.2 0.3,0.3 0.6,0.6 1,0.9 0.1,0.1 0.1,0.1 0.2,0.2 0.3,0.3 0.6,0.6 0.8,0.9 0.1,0.1 0.2,0.2 0.2,0.3 0.3,0.4 0.6,0.7 0.9,1.1 0,0.1 0.1,0.1 0.1,0.2 0.3,0.3 0.5,0.7 0.8,1 0.1,0.1 0.1,0.2 0.2,0.3 0.3,0.4 0.6,0.8 0.9,1.2 0,0 0.1,0.1 0.1,0.1 0.3,0.4 0.5,0.8 0.8,1.2 0.1,0.1 0.1,0.2 0.2,0.3 0.3,0.4 0.5,0.9 0.8,1.3 0,0 0,0.1 0,0.1 0.1,0.1 0.1,0.2 0.2,0.3 0.3,0.7 0.7,1.4 1,2.1 0.6,1.2 1.2,2.4 1.7,3.5 0.9,2 1.6,3.6 2.1,5 0,0 0,0 -0.1,0 0.8,2.9 1.4,5.7 1.3,8.1 l 3,-1.5 c 0,0 0,0 0.1,0 0.4,-0.1 0.8,-0.3 1.2,-0.6 l 16.4,-8.3 c -0.6,-2 -1,-4.5 -1.4,-7.4 -6.9,3.3 -12.7,6 -16,7.5 z"
     id="path30"
     inkscape:connector-curvature="0"
     style="fill:none" /><path
     d="m 236.40772,117.74675 c -4.2,-2.4 -7.6,-1.9 -12.3,2.6 -1.4,1.3 -3.4,1.8 -5.1,1.1 -3.9,-1.6 -8.9,1 -11.8,5.8 -0.9,1.4 -2.8,2 -4.2,1.1 -3.3,-2.2 -10.5,1.4 -11.7,7.7 -1,5.1 -2.6,53.8 3,60.4 2.9,3.4 5.4,4.5 8.4,2.6 3.9,-2.5 3.1,-7.1 3.6,-11.7 1.1,-8.9 1.7,-24.6 1.5,-33.5 1.8,8.1 2,22.9 3.5,31.1 0.5,2.9 1.3,6 3.6,8 1.7,1.5 4.2,1.9 6.2,0.8 2.7,-1.6 5.1,-5.5 4.9,-11.9 -0.2,-5.3 -0.1,-10.3 0,-15.3 0.9,-0.4 1.8,-0.8 2.7,-1.2 0.2,3 0.4,5.9 1.2,8.9 0.8,3.1 4.1,5.8 7.3,4.6 0.7,-0.3 1.4,-0.8 1.9,-1.4 2,-2.4 2.1,-5.4 2,-8.2 0,-15.7 0.5,-48.5 -4.7,-51.5 z m -7.8,44.3 c -0.8,0.3 -1.6,0.7 -2.3,1 0.2,-5.1 0.4,-10.2 0.4,-15.7 1.6,5.8 1.9,10.4 2.1,14.6 -0.1,0.1 -0.2,0.1 -0.2,0.1 z"
     id="path32"
     inkscape:connector-curvature="0"
     style="fill:none" /><path
     d="m 253.80772,124.04675 -11.3,5.7 c 0.6,5.6 0.9,12.8 1.1,21.8 5.4,-2.4 10.1,-4.9 15.1,-8.3 5,-3.4 6.8,-5.1 9,-1.3 0.8,4.9 -2.9,7.6 -5.3,9.2 -6.4,4 -12.3,7.1 -18.7,10.1 0,0.6 0,1.2 0,1.8 0,1.2 0,2.4 0,3.5 l 25.1,-12.6 c 8.2,-4.1 11.6,-14.2 7.4,-22.5 -4.1,-8.2 -14.1,-11.6 -22.4,-7.4 z"
     id="path34"
     inkscape:connector-curvature="0"
     style="fill:none" /><path
     d="m 251.10772,154.44675 c 0.2,0 0.5,-0.1 0.7,-0.2 0.9,-0.5 1.8,-0.9 2.7,-1.4 0.7,-0.4 1,-1.3 0.6,-2 -0.4,-0.7 -1.3,-1 -2,-0.6 -0.9,0.5 -1.7,0.9 -2.6,1.4 -0.7,0.4 -1,1.3 -0.6,2 0.2,0.5 0.7,0.8 1.2,0.8 z"
     id="path36"
     inkscape:connector-curvature="0"
     style="fill:none" /><path
     d="m 146.70772,220.84675 c -0.2,-0.1 -0.5,-0.1 -0.7,-0.2 -1.2,3.4 -2.1,6.1 -2.8,8.6 0.1,0 0.2,0 0.3,0 0.2,0 0.4,-0.1 0.7,-0.1 0.3,0 0.5,-0.1 0.8,-0.1 0.2,0 0.4,-0.1 0.6,-0.1 0.2,-0.1 0.5,-0.1 0.7,-0.2 0.2,0 0.4,-0.1 0.6,-0.1 0.2,-0.1 0.5,-0.1 0.7,-0.2 0.2,-0.1 0.4,-0.1 0.5,-0.2 0.2,-0.1 0.4,-0.1 0.6,-0.2 0.2,-0.1 0.3,-0.1 0.5,-0.2 0.2,-0.1 0.4,-0.1 0.5,-0.2 0.1,-0.1 0.3,-0.1 0.4,-0.2 0.2,-0.1 0.3,-0.1 0.5,-0.2 0.1,-0.1 0.3,-0.1 0.4,-0.2 0.1,-0.1 0.3,-0.1 0.4,-0.2 0.1,-0.1 0.2,-0.1 0.3,-0.2 0.1,-0.1 0.2,-0.1 0.3,-0.2 0.1,-0.1 0.2,-0.1 0.3,-0.2 0.1,-0.1 0.2,-0.1 0.3,-0.2 0.1,-0.1 0.1,-0.1 0.2,-0.2 0.1,-0.1 0.1,-0.1 0.2,-0.2 0.1,-0.1 0.1,-0.1 0.2,-0.2 0.1,-0.1 0.1,-0.1 0.1,-0.2 0,-0.1 0.1,-0.1 0.1,-0.2 0,0 0,0 0,-0.1 0.2,-0.3 0.1,-0.7 -0.1,-1 0,0 0,-0.1 -0.1,-0.1 0,-0.1 -0.1,-0.1 -0.2,-0.2 -0.1,-0.1 -0.1,-0.1 -0.2,-0.2 -0.1,-0.1 -0.1,-0.1 -0.2,-0.2 -0.1,-0.1 -0.2,-0.1 -0.3,-0.2 -0.1,-0.1 -0.2,-0.1 -0.3,-0.2 -0.1,-0.1 -0.2,-0.1 -0.3,-0.2 -0.1,-0.1 -0.2,-0.1 -0.3,-0.2 -0.1,-0.1 -0.3,-0.1 -0.4,-0.2 -0.1,-0.1 -0.2,-0.1 -0.3,-0.2 -0.2,-0.1 -0.3,-0.1 -0.5,-0.2 -0.1,-0.1 -0.3,-0.1 -0.4,-0.2 -0.2,-0.1 -0.4,-0.1 -0.5,-0.2 -0.1,-0.1 -0.3,-0.1 -0.4,-0.2 -0.2,-0.1 -0.4,-0.1 -0.6,-0.2 -0.2,0 -0.3,-0.1 -0.5,-0.1 -0.2,-0.1 -0.4,-0.1 -0.6,-0.2 -0.1,0.2 -0.3,0.1 -0.5,0.1 z"
     id="path38"
     inkscape:connector-curvature="0"
     style="fill:none" /><path
     d="m 152.50772,230.64675 c -0.3,0.2 -0.6,0.3 -1,0.4 -0.1,0 -0.2,0.1 -0.3,0.1 -0.4,0.2 -0.8,0.3 -1.2,0.5 -0.1,0 -0.1,0 -0.2,0.1 -0.4,0.1 -0.8,0.2 -1.1,0.3 -0.1,0 -0.2,0.1 -0.3,0.1 -0.5,0.1 -0.9,0.2 -1.4,0.3 -0.1,0 -0.1,0 -0.2,0 -0.2,0 -0.4,0.1 -0.6,0.1 -0.2,0 -0.3,0 -0.5,0 -7,1.6 -14.9,0.6 -14.8,0.5 -0.3,0 -0.6,-0.1 -0.9,-0.1 0,0 0,0 0,0 -0.5,-0.1 -1.1,-0.2 -1.6,-0.3 -0.2,0 -0.3,-0.1 -0.5,-0.1 0,0 0,0 -0.1,0 -0.2,-0.1 -0.4,-0.1 -0.6,-0.1 -2.7,-0.5 -5.1,-1.3 -7.1,-2.3 l 0,46.7 c 0,0 0,0 0,0 l 0,1.4 c 0,0 0,0 0,0 l 0,3.7 0,6.2 c 5.4,-0.6 9.1,-0.7 13.3,-1.3 1.1,-1.3 1.6,-3.1 1.3,-4.4 -0.4,-1.2 -1.3,-5.4 -5.4,-5.4 -1.1,0 -2.8,0.2 -4.2,0.4 l 0,-1.5 c 1.7,-0.2 3.2,-0.3 4.4,-0.1 1.8,0.2 5.1,1.4 6.2,5.2 0.4,1.4 0.6,3.6 -0.2,5.5 5.9,-0.3 11.3,-1 18,-2.2 l 0,-54.5 c -0.3,0.2 -0.6,0.3 -0.9,0.5 0.1,0.2 0,0.3 -0.1,0.3 z m -9.7,25.2 c 0,2.3 -0.2,4.6 -1.1,6.7 -0.9,2.1 -2.9,3.9 -5.2,3.8 -1.3,0 -2.6,-0.7 -3.6,-1.6 -3.6,-3.3 -3.7,-8.9 -3.5,-13.8 0.2,-4.7 0.5,-8.8 0.8,-12.5 1.7,0.3 3.4,0.4 5.1,0.4 2.4,0 4.7,-0.2 6.9,-0.5 0,0.2 0,0.4 0,0.5 0.3,7.3 0.7,11.3 0.6,17 z"
     id="path40"
     inkscape:connector-curvature="0"
     style="fill:none" /><path
     d="m 160.90772,187.64675 c -0.1,-0.2 -0.2,-0.3 -0.3,-0.5 -0.2,-0.3 -0.4,-0.7 -0.6,-1 -0.1,-0.2 -0.2,-0.4 -0.4,-0.6 -0.2,-0.3 -0.4,-0.6 -0.5,-0.8 -0.1,-0.2 -0.3,-0.4 -0.4,-0.6 -0.2,-0.2 -0.3,-0.5 -0.5,-0.7 -0.1,-0.2 -0.3,-0.4 -0.4,-0.5 -0.2,-0.2 -0.3,-0.4 -0.5,-0.7 -0.1,-0.2 -0.3,-0.3 -0.4,-0.5 -0.2,-0.2 -0.3,-0.4 -0.5,-0.6 -0.1,-0.2 -0.3,-0.3 -0.4,-0.4 -0.2,-0.2 -0.3,-0.4 -0.5,-0.5 -0.1,-0.1 -0.3,-0.3 -0.4,-0.4 -0.1,-0.2 -0.3,-0.3 -0.4,-0.5 -0.1,-0.1 -0.2,-0.2 -0.4,-0.4 -0.1,-0.1 -0.3,-0.3 -0.4,-0.4 -0.1,-0.1 -0.2,-0.2 -0.3,-0.3 -0.1,-0.1 -0.3,-0.2 -0.4,-0.3 -0.1,-0.1 -0.2,-0.2 -0.3,-0.3 -0.1,-0.1 -0.3,-0.2 -0.4,-0.3 -0.1,-0.1 -0.2,-0.1 -0.3,-0.2 -0.1,-0.1 -0.2,-0.1 -0.3,-0.2 -0.1,-0.1 -0.2,-0.1 -0.3,-0.2 -0.1,-0.1 -0.2,-0.1 -0.3,-0.2 -0.1,0 -0.2,-0.1 -0.2,-0.1 -0.1,0 -0.2,-0.1 -0.3,-0.1 -0.1,0 -0.1,0 -0.2,-0.1 -0.1,0 -0.2,0 -0.2,0 -0.1,0 -0.1,0 -0.2,0 0,0 0,0 -0.1,0 -0.4,0 -0.7,0.3 -0.8,0.6 0,0 0,0.1 -0.1,0.1 0,0.1 -0.1,0.1 -0.1,0.2 0,0.1 -0.1,0.2 -0.1,0.3 0,0.1 -0.1,0.2 -0.1,0.3 0,0.1 0,0.2 -0.1,0.4 0,0.1 0,0.2 0,0.3 0,0.1 0,0.3 0,0.4 0,0.1 0,0.2 0,0.4 0,0.1 0,0.3 0,0.5 0,0.1 0,0.3 0,0.4 0,0.2 0,0.3 0,0.5 0,0.1 0,0.3 0,0.4 0,0.2 0,0.4 0.1,0.6 0,0.2 0,0.3 0.1,0.5 0,0.2 0.1,0.4 0.1,0.6 0,0.2 0.1,0.3 0.1,0.5 0,0.2 0.1,0.4 0.1,0.6 0,0.2 0.1,0.3 0.1,0.5 0.1,0.2 0.1,0.5 0.2,0.7 0,0.2 0.1,0.4 0.1,0.5 0.1,0.2 0.1,0.5 0.2,0.7 0.1,0.2 0.1,0.4 0.2,0.6 0.1,0.2 0.2,0.5 0.2,0.8 0.1,0.2 0.1,0.4 0.2,0.6 0.1,0.3 0.2,0.5 0.3,0.8 0.1,0.2 0.1,0.4 0.2,0.6 0.1,0.3 0.2,0.6 0.3,0.9 0.1,0.2 0.1,0.4 0.2,0.6 0.1,0.3 0.3,0.6 0.4,1 0.1,0.2 0.1,0.3 0.2,0.5 0.2,0.5 0.5,1 0.7,1.5 0.2,0.3 0.3,0.6 0.5,1 2.7,-2 5.5,-3.8 8.4,-5.5 -0.2,-1 -0.5,-1.5 -0.8,-2 z"
     id="path42"
     inkscape:connector-curvature="0"
     style="fill:none" /><path
     d="m 158.80772,202.64675 c 1.8,1.9 3.5,3.1 4.6,3.4 0.6,0.1 1.4,0.2 1.8,-0.6 0,0 1.2,-2.3 -0.1,-7.5 -2.1,1.3 -4.2,2.9 -6.3,4.7 z"
     id="path44"
     inkscape:connector-curvature="0"
     style="fill:none" /><path
     d="m 153.30772,199.34675 c -2.5,2 -4.7,4 -6.4,5.9 -0.6,0.6 -0.5,1.6 0.1,2.1 0.3,0.3 0.7,0.4 1,0.4 0.4,0 0.8,-0.2 1.1,-0.5 1.7,-1.8 3.7,-3.7 6.1,-5.6 0.6,-0.5 0.7,-1.5 0.2,-2.1 -0.5,-0.6 -1.5,-0.7 -2.1,-0.2 z"
     id="path46"
     inkscape:connector-curvature="0"
     style="fill:none" /><path
     d="m 226.20772,163.14675 c 0.8,-0.3 1.6,-0.7 2.3,-1 0,0 0.1,0 0.1,0 -0.2,-4.2 -0.5,-8.8 -2.1,-14.6 0.1,5.3 -0.1,10.5 -0.3,15.6 z"
     id="path48"
     inkscape:connector-curvature="0" /><path
     d="m 89.207721,113.34675 c -0.1,-1.1 0.8,-2.1 1.9,-2.1 l 0.8,-0.1 c 2.8,-0.2 5.5,-0.4 8.099999,2 0.2,0.2 0.5,0.5 0.7,0.7 0.1,0.1 0.2,0.3 0.4,0.6 0.7,1.1 1.6,2.2 3.1,2.2 0,0 0,0 0,0 1,0 1.5,-0.6 2.5,-2 0.3,-0.4 0.5,-0.8 0.9,-1.2 0.1,-0.1 0.2,-0.2 0.3,-0.4 2,-2.1 4,-2.1 6.4,-2.1 0.6,0 1.3,0 2.1,0 1.1,0 2,0.8 2.1,1.9 0,1.1 -6.9,2.1 -7.7,3 -0.2,0.3 -0.4,0.6 -0.6,0.9 -1,1.5 -2.5,3.8 -5.8,3.8 0,0 0,0 0,0 -3.6,0 -5.599999,-2.9 -6.299999,-3.9 -0.1,-0.1 -0.1,-0.2 -0.2,-0.2 -1.6,-1.5 -8.6,-2 -8.7,-3.1 z m -4,17.8 c 0,-1.8 1.2,-3.1 2.9,-3.1 1.2,0 2.6,0.6 4.6,1.4 2.9,1.2 6.8,2.9 11.099999,2.9 4.2,0 8.2,-1.7 11.1,-2.9 1.9,-0.8 3.4,-1.4 4.6,-1.4 1.7,0 2.9,1.2 2.9,3.1 0,4.6 -8.2,16.3 -18.5,16.3 -10.299999,0 -18.699999,-11.7 -18.699999,-16.3 z m 4.4,1.4 c 1.5,3.6 7.3,10.9 14.199999,10.9 6.9,0 12.7,-7.3 14.2,-10.9 -0.5,0.2 -1.1,0.4 -1.6,0.6 -3,1.3 -7.6,3.2 -12.6,3.2 -4.999999,0 -9.599999,-1.9 -12.599999,-3.2 -0.6,-0.2 -1.1,-0.4 -1.6,-0.6 z m 52.699999,106.3 c 0.3,7.3 0.6,11.3 0.6,17 0,2.3 -0.2,4.6 -1.1,6.7 -0.9,2.1 -2.9,3.9 -5.2,3.8 -1.3,0 -2.6,-0.7 -3.6,-1.6 -3.6,-3.3 -3.7,-8.9 -3.5,-13.8 0.2,-4.7 0.5,-8.8 0.8,-12.5 1.7,0.3 3.4,0.4 5.1,0.4 2.4,0 4.7,-0.2 6.9,-0.5 0,0.1 0,0.3 0,0.5 z m -4.8,8.6 c 0,-0.8 -0.6,-1.5 -1.4,-1.6 -0.8,0 -1.5,0.6 -1.6,1.4 -0.1,1 -0.1,2 -0.2,3 -0.1,0.8 0.6,1.5 1.4,1.6 0,0 0.1,0 0.1,0 0.8,0 1.4,-0.6 1.5,-1.4 0.1,-1 0.1,-2 0.2,-3 z m 133.1,-90.1 -26.8,13.5 c -0.1,2.6 -0.3,6.3 -2.5,8.8 -0.8,1 -1.8,1.7 -2.9,2.1 -0.8,0.3 -1.6,0.4 -2.5,0.4 -2.5,0 -5,-2 -6.6,-4.1 l -0.8,0.4 c 0,1 0,2 0.1,3.1 0.2,6.5 -1.9,12.7 -6,15.1 -1.1,0.7 -2.4,1 -3.8,1 -1.9,0 -3.9,-0.7 -5.4,-2.1 -2.1,-1.8 -3.2,-5.1 -3.9,-7.5 l -0.8,0.4 c -0.1,0.6 -0.1,1.3 -0.1,1.9 -0.2,3.7 -0.5,8.9 -4.5,11.5 -1.4,0.9 -2.8,1.3 -4.2,1.3 -3.3,0 -6.2,-2.6 -7.4,-5.4 -0.1,-0.3 -0.4,-0.6 -0.6,-0.9 l -23.3,11.7 c -0.2,0.1 -3.8,2.2 -5.6,1.6 -2.1,-0.7 -4.6,-2.5 -7,-5.2 -0.8,0.8 -1.7,1.6 -2.4,2.4 -2.4,2.5 -4.4,5.9 -5.9,9.4 4.4,1.1 8.1,2.9 9.4,5.5 0,0 0,0 0,0 l 0,0 c 0,0 0,0 0,0 0,0 0,0 0,0 0.4,0.7 0.6,1.5 0.6,2.2 0,0.1 0,30.1 0,59.7 5.7,0.3 6.2,4.5 6.2,5.8 0,3.8 -1.6,6.4 -3.6,8.2 5.3,0.1 6.6,3.4 6.8,5.4 0.4,3.5 -1.5,6.5 -4.8,9 0.3,0.1 0.5,0.2 0.7,0.3 1.3,0.6 2.2,1.6 2.7,2.9 0.7,2 0.4,4.6 -0.8,7 -1.3,2.7 -5.1,6.3 -7.3,7.7 0,7 0,10.6 0,10.6 0,11.4 -9.2,20.6 -20.6,20.6 -11.4,0 -20.6,-9.2 -20.6,-20.6 l -0.1,-3 c -2.2,-0.2 -14.4,-2.1 -17.399999,-3.2 -8.8,11 -33.2,4.4 -39.3,-4.1 -0.4,0 -5.2,-6.6 -10.4,-14.1 l -13.7,46.5 c 0,0 33.8,12 82.799999,12 46.3,0 77.4,-12 77.4,-12 -4.8,-15.7 -22.9,-74.2 -23.5,-97 -0.6,-25.3 5.2,-54.9 5.3,-55.2 0.3,-1.4 1.4,-2.5 3.2,-3.2 1.3,-0.5 0.6,-1.2 0,2.9 0,0.3 -4.1,30.6 -3.5,55.3 0.6,24.7 22,98.1 22.2,98.9 0.2,0.8 0.1,1.6 -0.4,2.2 -0.5,0.6 -1.2,1 -2,1 0,0 -32.4,10.2 -80.1,10.2 -49.099999,0 -82.799999,-10.2 -82.799999,-10.2 -0.8,0 -1.5,-0.4 -2,-1 -0.5,-0.6 -0.6,-1.4 -0.4,-2.2 l 13.8,-53.5 c -3.5,-5 -6.8,-9.7 -8.9,-12.7 -10.7,-15 -17.9,-27.9 -29.1999997,-52.6 -1,-2.3 -2.2,-4.8 -2.4,-7.7 -0.5,-7.2 2.9,-15.8 11.7999997,-30 1.4,-2.2 2.9,-4.6 4.4,-7.1 4.3,-6.9 9,-14.3 12.7,-20.1 -9.7,0.4 -19,-2.4 -24.6999997,-7.9 -16.1,-15.6 -7,-35.9 -3.1,-37.2 6.1999997,-2.1 12.6999997,11 23.9999997,4.2 18.8,-11.4 -9.5,-32.2 -7.4,-71.200004 2.7,-51.2 39.7,-79.1 80.399999,-65.1999996 2.7,0.9 5.4,0.3 8,-0.7 25.4,-8.7 61.2,-0.1 76.8,35.0999996 17.2,38.9 -3.5,80.700004 -17.4,105.200004 3,-0.1 8.6,-1 11.9,-1 2.8,0 3.2,1.1 2.6,2.4 -0.8,1.7 -30.8,3.1 -37,3.3 0,0 -0.1,0 -0.1,0 0,0 0,0 -0.1,0 -1.5,16 -10,37.6 -17.4,51.2 -0.4,0.7 -1.1,1.2 -2,1.3 -0.1,0 -0.1,0 -0.2,0 -0.8,0 -1.5,-0.4 -2,-1 -2.4,-3.1 -4.9,-8.4 -7.1,-13.8 -4.2,3.4 -8.2,4.7 -11.8,4.7 -5.1,0 -9.299999,-2.5 -11.799999,-5.1 -0.1,0.3 -0.3,0.7 -0.4,0.9 -5.5,14.2 -6.3,14.2 -8,14.2 -0.6,0 -1.1,-0.2 -1.6,-0.5 -7.9,-6.1 -16.3,-20.5 -19.6,-36.6 -5.8,9.8 -15.5,15.4 -25.7,17.3 -4,6.2 -9.8,15.2 -14.9,23.5 -1.6,2.5 -3,4.9 -4.4,7.1 -8.1,12.9 -13.4999997,21.5 -13.0999997,27 0.1,2 1.1,4 2,6 11.0999997,24.2 19.6999997,36.4 30.6999997,51.7 5,6.9 10.4,14.6 16.7,24.3 0.2,-0.7 0.5,-1.5 0.9,-2.3 0.5,-1 1.1,-2.6 1.9,-4.3 4.6,-10.7 12.5,-29.4 22.9,-31.4 -28.8,-28.4 -37.5,-38.4 -37.1,-42.5 0.9,-8.5 15.6,-24.1 17.4,-26.1 0.4,-0.5 1,-0.8 1.7,-0.8 0.1,0 0.1,0 0.2,0 0,0 0,0 0.1,0 0.1,0 0.1,0 0.2,0 0.1,0 0.2,0 0.3,0 0.1,0 0.2,0 0.2,0.1 0.1,0 0.1,0 0.2,0.1 0.1,0 0.2,0.1 0.2,0.1 0.1,0 0.1,0.1 0.2,0.1 0.1,0.1 0.1,0.1 0.2,0.2 0,0 0.1,0.1 0.1,0.1 0,0 0,0 0,0 0.1,0.1 0.1,0.1 0.2,0.2 0,0.1 0.1,0.1 0.1,0.2 0,0.1 0.1,0.1 0.1,0.2 0,0.1 0.1,0.1 0.1,0.2 0,0.1 0.1,0.2 0.1,0.2 0,0.1 0,0.2 0.1,0.2 0,0.1 0,0.2 0,0.2 0,0.1 0,0.2 0,0.3 0,0 0,0 0,0.1 l -1,43.3 c 8.3,8.6 17.8,17.9 23,23 2,2 2.8,2.8 3.7,3.6 1.3,0 3,0 3.8,-0.1 2,-1.7 7.399999,-5.6 10.699999,-6.1 2.9,-0.4 5.7,-1 8.4,-1.6 l 0,-51 c 0,-0.2 -0.3,-4.3 1.1,-5.8 3,-3 10,-5.2 18.3,-5.3 0.8,-1.8 1.7,-3.7 2.8,-5.7 2.5,-4.7 6.8,-9.1 11.8,-13.1 -0.3,-0.5 -0.6,-1 -0.8,-1.6 -3.8,-7.5 -6.2,-16.9 -3.2,-21.1 0,0 0,0 0,0 0,0 0,0 0,0 l 0,0 0,0 c 0.5,-0.7 1,-1.2 1.7,-1.5 0.1,0 18.6,-9.4 40,-20.1 0.2,-9 0.1,-16.3 0.2,-17.6 0.8,-7.1 7.4,-10.8 12.1,-10.8 1.4,0 2.7,0.4 3.8,1.1 0.1,0.1 0.5,0 0.7,-0.3 2.7,-5.6 7.2,-7.5 11.5,-7.5 1.2,0 2.3,0.2 3.4,0.6 0.8,0.3 1.8,0.1 2.4,-0.5 3.4,-3.3 6.9,-4.9 10,-4.9 1.9,0 5.3,0 7.4,3 1.3,2 1.8,4.2 2.7,9.8 6.2,-3.1 10.1,-5.1 10.1,-5.1 10.2,-5.1 22.6,-1 27.7,9.1 5.1,10.6 1,23 -9.2,28.1 z m -205.999999,59 c -5.3,6.2 -13,20 -13.6,24 0.6,2 5,7.2 10.9,13.5 l 2.7,-37.5 z m 33.8,-49.6 c -13.9,-5.9 -24,-10.7 -28.4,-13 -0.1,0.3 -0.1,0.6 -0.2,1 0,0.1 -0.1,0.2 -0.1,0.3 -0.4,10 2.5,27.3 17.5,42.7 1.2,-2.6 4.3,-11.1 6.2,-16.2 3.1,-8.2 4.8,-13 5,-14.8 z m 45.499999,-18 c -5.5,3.8 -13.5,9.7 -18.7,13.1 -2.5,1.6 -6.9,5.4 -8.3,6.3 1.3,4.4 7,22.2 11.2,29.8 5.9,-11.7 15.3,-31.7 15.8,-49.2 z M 67.607721,80.746746 c 0,7.4 6,13.5 13.5,13.5 7.4,0 13.5,-6 13.5,-13.5 0,-6 -4,-11.1 -9.5,-12.9 -4.8,3.8 -10.5,7.1 -17.1,9.8 -0.3,1.1 -0.4,2.1 -0.4,3.1 z m -15.7,14.5 c 0.6,21.900004 22.7,31.800004 18.7,55.500004 4.5,2.5 16.9,8.1 28.3,12.9 1,0.3 2.399999,1.3 2.099999,4.4 -0.3,3.2 -2.299999,9.2 -3.999999,13.9 2.2,2.3 10.599999,10 20.899999,0.2 -2.8,-7.5 -4.8,-14.4 -4.8,-15.3 0.1,-1.5 0.1,-1.5 9.1,-7.3 5.8,-3.7 13.3,-8.6 19,-12.6 -3.1,-1.2 -4.9,-5.1 -2.7,-8.4 9.9,-15.3 20.1,-32.8 22.1,-48.000004 0.5,-3.6 0.2,-11.5 -0.7,-15 -5.4,-20.1 -23.3,-32.1 -39,-34.7 -7.3,-1.2 -14,-4 -17,2.8 -3.3,7.4 -7.799999,14.1 -13.699999,19.9 5.4,2.8 9.2,8 10.199999,14.2 l 10.6,0 c 1.5,-9.3 9.5,-16.5 19.2,-16.5 9.7,0 17.8,7.2 19.2,16.5 l 5.1,0 c 1.7,0 3,1.3 3,3 0,1.7 -1.3,3 -3,3 l -5.1,0 c -1.5,9.3 -9.5,16.500004 -19.2,16.500004 -9.7,0 -17.8,-7.200004 -19.2,-16.500004 l -10.6,0 c -1.499999,9.3 -9.499999,16.500004 -19.199999,16.500004 -9.7,0 -17.8,-7.200004 -19.2,-16.500004 l -6.1,0 c -2.5,3.3 -4.1,8.3 -4,11.5 z m 78.199999,-1 c 7.4,0 13.5,-6 13.5,-13.5 0,-7.4 -6,-13.5 -13.5,-13.5 -7.5,0 -13.5,6 -13.5,13.5 0,7.4 6,13.5 13.5,13.5 z m 6,136.000004 3.1,-0.2 c 0.6,-3.3 1.2,-5.6 2.1,-8.6 0.3,-0.8 -0.2,-1.6 -1,-1.9 -0.8,-0.3 -1.6,0.2 -1.9,1 -1,3.1 -1.8,6.3 -2.3,9.7 z m -15.3,-4.8 c 0,0 2.3,3 10.7,3.9 0.6,-3.4 1.5,-6.5 2.6,-9.6 -0.1,0 -0.2,0 -0.4,0 -0.2,0 -0.5,0 -0.7,0.1 -0.2,0 -0.4,0 -0.6,0 -5.6,0.5 -10.1,2.2 -11.4,3.7 -0.3,0.6 -0.7,1.3 -0.2,1.9 z m 32.8,107.4 c -12.4,6.8 -31.9,5.9 -33.5,5.8 l 0,2.6 c 0,9.2 7.5,16.7 16.7,16.7 9.2,0 16.7,-7.5 16.7,-16.7 l 0,-8.4 z m -2.1,-45.1 c -9.1,1.2 -32.3,3.4 -32.4,3.4 -0.4,0 -12.2,0.8 -5.9,-1.6 1.1,-0.3 2.2,-0.6 3.2,-0.7 l 0,-5.5 0,-3.8 c -1.4,0.3 -2.8,0.6 -4.1,1 -3.1,0.8 -6.2,1.9 -8.6,3.9 -1.8,1.6 -3.5,3.7 -5.599999,4.4 -0.5,0 -1,-0.1 -1.5,-0.1 -3.1,-0.2 -6.1,-0.2 -8.5,0.2 -0.3,0.1 -0.6,0.1 -0.9,0.2 l 0,0 c 0,0 0,0 0,0 -0.4,0.1 -0.7,0.2 -1,0.3 -0.1,0 -0.2,0.1 -0.3,0.1 -0.3,0.1 -0.6,0.2 -0.9,0.4 l 0,0 c 0,0 0,0 0,0 0,0 -0.1,0 -0.1,0 -4.8,2.4 -9.6,3.3 -13,15.3 -3.4,12 -2.4,14.3 -2.4,14.3 2.8,2 15.5,7.4 27.5,11.1 0.2,0.1 0.4,0.1 0.6,0.2 0.4,0.1 0.9,0.3 1.3,0.4 4.099999,1.2 8.099999,2.2 11.399999,2.8 17.8,3 36.4,-0.1 44.4,-4.8 1.9,-1.1 6.7,-4.5 8,-7 1.2,-2.5 1.4,-5.7 -0.7,-6.6 -2.1,-0.9 -5.9,0.6 -11.9,2.2 -5.3,1.4 -12.4,2.1 -20.1,3.2 16.2,-2.5 35.7,-8.1 34.6,-16.6 -0.7,-5.9 -10.3,-2.2 -18.9,-0.3 -6,1.4 -12.5,2 -20.1,2.6 7.6,-1.6 17.6,-3.7 25.6,-6.3 2.7,-0.8 10.1,-2.6 10.1,-9.9 0,-4.9 -7.4,-3.2 -9.8,-2.8 z m 2.1,-57.7 c -0.3,0.2 -0.6,0.3 -0.9,0.5 -0.1,0 -0.1,0.1 -0.2,0.1 -0.3,0.2 -0.6,0.3 -1,0.4 -0.1,0 -0.2,0.1 -0.3,0.1 -0.4,0.2 -0.8,0.3 -1.2,0.5 -0.1,0 -0.1,0 -0.2,0.1 -0.4,0.1 -0.8,0.2 -1.1,0.3 -0.1,0 -0.2,0.1 -0.3,0.1 -0.5,0.1 -0.9,0.2 -1.4,0.3 -0.1,0 -0.1,0 -0.2,0 -0.2,0 -0.4,0.1 -0.6,0.1 -0.2,0 -0.3,0 -0.5,0 -7,1.6 -14.9,0.6 -14.8,0.5 -0.3,0 -0.6,-0.1 -0.9,-0.1 0,0 0,0 0,0 -0.5,-0.1 -1.1,-0.2 -1.6,-0.3 -0.2,0 -0.3,-0.1 -0.5,-0.1 0,0 0,0 -0.1,0 -0.2,-0.1 -0.4,-0.1 -0.6,-0.1 -2.7,-0.5 -5.1,-1.3 -7.1,-2.3 l 0,46.7 c 0,0 0,0 0,0 l 0,1.4 c 0,0 0,0 0,0 l 0,3.7 0,6.2 c 5.4,-0.6 9.1,-0.7 13.3,-1.3 1.1,-1.3 1.6,-3.1 1.3,-4.4 -0.4,-1.2 -1.3,-5.4 -5.4,-5.4 -1.1,0 -2.8,0.2 -4.2,0.4 l 0,-1.5 c 1.7,-0.2 3.2,-0.3 4.4,-0.1 1.8,0.2 5.1,1.4 6.2,5.2 0.4,1.4 0.6,3.6 -0.2,5.5 5.9,-0.3 11.3,-1 18,-2.2 l 0,-54.3 z m -6.4,-9.1 c -0.2,0 -0.3,-0.1 -0.5,-0.1 -0.2,-0.1 -0.5,-0.1 -0.7,-0.2 -1.2,3.4 -2.1,6.1 -2.8,8.6 0.1,0 0.2,0 0.3,0 0.2,0 0.4,-0.1 0.7,-0.1 0.3,0 0.5,-0.1 0.8,-0.1 0.2,0 0.4,-0.1 0.6,-0.1 0.2,-0.1 0.5,-0.1 0.7,-0.2 0.2,0 0.4,-0.1 0.6,-0.1 0.2,-0.1 0.5,-0.1 0.7,-0.2 0.2,-0.1 0.4,-0.1 0.5,-0.2 0.2,-0.1 0.4,-0.1 0.6,-0.2 0.2,-0.1 0.3,-0.1 0.5,-0.2 0.2,-0.1 0.4,-0.1 0.5,-0.2 0.1,-0.1 0.3,-0.1 0.4,-0.2 0.2,-0.1 0.3,-0.1 0.5,-0.2 0.1,-0.1 0.3,-0.1 0.4,-0.2 0.1,-0.1 0.3,-0.1 0.4,-0.2 0.1,-0.1 0.2,-0.1 0.3,-0.2 0.1,-0.1 0.2,-0.1 0.3,-0.2 0.1,-0.1 0.2,-0.1 0.3,-0.2 0.1,-0.1 0.2,-0.1 0.3,-0.2 0.1,-0.1 0.1,-0.1 0.2,-0.2 0.1,-0.1 0.1,-0.1 0.2,-0.2 0.1,-0.1 0.1,-0.1 0.2,-0.2 0.1,-0.1 0.1,-0.1 0.1,-0.2 0,-0.1 0.1,-0.1 0.1,-0.2 0,0 0,0 0,-0.1 0.2,-0.3 0.1,-0.7 -0.1,-1 0,0 0,-0.1 -0.1,-0.1 0,-0.1 -0.1,-0.1 -0.2,-0.2 -0.1,-0.1 -0.1,-0.1 -0.2,-0.2 -0.1,-0.1 -0.1,-0.1 -0.2,-0.2 -0.1,-0.1 -0.2,-0.1 -0.3,-0.2 -0.1,-0.1 -0.2,-0.1 -0.3,-0.2 -0.1,-0.1 -0.2,-0.1 -0.3,-0.2 -0.1,-0.1 -0.2,-0.1 -0.3,-0.2 -0.1,-0.1 -0.3,-0.1 -0.4,-0.2 -0.1,-0.1 -0.2,-0.1 -0.3,-0.2 -0.2,-0.1 -0.3,-0.1 -0.5,-0.2 -0.1,-0.1 -0.3,-0.1 -0.4,-0.2 -0.2,-0.1 -0.4,-0.1 -0.5,-0.2 -0.1,-0.1 -0.3,-0.1 -0.4,-0.2 -0.2,-0.1 -0.4,-0.1 -0.6,-0.2 -0.2,0 -0.3,-0.1 -0.5,-0.1 -0.1,0.1 -0.3,0.1 -0.6,0 z m 8.2,-21.4 c -0.5,-0.6 -1.5,-0.7 -2.1,-0.2 -2.5,2 -4.7,4 -6.4,5.9 -0.6,0.6 -0.5,1.6 0.1,2.1 0.3,0.3 0.7,0.4 1,0.4 0.4,0 0.8,-0.2 1.1,-0.5 1.7,-1.8 3.7,-3.7 6.1,-5.6 0.6,-0.5 0.7,-1.4 0.2,-2.1 z m 6.3,-10.3 c -0.3,-0.5 -0.5,-1.1 -0.8,-1.6 -0.1,-0.2 -0.2,-0.3 -0.3,-0.5 -0.2,-0.3 -0.4,-0.7 -0.6,-1 -0.1,-0.2 -0.2,-0.4 -0.4,-0.6 -0.2,-0.3 -0.4,-0.6 -0.5,-0.8 -0.1,-0.2 -0.3,-0.4 -0.4,-0.6 -0.2,-0.2 -0.3,-0.5 -0.5,-0.7 -0.1,-0.2 -0.3,-0.4 -0.4,-0.5 -0.2,-0.2 -0.3,-0.4 -0.5,-0.7 -0.1,-0.2 -0.3,-0.3 -0.4,-0.5 -0.2,-0.2 -0.3,-0.4 -0.5,-0.6 -0.1,-0.2 -0.3,-0.3 -0.4,-0.4 -0.2,-0.2 -0.3,-0.4 -0.5,-0.5 -0.1,-0.1 -0.3,-0.3 -0.4,-0.4 -0.1,-0.2 -0.3,-0.3 -0.4,-0.5 -0.1,-0.1 -0.2,-0.2 -0.4,-0.4 -0.1,-0.1 -0.3,-0.3 -0.4,-0.4 -0.1,-0.1 -0.2,-0.2 -0.3,-0.3 -0.1,-0.1 -0.3,-0.2 -0.4,-0.3 -0.1,-0.1 -0.2,-0.2 -0.3,-0.3 -0.1,-0.1 -0.3,-0.2 -0.4,-0.3 -0.1,-0.1 -0.2,-0.1 -0.3,-0.2 -0.1,-0.1 -0.2,-0.1 -0.3,-0.2 -0.1,-0.1 -0.2,-0.1 -0.3,-0.2 -0.1,-0.1 -0.2,-0.1 -0.3,-0.2 -0.1,0 -0.2,-0.1 -0.2,-0.1 -0.1,0 -0.2,-0.1 -0.3,-0.1 -0.1,0 -0.1,0 -0.2,-0.1 -0.1,0 -0.2,0 -0.2,0 -0.1,0 -0.1,0 -0.2,0 0,0 0,0 -0.1,0 -0.4,0 -0.7,0.3 -0.8,0.6 0,0 0,0.1 -0.1,0.1 0,0.1 -0.1,0.1 -0.1,0.2 0,0.1 -0.1,0.2 -0.1,0.3 0,0.1 -0.1,0.2 -0.1,0.3 0,0.1 0,0.2 -0.1,0.4 0,0.1 0,0.2 0,0.3 0,0.1 0,0.3 0,0.4 0,0.1 0,0.2 0,0.4 0,0.1 0,0.3 0,0.5 0,0.1 0,0.3 0,0.4 0,0.2 0,0.3 0,0.5 0,0.1 0,0.3 0,0.4 0,0.2 0,0.4 0.1,0.6 0,0.2 0,0.3 0.1,0.5 0,0.2 0.1,0.4 0.1,0.6 0,0.2 0.1,0.3 0.1,0.5 0,0.2 0.1,0.4 0.1,0.6 0,0.2 0.1,0.3 0.1,0.5 0.1,0.2 0.1,0.5 0.2,0.7 0,0.2 0.1,0.4 0.1,0.5 0.1,0.2 0.1,0.5 0.2,0.7 0.1,0.2 0.1,0.4 0.2,0.6 0.1,0.2 0.2,0.5 0.2,0.8 0.1,0.2 0.1,0.4 0.2,0.6 0.1,0.3 0.2,0.5 0.3,0.8 0.1,0.2 0.1,0.4 0.2,0.6 0.1,0.3 0.2,0.6 0.3,0.9 0.1,0.2 0.1,0.4 0.2,0.6 0.1,0.3 0.3,0.6 0.4,1 0.1,0.2 0.1,0.3 0.2,0.5 0.2,0.5 0.5,1 0.7,1.5 0.2,0.3 0.3,0.6 0.5,1 2.8,-2.3 5.6,-4.2 8.4,-5.9 z m 3.4,8.6 c -2.1,1.4 -4.2,3 -6.2,4.8 1.8,1.9 3.5,3.1 4.6,3.4 0.6,0.1 1.4,0.2 1.8,-0.6 -0.1,-0.1 1,-2.4 -0.2,-7.6 z m 25.3,-4.4 c -0.6,-2 -1,-4.5 -1.4,-7.4 -6.9,3.1 -12.8,5.8 -16,7.3 -0.5,-1.4 -1.1,-2.9 -2,-4.8 -0.5,-1.1 -1.1,-2.4 -1.7,-3.6 0,0 0,0 0,0 5.1,-2.7 9.9,-5.1 13.7,-7 0.6,-0.3 2.5,-1.2 5.1,-2.4 -0.3,-6 -0.4,-12.4 -0.3,-18.3 l -33.3,16.7 c 0.3,0.2 0.6,0.4 0.8,0.6 0.1,0 0.1,0.1 0.2,0.1 0.3,0.2 0.6,0.4 0.8,0.7 0.1,0.1 0.2,0.1 0.2,0.2 0.3,0.3 0.6,0.6 1,0.9 0.1,0.1 0.1,0.1 0.2,0.2 0.3,0.3 0.6,0.6 0.8,0.9 0.1,0.1 0.2,0.2 0.2,0.3 0.3,0.4 0.6,0.7 0.9,1.1 0,0.1 0.1,0.1 0.1,0.2 0.3,0.3 0.5,0.7 0.8,1 0.1,0.1 0.1,0.2 0.2,0.3 0.3,0.4 0.6,0.8 0.9,1.2 0,0 0.1,0.1 0.1,0.1 0.3,0.4 0.5,0.8 0.8,1.2 0.1,0.1 0.1,0.2 0.2,0.3 0.3,0.4 0.5,0.9 0.8,1.3 0,0 0,0.1 0,0.1 0.1,0.1 0.1,0.2 0.2,0.3 0.3,0.7 0.7,1.4 1,2.1 0.6,1.2 1.2,2.4 1.7,3.5 0.9,2 1.6,3.6 2.1,5 0,0 0,0 -0.1,0 0.8,2.9 1.4,5.7 1.3,8.1 l 3,-1.5 c 0,0 0,0 0.1,0 0.4,-0.1 0.8,-0.3 1.2,-0.6 l 16.4,-8.1 z m -7.6,-9.5 c -0.4,-0.7 -1.3,-1.1 -2,-0.7 -1.8,0.9 -4.2,2 -6.6,3.2 -0.7,0.4 -1,1.3 -0.7,2 0.3,0.5 0.8,0.8 1.3,0.8 0.2,0 0.5,-0.1 0.7,-0.2 2.4,-1.2 4.7,-2.3 6.5,-3.2 0.8,-0.3 1.1,-1.2 0.8,-1.9 z m 58.5,-14.8 c -0.2,-15.6 0.3,-48.4 -4.9,-51.4 -4.2,-2.4 -7.6,-1.9 -12.3,2.6 -1.4,1.3 -3.4,1.8 -5.1,1.1 -3.9,-1.6 -8.9,1 -11.8,5.8 -0.9,1.4 -2.8,2 -4.2,1.1 -3.3,-2.2 -10.5,1.4 -11.7,7.7 -1,5.1 -2.6,53.8 3,60.4 2.9,3.4 5.4,4.5 8.4,2.6 3.9,-2.5 3.1,-7.1 3.6,-11.7 1.1,-8.9 1.7,-24.6 1.5,-33.5 1.8,8.1 2,22.9 3.5,31.1 0.5,2.9 1.3,6 3.6,8 1.7,1.5 4.2,1.9 6.2,0.8 2.7,-1.6 5.1,-5.5 4.9,-11.9 -0.2,-5.3 -0.1,-10.3 0,-15.3 0.9,-0.4 1.8,-0.8 2.7,-1.2 0.2,3 0.4,5.9 1.2,8.9 0.8,3.1 4.1,5.8 7.3,4.6 0.7,-0.3 1.4,-0.8 1.9,-1.4 2.2,-2.4 2.2,-5.4 2.2,-8.3 z m 35,-37.7 c -4.1,-8.2 -14.2,-11.6 -22.5,-7.4 l -11.3,5.7 c 0.6,5.6 0.9,12.8 1.1,21.8 5.4,-2.4 10.1,-4.9 15.1,-8.3 5,-3.4 6.8,-5.1 9,-1.3 0.8,4.9 -2.9,7.6 -5.3,9.2 -6.4,4 -12.3,7.1 -18.7,10.1 0,0.6 0,1.2 0,1.8 0,1.2 0,2.4 0,3.5 l 25.1,-12.6 c 8.3,-4.2 11.6,-14.3 7.5,-22.5 z m -26.5,22.2 c 0.3,0.5 0.8,0.8 1.3,0.8 0.2,0 0.5,-0.1 0.7,-0.2 0.9,-0.5 1.8,-0.9 2.7,-1.4 0.7,-0.4 1,-1.3 0.6,-2 -0.4,-0.7 -1.3,-1 -2,-0.6 -0.9,0.5 -1.7,0.9 -2.6,1.4 -0.8,0.3 -1.1,1.3 -0.7,2 z"
     id="path50"
     inkscape:connector-curvature="0" /><text
     x="-135.93616"
     y="407.05478"
     font-size="5px"
     font-weight="bold"
     id="text52"
     style="font-weight:bold;font-size:13.07672119px;font-family:'Helvetica Neue', Helvetica, Arial-Unicode, Arial, Sans-serif;fill:#000000" />
<text
     xml:space="preserve"
     style="font-style:normal;font-weight:normal;font-size:10px;line-height:125%;font-family:sans-serif;letter-spacing:0px;word-spacing:0px;fill:#000000;fill-opacity:1;stroke:none;stroke-width:1px;stroke-linecap:butt;stroke-linejoin:miter;stroke-opacity:1"
     x="436.76294"
     y="188.82712"
     id="text3388"
     sodipodi:linespacing="125%"><tspan
       sodipodi:role="line"
       x="436.76294"
       y="188.82712"
       style="font-size:35px;text-align:center;text-anchor:middle"
       id="tspan3392">Criado por</tspan><tspan
       sodipodi:role="line"
       x="436.76294"
       y="232.57712"
       style="font-size:35px;text-align:center;text-anchor:middle"
       id="tspan3396">Amanda Wray</tspan></text>
</svg>