<svg xmlns="http://www.w3.org/2000/svg" xmlns:xlink="http://www.w3.org/1999/xlink" version="1.1" x="0px" y="0px" viewBox="0 0 64 80" style="enable-background:new 0 0 64 64;" xml:space="preserve"><g><rect x="11" y="39" width="10" height="2"/><rect x="11" y="43" width="10" height="2"/><rect x="11" y="47" width="18" height="2"/><rect x="11" y="51" width="18" height="2"/><rect x="35" y="35" width="18" height="2"/><rect x="35" y="39" width="18" height="2"/><path d="M36,57h16c0.553,0,1-0.447,1-1v-4c0-0.553-0.447-1-1-1H36c-0.553,0-1,0.447-1,1v4C35,56.553,35.447,57,36,57z M37,53h14v2   H37V53z"/><path d="M48,21h4c0.553,0,1-0.448,1-1v-1h3c0.553,0,1-0.448,1-1V4c0-0.552-0.447-1-1-1h-3V2c0-0.552-0.447-1-1-1h-4   c-0.553,0-1,0.448-1,1v6h-6V7c0-1.654-1.346-3-3-3c-0.771,0-1.468,0.301-2,0.78C35.468,4.301,34.771,4,34,4s-1.468,0.301-2,0.78   C31.468,4.301,30.771,4,30,4s-1.468,0.301-2,0.78C27.468,4.301,26.771,4,26,4c-1.654,0-3,1.346-3,3v1h-6V2c0-0.552-0.447-1-1-1h-4   c-0.553,0-1,0.448-1,1v1H8C7.447,3,7,3.448,7,4v14c0,0.552,0.447,1,1,1h3v1c0,0.552,0.447,1,1,1h4c0.553,0,1-0.448,1-1v-6h6v1   v4.486c0,1.189,0.349,2.34,1.008,3.328l0.32,0.48C24.768,23.954,25,24.721,25,25.514V31H8c-0.553,0-1,0.448-1,1v28   c0,0.553,0.447,1,1,1h21.172c0.263,0,0.521,0.106,0.707,0.293l1.414,1.414C31.488,62.902,31.744,63,32,63s0.512-0.098,0.707-0.293   l1.414-1.414C34.308,61.106,34.565,61,34.828,61H56c0.553,0,1-0.447,1-1V32c0-0.552-0.447-1-1-1H37v-6c0-0.551,0.448-1,1-1   c1.654,0,3-1.346,3-3v-4v-3h6v6C47,20.552,47.447,21,48,21z M55,5v12h-2V5H55z M49,3h2v1v14v1h-2v-6V9V3z M38,6   c0.552,0,1,0.449,1,1v7.184C38.686,14.072,38.352,14,38,14h-1V7C37,6.449,37.448,6,38,6z M34,6c0.552,0,1,0.449,1,1v7h-2V7   C33,6.449,33.448,6,34,6z M30,6c0.552,0,1,0.449,1,1v7.184c-0.749,0.267-1.358,0.818-1.698,1.528C29.116,15.531,29,15.279,29,15V7   C29,6.449,29.448,6,30,6z M9,17V5h2v12H9z M15,19h-2v-1V4V3h2v6v4V19z M17,12v-2h6v2H17z M25,7c0-0.551,0.448-1,1-1s1,0.449,1,1v8   c0,0.551-0.448,1-1,1s-1-0.449-1-1V7z M29.172,59H9V33h20.172c0.263,0,0.521,0.106,0.707,0.293L31,34.414v25.224   C30.477,59.232,29.845,59,29.172,59z M55,59H34.828c-0.673,0-1.305,0.232-1.828,0.638V34.414l1.121-1.121   C34.308,33.106,34.565,33,34.828,33H55V59z M34.828,31c-0.801,0-1.555,0.312-2.121,0.879L32,32.586l-0.707-0.707   C30.727,31.312,29.973,31,29.172,31H27v-2h8v2H34.828z M38,22c-1.654,0-3,1.346-3,3v2h-8v-1.486c0-1.189-0.349-2.34-1.008-3.328   l-0.32-0.48C25.232,21.046,25,20.279,25,19.486v-1.671C25.314,17.928,25.648,18,26,18c0.771,0,1.468-0.301,2-0.78   c0.325,0.293,0.712,0.51,1.141,0.64C29.513,19.093,30.646,20,32,20h6c0.352,0,0.686-0.072,1-0.184V21C39,21.551,38.552,22,38,22z    M38,18h-6c-0.552,0-1-0.449-1-1s0.448-1,1-1h6c0.552,0,1,0.449,1,1S38.552,18,38,18z M41,12v-2h6v2H41z"/></g><text x="0" y="79" fill="#000000" font-size="5px" font-weight="bold" font-family="'Helvetica Neue', Helvetica, Arial-Unicode, Arial, Sans-serif">Created by Template</text><text x="0" y="84" fill="#000000" font-size="5px" font-weight="bold" font-family="'Helvetica Neue', Helvetica, Arial-Unicode, Arial, Sans-serif">from the Noun Project</text></svg>