<?xml version="1.0" encoding="UTF-8" standalone="no"?>
<svg
   xmlns:dc="http://purl.org/dc/elements/1.1/"
   xmlns:cc="http://creativecommons.org/ns#"
   xmlns:rdf="http://www.w3.org/1999/02/22-rdf-syntax-ns#"
   xmlns:svg="http://www.w3.org/2000/svg"
   xmlns="http://www.w3.org/2000/svg"
   xmlns:sodipodi="http://sodipodi.sourceforge.net/DTD/sodipodi-0.dtd"
   xmlns:inkscape="http://www.inkscape.org/namespaces/inkscape"
   version="1.1"
   x="0px"
   y="0px"
   viewBox="0 0 176.3223 87.069168"
   enable-background="new 0 0 100 100"
   xml:space="preserve"
   id="svg2"
   inkscape:version="0.91 r13725"
   sodipodi:docname="noun_scientist2.svg"
   width="176.3223"
   height="87.069168"><metadata
     id="metadata14"><rdf:RDF><cc:Work
         rdf:about=""><dc:format>image/svg+xml</dc:format><dc:type
           rdf:resource="http://purl.org/dc/dcmitype/StillImage" /><dc:title></dc:title></cc:Work></rdf:RDF></metadata><defs
     id="defs12" /><sodipodi:namedview
     pagecolor="#ffffff"
     bordercolor="#666666"
     borderopacity="1"
     objecttolerance="10"
     gridtolerance="10"
     guidetolerance="10"
     inkscape:pageopacity="0"
     inkscape:pageshadow="2"
     inkscape:window-width="1440"
     inkscape:window-height="849"
     id="namedview10"
     showgrid="false"
     fit-margin-top="0"
     fit-margin-left="0"
     fit-margin-right="0"
     fit-margin-bottom="0"
     inkscape:zoom="3.776"
     inkscape:cx="33.626897"
     inkscape:cy="24.391571"
     inkscape:window-x="0"
     inkscape:window-y="0"
     inkscape:window-maximized="1"
     inkscape:current-layer="svg2" /><path
     d="m 16.229492,36.696119 c 0,0.414062 0.335938,0.75 0.75,0.75 0.414063,0 0.75,-0.335938 0.75,-0.75 0,-1.633667 -0.363525,-3.153076 -0.984131,-4.42096 -0.22406,-0.457824 -0.481323,-0.882751 -0.768005,-1.268005 -0.496887,-0.667664 -1.081909,-1.211975 -1.72699,-1.607422 0.861084,-0.469727 1.612,-1.180298 2.19397,-2.063477 0.227844,-0.345764 0.430237,-0.716247 0.602478,-1.109863 0.434143,-0.992187 0.682678,-2.120789 0.682678,-3.319336 0,-1.198547 -0.248535,-2.327148 -0.682678,-3.319336 -0.172241,-0.393615 -0.374634,-0.764099 -0.602478,-1.109863 -0.58197,-0.883179 -1.332886,-1.59375 -2.19397,-2.063477 0.645081,-0.395446 1.230103,-0.939758 1.72699,-1.607422 0.286682,-0.385253 0.543945,-0.81018 0.768005,-1.268005 0.620606,-1.267883 0.984131,-2.787292 0.984131,-4.4209592 0,-0.414063 -0.335937,-0.75 -0.75,-0.75 -0.414062,0 -0.75,0.335937 -0.75,0.75 0,0.649963 -0.06653,1.2769162 -0.186828,1.8696282 l -8.4085704,0 c -0.1203,-0.592712 -0.186828,-1.2196652 -0.186828,-1.8696282 0,-0.414063 -0.335938,-0.75 -0.7500003,-0.75 -0.4140625,0 -0.75,0.335937 -0.75,0.75 0,1.6336672 0.3635254,3.1530762 0.9841313,4.4209592 0.22406,0.457825 0.481323,0.882752 0.768005,1.268005 0.496887,0.667664 1.081909,1.211976 1.72699,1.607422 -0.861084,0.469727 -1.612,1.180298 -2.19397,2.063477 -0.227844,0.345764 -0.4302368,0.716248 -0.602478,1.109863 -0.4341431,0.992188 -0.6826782,2.120789 -0.6826782,3.319336 0,1.198547 0.2485352,2.327149 0.6826782,3.319336 0.1722412,0.393616 0.374634,0.764099 0.602478,1.109863 0.58197,0.883179 1.332886,1.59375 2.19397,2.063477 -0.645081,0.395447 -1.230103,0.939758 -1.72699,1.607422 -0.286682,0.385254 -0.543945,0.810181 -0.768005,1.268005 -0.6206059,1.267884 -0.9841313,2.787293 -0.9841313,4.42096 0,0.414062 0.3359375,0.75 0.75,0.75 0.4140623,0 0.7500003,-0.335938 0.7500003,-0.75 0,-0.649964 0.06653,-1.276917 0.186828,-1.869629 l 8.4085704,0 c 0.1203,0.592712 0.186828,1.219665 0.186828,1.869629 z m -8.0374144,-16.918457 7.2926024,0 c 0.197449,0.376159 0.356018,0.786926 0.478638,1.219726 l -8.2498784,0 c 0.12262,-0.4328 0.281189,-0.843567 0.478638,-1.219726 z m -0.744812,3.129394 c 0,-0.206177 0.01001,-0.409363 0.02698,-0.609863 l 8.7282724,0 c 0.01697,0.2005 0.02698,0.403686 0.02698,0.609863 0,0.206177 -0.01001,0.409363 -0.02698,0.609864 l -8.7282724,0 c -0.01697,-0.200501 -0.02698,-0.403687 -0.02698,-0.609864 z m 0.266174,1.909668 8.2498784,0 c -0.12262,0.432801 -0.281189,0.843567 -0.478638,1.219727 l -7.2926024,0 c -0.197449,-0.37616 -0.356018,-0.786926 -0.478638,-1.219727 z M 15.669678,12.287427 c -0.167176,0.441895 -0.369873,0.848938 -0.599427,1.219727 l -6.4637454,0 c -0.229553,-0.370789 -0.432251,-0.777832 -0.599426,-1.219727 l 7.6625984,0 z m -1.706055,2.519532 c -0.63031,0.518981 -1.354431,0.816894 -2.125244,0.816894 -0.770813,0 -1.494934,-0.297913 -2.1252444,-0.816894 l 4.2504884,0 z m -2.125244,2.476074 c 1.016846,0 1.951477,0.449035 2.696594,1.194824 l -5.3931884,0 c 0.745117,-0.745789 1.6797484,-1.194824 2.6965944,-1.194824 z m -2.6965944,10.053222 5.3931884,0 c -0.745117,0.745789 -1.679748,1.194825 -2.696594,1.194825 -1.016846,0 -1.9514774,-0.449036 -2.6965944,-1.194825 z m 2.6965944,2.854004 c 0.770813,0 1.494934,0.297913 2.125244,0.816895 l -4.2504884,0 c 0.6303104,-0.518982 1.3544314,-0.816895 2.1252444,-0.816895 z m -3.8312994,3.336426 c 0.167175,-0.441894 0.369873,-0.848938 0.599426,-1.219726 l 6.4637454,0 c 0.229554,0.370788 0.432251,0.777832 0.599427,1.219726 l -7.6625984,0 z M 20.220703,13.336255 c 0,-0.358886 0.291016,-0.649902 0.649902,-0.649902 l 8.475588,0 c 0.358887,0 0.649902,0.291016 0.649902,0.649902 0,0.358887 -0.291015,0.649903 -0.649902,0.649903 l -8.475588,0 c -0.358886,0 -0.649902,-0.291016 -0.649902,-0.649903 z m 10.153017,1.472901 0,-2.94574 c 0,-0.552246 0.447693,-1 1,-1 l 12.126282,0 c 0.552307,0 1,0.447754 1,1 l 0,2.94574 c 0,0.552246 -0.447693,1 -1,1 l -12.126282,0 c -0.552307,0 -1,-0.447754 -1,-1 z m -10.153017,8.0979 c 0,-0.358886 0.291016,-0.649902 0.649902,-0.649902 l 8.475588,0 c 0.358887,0 0.649902,0.291016 0.649902,0.649902 0,0.358887 -0.291015,0.649903 -0.649902,0.649903 l -8.475588,0 c -0.358886,0 -0.649902,-0.291016 -0.649902,-0.649903 z m 10.153017,1.472901 0,-2.945679 c 0,-0.552307 0.447693,-1 1,-1 l 12.126282,0 c 0.552307,0 1,0.447693 1,1 l 0,2.945679 c 0,0.552307 -0.447693,1 -1,1 l -12.126282,0 c -0.552307,0 -1,-0.447693 -1,-1 z m -10.153017,8.0979 c 0,-0.358887 0.291016,-0.649902 0.649902,-0.649902 l 8.475588,0 c 0.358887,0 0.649902,0.291015 0.649902,0.649902 0,0.358887 -0.291015,0.649902 -0.649902,0.649902 l -8.475588,0 c -0.358886,0 -0.649902,-0.291015 -0.649902,-0.649902 z m 10.153017,1.472962 0,-2.94574 c 0,-0.552246 0.447693,-1 1,-1 l 12.126282,0 c 0.552307,0 1,0.447754 1,1 l 0,2.94574 c 0,0.552246 -0.447693,1 -1,1 l -12.126282,0 c -0.552307,0 -1,-0.447754 -1,-1 z m 62.670227,29.654483 -9.76e-4,-9.76e-4 -11.011414,-18.447697 c 0.715332,-0.305054 1.218445,-1.015076 1.218445,-1.840393 l 0,-38.1494132 c 0,-1.103027 -0.897461,-2 -2,-2 l -6.655029,0 C 71.760927,0.56367329 67.630129,-0.45219631 62.271486,0.18440079 62.163088,0.13752529 62.0459,0.11018159 61.924807,0.10627529 57.877138,-0.03306801 54.679018,0.99665659 52.392153,3.1668228 L 2,3.1668228 c -1.1030273,0 -2,0.896973 -2,2 L 0,43.316236 c 0,1.102539 0.8969727,2 2,2 l 12.469605,0 c 0.08868,0.343872 0.276611,0.652344 0.550415,0.887695 l 5.366211,4.620118 c 0.733826,0.632202 1.634582,0.987793 2.585632,1.067016 0.314331,0.457764 0.678467,0.883728 1.128235,1.235718 l 10.349123,8.098637 c 0.963379,0.752929 2.166992,1.167968 3.388672,1.167968 1.398926,0 2.732422,-0.52539 3.754883,-1.480468 l 5.773437,-5.392582 0,22.318363 c 0,0.964844 0.785156,1.75 1.75,1.75 l 7.790527,0 1.614747,5.188476 c 0.232421,0.749024 0.925781,1.230469 1.671875,1.230469 0.171875,0 0.346679,-0.02539 0.518554,-0.0791 l 0.153809,-0.04791 c 0.246033,0.722656 0.920166,1.188538 1.650879,1.188538 0.171875,0 0.346679,-0.02539 0.518554,-0.0791 l 14.640625,-4.556641 9.77e-4,0 c 0.446289,-0.139648 0.811523,-0.444335 1.02832,-0.857422 0.217774,-0.415039 0.260743,-0.888671 0.121094,-1.333984 l -0.61792,-1.985413 c 0.558045,-0.654846 0.907959,-1.49237 0.907959,-2.417907 l 0,-1.117188 c 0.301758,-0.03516 0.600586,-0.09473 0.894532,-0.179687 l 9.832031,-2.833008 c 1.626953,-0.467773 2.970703,-1.688477 3.592773,-3.264648 0.622071,-1.576172 0.475586,-3.384766 -0.391602,-4.838868 z M 77.993166,28.199537 c 0.6875,-0.489258 1.259765,-1.256836 1.612305,-2.161621 0.351562,-0.904785 0.449218,-1.856934 0.274414,-2.681641 -0.196289,-0.925781 -0.732422,-1.621094 -1.469727,-1.908203 -0.052,-0.02032 -0.10852,-0.02197 -0.161682,-0.03796 0.490478,-2.397827 1.811279,-10.671692 -1.914062,-16.2432862 l 4.915588,0 9.77e-4,38.1494142 -0.317933,0 -0.723083,-1.211426 C 79.225588,40.454912 77.478518,39.45833 75.529299,39.439287 l -5.301758,7.32e-4 0,-2.769531 c 2.938294,-1.726196 4.714661,-4.551147 5.777832,-7.952087 0.126953,0.02295 0.256165,0.03485 0.387207,0.03485 0.53125,0 1.086914,-0.188477 1.600586,-0.553711 z M 76.41205,27.248182 c 0.338013,-1.375916 0.580994,-2.82489 0.751953,-4.319153 0.139893,-0.06903 0.300659,-0.125977 0.465882,-0.125977 0.0791,0 0.158203,0.0127 0.235351,0.04248 0.353516,0.137695 0.495117,0.574219 0.547852,0.821777 0.113281,0.534668 0.03809,1.200195 -0.206055,1.826172 -0.243164,0.626465 -0.638672,1.166992 -1.083984,1.483887 -0.248841,0.176758 -0.495606,0.266357 -0.710999,0.270813 z m -6.835876,22.715515 2.163086,3.545898 -7.854493,4.866215 7.639649,-16.810551 2.695312,4.69629 -4.126953,1.987304 c -0.3125,0.150391 -0.547851,0.423828 -0.644531,0.75 -0.0957,0.323242 -0.04883,0.674805 0.12793,0.964844 z M 57.491213,48.366041 c -0.09473,-0.319336 -0.325196,-0.585938 -0.631836,-0.732422 l -3.808594,-1.80957 2.457031,-4.22754 7.023438,15.335942 -7.169922,-4.388676 2,-3.237305 c 0.174805,-0.282226 0.222656,-0.625 0.129883,-0.940429 z m 3.142578,0.821472 c 0.505554,-0.126709 0.955078,-0.426331 1.243164,-0.851746 l 0.36676,-0.540039 0.07733,0.545471 c 0.01923,0.135743 0.07947,0.24408 0.15802,0.315247 -0.05896,0.05072 -0.122193,0.09979 -0.148743,0.169556 l -0.845764,2.219299 -0.850769,-1.857788 z m 0.002,-1.693543 c -0.08691,0.12793 -0.241211,0.226563 -0.40332,0.25586 -0.09961,0.01758 -0.189453,0.0068 -0.237305,-0.02637 l -0.04694,-0.03308 -2.923767,-6.38446 -0.14679,-0.320557 c 0.0091,-5.49e-4 0.01984,-0.007 0.02863,-0.007 0.04572,0 0.08423,0.01013 0.118164,0.02502 0.0045,0.002 0.01141,0.0011 0.01563,0.0033 l 5.816833,3.054443 c -9.15e-4,0.04327 0.0085,0.08673 0.01105,0.130249 -0.0086,0.01923 -0.01257,0.03552 -0.02808,0.05847 l -0.04498,0.06622 -2.159119,3.177917 z m -2.111328,-7.40332 0,-2.693481 c 1.46167,0.601379 3.160644,0.976806 5.140625,1.076782 1.947144,-0.09888 3.619751,-0.468628 5.0625,-1.058777 l 0,2.676025 -4.762146,2.493164 -0.276917,0.144959 c -0.0224,0.01172 -0.04034,0.02826 -0.06201,0.04089 -0.02167,-0.01263 -0.03961,-0.02917 -0.06201,-0.04089 L 63.2876,42.584363 58.524416,40.09065 Z m 5.933655,4.225403 -0.04498,-0.06622 c -0.0163,-0.02417 -0.01959,-0.04266 -0.02765,-0.06323 -0.02002,-0.0509 -0.0246,-0.09515 -0.0016,-0.128173 l 0.01117,-0.0059 5.709656,-2.989197 -3.039612,6.688355 c -0.01532,-0.0014 -0.02875,9.15e-4 -0.04449,-0.0019 -0.16211,-0.0293 -0.316406,-0.12793 -0.404297,-0.25586 l -2.158142,-3.177917 z m 1.978332,4.818847 -0.759399,1.671021 -0.754639,-1.979919 c -0.02655,-0.0697 -0.08972,-0.118714 -0.148621,-0.169434 0.07868,-0.07117 0.138916,-0.179565 0.158204,-0.315369 l 0.07721,-0.544739 0.366821,0.540284 c 0.253662,0.373352 0.631226,0.649048 1.060425,0.798156 z M 52.015627,15.494947 c 0.460937,-0.07764 1.457031,-0.293457 2.629883,-0.833496 0.183593,0.254883 0.492187,0.410644 0.817382,0.393066 0.166993,-0.0083 2.375977,-0.134765 4.711915,-1.051269 -0.01172,0.105468 -0.0059,0.214843 0.02051,0.322754 0.09961,0.419921 0.470703,0.719726 0.902344,0.729492 0.201172,0.01318 4.171875,0.05566 6.621094,-2.747071 0.945312,2.264161 3.068359,5.973145 7.397461,8.302247 l 0.645325,0.890136 c -0.02075,0.221009 -0.04724,0.433106 -0.07056,0.650208 -0.04889,0.456482 -0.09827,0.912781 -0.158875,1.351684 -0.156066,1.129883 -0.355651,2.196595 -0.598938,3.203797 -0.09167,0.379699 -0.195007,0.744323 -0.300476,1.105652 -0.919433,3.151062 -2.367614,5.605713 -4.604248,7.175293 -0.330322,0.231872 -0.687927,0.433532 -1.053161,0.626648 -1.469605,0.777282 -3.212097,1.254455 -5.310242,1.361816 -2.093201,-0.106323 -3.835327,-0.574158 -5.30603,-1.337647 -0.391419,-0.203186 -0.770447,-0.419921 -1.122254,-0.666564 -2.240905,-1.571106 -3.692382,-4.021119 -4.613159,-7.165223 -0.105896,-0.361633 -0.209595,-0.726745 -0.301697,-1.106811 -0.243347,-1.004395 -0.442993,-2.06781 -0.599243,-3.194153 -0.06091,-0.439636 -0.110596,-0.896484 -0.15979,-1.353699 -0.13324,-1.23938 -0.228149,-2.538574 -0.285766,-3.899719 0.17572,-1.098145 0.432617,-2.009949 0.738525,-2.757141 z M 15.140625,41.241529 c -0.305176,0.354492 -0.454102,0.807617 -0.418945,1.275879 0.02197,0.291992 0.129272,0.558716 0.281128,0.798828 L 2,43.316236 2,5.1668228 l 48.752137,0 c -3.624146,5.6448352 -2.144532,14.1311022 -1.700074,16.2323002 -0.06927,0.01898 -0.141906,0.02271 -0.209289,0.04895 -0.737305,0.287109 -1.273438,0.982422 -1.469727,1.908203 -0.175293,0.824707 -0.07764,1.776855 0.274414,2.682129 0.352539,0.904297 0.924805,1.671875 1.612305,2.161133 0.513672,0.365722 1.069336,0.554199 1.600586,0.554199 0.132873,0 0.264587,-0.0119 0.393799,-0.03577 1.06372,3.38617 2.838196,6.201844 5.770263,7.930176 l 0,2.793701 -6.044921,8.55e-4 c -1.522461,-0.09375 -2.97461,0.427734 -4.080567,1.461426 l -2.582214,2.412109 -15.077513,0 c -0.267884,-0.555786 -0.642825,-1.0578 -1.122988,-1.471191 l -3.960938,-3.410157 c -0.733886,-0.630859 -1.844238,-0.548828 -2.475585,0.185059 -0.07324,0.08496 -0.137207,0.175293 -0.191407,0.269531 l -1.152344,-0.992187 c -0.733886,-0.632325 -1.844726,-0.54834 -2.475585,0.185058 -0.130372,0.150879 -0.229981,0.31836 -0.299805,0.494141 -0.593262,-0.108399 -1.225586,0.09326 -1.646484,0.581543 -0.419434,0.488281 -0.52295,1.143555 -0.32959,1.71289 -0.165528,0.09668 -0.31543,0.221191 -0.443848,0.370605 z M 50.845949,27.249647 c -0.216308,-0.003 -0.465515,-0.09393 -0.716064,-0.272278 -0.445313,-0.316895 -0.840821,-0.857422 -1.083985,-1.483399 -0.24414,-0.626464 -0.319336,-1.291992 -0.206055,-1.82666 0.05273,-0.247558 0.194336,-0.684082 0.547852,-0.821777 0.07715,-0.02978 0.15625,-0.04297 0.235352,-0.04297 0.165771,0 0.327087,0.05743 0.467285,0.126953 0.171753,1.494568 0.415832,2.943909 0.755615,4.32013 z m -8.670288,18.066589 -4.653198,4.34668 -5.55481,-4.34668 10.208008,0 z m -18.342775,5.0578 c -0.08105,0.01251 -0.158875,0.03558 -0.241577,0.04181 -0.188599,0.01416 -0.374817,0.007 -0.558411,-0.01215 -0.293396,-0.03058 -0.573608,-0.11145 -0.842834,-0.223205 -0.295105,-0.122437 -0.576783,-0.279236 -0.825318,-0.493164 l -5.076355,-4.371094 -0.290344,-0.25 c -0.06836,-0.05859 -0.0835,-0.133789 -0.08643,-0.173828 -0.0029,-0.04004 9.77e-4,-0.117188 0.05957,-0.185547 0.04981,-0.05762 0.122071,-0.08691 0.194336,-0.08691 0.05957,0 0.118653,0.01953 0.166016,0.06055 l 0.738647,0.635742 1.526001,1.313477 c 0.198731,0.171875 0.481934,0.185546 0.730957,0.103515 0.249512,-0.08203 0.447266,-0.329101 0.506348,-0.583984 0.06299,-0.272461 -0.02979,-0.556641 -0.241211,-0.738282 l -0.110046,-0.09473 -1.161865,-1.000183 -1.161377,-0.999817 -0.854798,-0.73584 c -0.10498,-0.09033 -0.117187,-0.255371 -0.02686,-0.360352 0.09082,-0.104003 0.254883,-0.116699 0.360351,-0.02685 l 1.304627,1.123047 1.161438,0.999817 0.491455,0.423034 c 0.3125,0.268555 0.830566,0.179688 1.101562,-0.128906 0.07471,-0.08521 0.121766,-0.186889 0.151734,-0.294128 0.02289,-0.08197 0.03851,-0.166687 0.03235,-0.253235 -0.01416,-0.199219 -0.106933,-0.385254 -0.258789,-0.515625 l -0.268249,-0.230957 -3.275208,-2.819824 c -0.10498,-0.09033 -0.117187,-0.255371 -0.02734,-0.360352 0.09082,-0.10498 0.254883,-0.116699 0.360352,-0.02685 l 3.543457,3.050781 c 0.3125,0.269043 0.833984,0.180664 1.104004,-0.132324 0.130859,-0.150391 0.196289,-0.347168 0.181641,-0.545899 -0.01465,-0.199219 -0.107422,-0.384277 -0.258789,-0.51416 l -2.958008,-2.546387 c -0.06836,-0.05908 -0.08399,-0.134765 -0.08691,-0.174804 -0.0029,-0.04004 9.76e-4,-0.1167 0.06006,-0.185547 0.05908,-0.06885 0.134766,-0.08398 0.174317,-0.08691 0.04101,-0.002 0.117187,4.88e-4 0.186035,0.06006 l 3.288086,2.830567 c 0.210937,0.18164 0.583496,0.202148 0.84375,0.09912 0.24414,-0.09668 0.419433,-0.313965 0.463379,-0.572754 0.04346,-0.258789 -0.05176,-0.521485 -0.250489,-0.692871 l -0.858886,-0.739258 c -0.06836,-0.05908 -0.08399,-0.134766 -0.08692,-0.174805 -0.0029,-0.04004 9.77e-4,-0.116699 0.06006,-0.185547 0.09082,-0.104492 0.254883,-0.116211 0.360352,-0.02685 l 3.960937,3.410156 c 0.118225,0.101868 0.218994,0.217957 0.318909,0.334473 0.0018,0.0021 0.004,0.004 0.0059,0.0061 0.194153,0.227844 0.349915,0.480286 0.468689,0.752808 0.03436,0.0788 0.065,0.159119 0.09265,0.240906 0.06073,0.179443 0.103393,0.364624 0.130432,0.555664 0.0097,0.06842 0.02997,0.133728 0.03522,0.203308 0.006,0.08142 -0.0052,0.160522 -0.0054,0.241211 -0.002,0.730774 -0.245239,1.429565 -0.723633,1.985351 l -1.775879,2.0625 c -0.4776,0.55481 -1.130554,0.898682 -1.851684,1.009949 z m 36.580019,34.077336 -0.146302,0.04553 c -0.130859,0.03711 -0.27246,-0.0332 -0.313476,-0.165039 L 54.633791,67.240068 c -0.04102,-0.131836 0.0332,-0.272461 0.164062,-0.313477 l 14.640625,-4.55664 c 0.02441,-0.0078 0.04981,-0.01074 0.07422,-0.01074 0.09033,0 0.167175,0.05627 0.211304,0.136231 0.0079,0.01428 0.02295,0.02246 0.02795,0.03857 l 0.209351,0.672608 0.927673,2.980163 -5.01886,1.453674 c -0.450195,0.126953 -0.824219,0.423828 -1.052734,0.833985 -0.229493,0.411133 -0.285157,0.884765 -0.157227,1.334961 0.05469,0.192383 0.139649,0.367187 0.248047,0.522461 -0.101563,0.106445 -0.19043,0.226562 -0.264648,0.359375 -0.228516,0.410156 -0.28418,0.883789 -0.15625,1.333984 0.127929,0.450196 0.424804,0.824219 0.83496,1.052735 0.131836,0.07324 0.271485,0.129882 0.414063,0.166992 -0.01074,0.188476 0.0098,0.382812 0.06348,0.574219 0.234375,0.821289 1.009765,1.344726 1.845703,1.268554 0.0088,0.119141 0.0293,0.238282 0.0625,0.355469 0.219726,0.771484 0.924804,1.276367 1.690429,1.276367 0.158203,0 0.31836,-0.02148 0.477539,-0.06641 l 3.923768,-1.115356 1.260986,4.050903 0.01153,0.03711 c 0.04102,0.131836 -0.0332,0.272461 -0.165039,0.313477 l -14.494318,4.512089 z m 16.96405,-3.572632 c -0.01758,0.03418 -0.06055,0.0957 -0.147461,0.123047 l -14.639648,4.55664 c -0.112854,0.03143 -0.224121,-0.02722 -0.281189,-0.126953 l 13.043884,-4.060547 c 0.446289,-0.138672 0.811523,-0.442383 1.029297,-0.856445 0.185669,-0.352966 0.236755,-0.748596 0.163696,-1.134277 -0.01263,-0.06677 -0.021,-0.13385 -0.04163,-0.199707 l -0.161194,-0.517762 -1.100341,-3.535034 0.38739,-0.110107 1.310974,4.212585 0.453796,1.45813 c 0.02539,0.08203 0.0049,0.148438 -0.01758,0.19043 z m 0.239258,-5.040039 c 0,0.133178 -0.01703,0.262085 -0.03937,0.388977 l -0.516296,-1.658753 c 0.190124,-0.07269 0.380676,-0.143371 0.555664,-0.238525 l 0,1.508301 z m -1.000427,-2.698914 c -0.111756,0.04681 -0.219117,0.100464 -0.33844,0.134461 l -0.371888,0.105713 -0.721496,0.205017 -5.717163,1.624817 c -0.132813,0.03418 -0.277344,-0.04297 -0.31543,-0.176758 -0.02539,-0.08691 0.0039,-0.158203 0.02344,-0.19336 0.01953,-0.03418 0.06445,-0.09668 0.152343,-0.121094 l 2.874024,-0.817382 c 0.25293,-0.07227 0.419922,-0.300782 0.489258,-0.553711 0.06934,-0.253907 -0.02832,-0.554688 -0.209961,-0.745117 -0.143555,-0.150391 -0.340821,-0.232422 -0.542969,-0.232422 -0.06836,0 -0.137695,0.0098 -0.205078,0.02832 l -4.172852,1.186523 c -0.134765,0.03418 -0.279297,-0.04297 -0.316406,-0.174804 -0.03809,-0.133789 0.04297,-0.279297 0.175781,-0.316407 l 3.754883,-1.067382 c 0.192383,-0.05469 0.344727,-0.21875 0.441406,-0.393555 0.09668,-0.174805 0.109375,-0.416992 0.05273,-0.608398 -0.114258,-0.394532 -0.529297,-0.626954 -0.924805,-0.511719 l -4.49707,1.27832 c -0.134766,0.04102 -0.278321,-0.04199 -0.31543,-0.175781 -0.03809,-0.132813 0.04297,-0.277344 0.175781,-0.31543 l 4.497071,-1.27832 c 0.192382,-0.05469 0.344726,-0.21875 0.441406,-0.393555 0.09668,-0.174805 0.109375,-0.416992 0.05273,-0.608398 -0.114257,-0.395508 -0.52832,-0.62793 -0.924804,-0.511719 l -3.75293,1.067383 c -0.134766,0.03613 -0.279297,-0.04395 -0.316406,-0.175782 -0.02539,-0.08691 0.0039,-0.159179 0.02344,-0.194336 0.01953,-0.03418 0.06543,-0.09668 0.15625,-0.12207 l 9.500122,-2.751465 1.387573,-0.401855 c 0.21875,0.291015 0.376954,0.606445 0.47168,0.941406 l 0.744141,2.619141 c 0.427978,1.504761 -0.361267,3.059387 -1.770935,3.649719 z m -5.000061,-9.662842 0.145996,-0.04547 c 0.02441,-0.0078 0.0498,-0.01074 0.07422,-0.01074 0.106446,0 0.206055,0.06836 0.239258,0.174805 l 0.641663,2.061828 -0.387451,0.112244 -0.713684,-2.292664 z m 20.425292,4.416443 c -0.453125,1.146485 -1.429687,2.033203 -2.613281,2.374024 l -9.833008,2.833007 c -0.212158,0.06159 -0.426086,0.09967 -0.637878,0.125306 0.918884,-1.118287 1.29779,-2.651368 0.87323,-4.145813 l -0.744141,-2.619141 c -0.137817,-0.482727 -0.363647,-0.931702 -0.661804,-1.347778 l 2.866882,-0.82605 c 0.223633,-0.06445 0.404297,-0.228516 0.489258,-0.445313 0.04291,-0.108337 0.05945,-0.223205 0.05035,-0.336059 -0.0092,-0.112976 -0.04401,-0.22406 -0.104065,-0.324097 l -2.716797,-4.551758 c -3.05e-4,-4.88e-4 -7.32e-4,-7.32e-4 -0.001,-0.0012 l -1.350558,-2.262471 c -0.209961,-0.354496 -0.669922,-0.471684 -1.02832,-0.258793 -0.355469,0.211918 -0.47168,0.671878 -0.258789,1.028324 l 1.245117,2.085876 0,4.563111 -0.652344,0.187927 c -0.722107,0.208374 -1.377686,0.557678 -1.944031,1.017883 l -0.862549,0.249817 -0.650451,-2.089966 c -0.286133,-0.921875 -1.271485,-1.4375 -2.19043,-1.15039 l -0.150635,0.04687 C 70.862184,61.152605 69.897341,60.65584 68.993166,60.93831 l -14.640625,4.556641 c -0.920899,0.286133 -1.4375,1.269531 -1.150391,2.190429 l 3.237732,10.403321 -7.323669,0 c -0.137696,0 -0.25,-0.112305 -0.25,-0.25 l 0,-24.044926 c 0,-0.298828 -0.176758,-0.569336 -0.451172,-0.6875 -0.09668,-0.04199 -0.198242,-0.0625 -0.298828,-0.0625 -0.186524,0 -0.370117,0.06934 -0.511719,0.202148 l -7.035156,6.571293 c -1.402344,1.307618 -3.682129,1.40918 -5.195801,0.226563 L 25.024414,51.945142 c -0.09723,-0.07611 -0.175537,-0.168518 -0.264465,-0.252014 0.792846,-0.253235 1.506897,-0.706238 2.06134,-1.350525 l 1.775879,-2.0625 c 0.681398,-0.791809 1.041139,-1.776672 1.076662,-2.811035 0.09296,0.06097 0.191711,0.107544 0.280762,0.177246 l 7.148437,5.59375 c 0.291016,0.227539 0.70459,0.208008 0.974609,-0.04297 l 8.436097,-7.880859 1.409118,-1.316406 c 0.803711,-0.75 1.871094,-1.123047 3.011719,-1.058594 l 3.219238,-2.44e-4 -2.542358,4.375244 -0.03918,0.06738 c -0.164062,0.28125 -0.204101,0.61914 -0.109375,0.926757 0.09668,0.3125 0.324219,0.574219 0.626954,0.71875 l 3.799799,1.804692 -1.981445,3.208008 c -0.165039,0.267578 -0.21582,0.581055 -0.143555,0.882812 0.07324,0.303711 0.262696,0.561524 0.533203,0.726563 l 7.890747,4.830631 -0.02063,0.04535 c -0.21875,0.484375 -0.09375,1.048828 0.3125,1.405274 0.24414,0.213867 0.547851,0.324218 0.852539,0.324218 0.233398,0 0.467773,-0.06445 0.678711,-0.194335 l 8.764648,-5.430668 c 0.571289,-0.355469 0.746094,-1.080078 0.398437,-1.650391 l -2.146484,-3.517578 4.120117,-1.984375 c 0.306641,-0.147461 0.539063,-0.415039 0.638672,-0.733398 0.09863,-0.31543 0.05957,-0.66211 -0.106445,-0.952149 l -0.274109,-0.477539 -2.512146,-4.37677 2.628052,-1.83e-4 c 1.414062,0.01367 2.68457,0.736816 3.399414,1.934082 l 0.264343,0.442871 0.596802,0.999817 0.596985,1.000183 11.374879,19.056643 c 0.640625,1.074219 0.745117,2.357422 0.286132,3.520508 z m -12.924804,-4.541015 0,-1.618042 0.824219,1.380737 -0.824219,0.237305 z M 60.625002,27.44563 l 0,-2.102539 c 0,-0.414062 0.335937,-0.75 0.75,-0.75 0.414062,0 0.75,0.335938 0.75,0.75 l 0,1.932618 1.15332,0 c 0.414063,0 0.75,0.335937 0.75,0.75 0,0.414062 -0.335937,0.75 -0.75,0.75 l -1.323242,0 c -0.733398,0 -1.330078,-0.59668 -1.330078,-1.330079 z m -5.04419,-3.362182 c -0.80664,0 -1.46051,-0.65387 -1.46051,-1.46051 0,-0.806641 0.65387,-1.460572 1.46051,-1.460572 0.806641,0 1.460572,0.653931 1.460572,1.460572 0,0.80664 -0.653931,1.46051 -1.460572,1.46051 z m 12.031739,-1.46051 c 0,-0.806641 0.65393,-1.460572 1.460571,-1.460572 0.806641,0 1.46051,0.653931 1.46051,1.460572 0,0.80664 -0.653869,1.46051 -1.46051,1.46051 -0.806641,0 -1.460571,-0.65387 -1.460571,-1.46051 z m -8.956299,9.44281 c 0,-0.414063 0.335937,-0.75 0.75,-0.75 0.334961,0 0.618164,0.21875 0.714844,0.521484 0.25,0.148438 1.039062,0.371582 2.206054,0.371582 1.166993,0 1.956055,-0.223144 2.206055,-0.371582 0.09668,-0.302734 0.379883,-0.521484 0.714844,-0.521484 0.414062,0 0.75,0.335937 0.75,0.75 0,1.211426 -1.896485,1.643066 -3.670899,1.643066 -1.774414,0 -3.670898,-0.43164 -3.670898,-1.643066 z"
     id="path4"
     inkscape:connector-curvature="0" /><text
     xml:space="preserve"
     style="font-style:normal;font-weight:normal;font-size:10px;line-height:125%;font-family:sans-serif;letter-spacing:0px;word-spacing:0px;fill:#000000;fill-opacity:1;stroke:none;stroke-width:1px;stroke-linecap:butt;stroke-linejoin:miter;stroke-opacity:1"
     x="137.15237"
     y="36.649906"
     id="text3342"
     sodipodi:linespacing="125%"><tspan
       sodipodi:role="line"
       id="tspan3344"
       x="137.15237"
       y="36.649906"
       style="font-size:15px;text-align:center;text-anchor:middle">Criado por</tspan><tspan
       sodipodi:role="line"
       x="137.15237"
       y="55.399906"
       id="tspan3346"
       style="font-size:15px;text-align:center;text-anchor:middle">Llisole</tspan></text>
</svg>