<?xml version="1.0" encoding="UTF-8" standalone="no"?>
<!-- Created with Inkscape (http://www.inkscape.org/) -->

<svg
   xmlns:dc="http://purl.org/dc/elements/1.1/"
   xmlns:cc="http://creativecommons.org/ns#"
   xmlns:rdf="http://www.w3.org/1999/02/22-rdf-syntax-ns#"
   xmlns:svg="http://www.w3.org/2000/svg"
   xmlns="http://www.w3.org/2000/svg"
   xmlns:sodipodi="http://sodipodi.sourceforge.net/DTD/sodipodi-0.dtd"
   xmlns:inkscape="http://www.inkscape.org/namespaces/inkscape"
   width="210mm"
   height="297mm"
   viewBox="0 0 744.09448819 1052.3622047"
   id="svg2"
   version="1.1"
   inkscape:version="0.91 r13725"
   sodipodi:docname="wait.svg">
  <defs
     id="defs4" />
  <sodipodi:namedview
     id="base"
     pagecolor="#ffffff"
     bordercolor="#666666"
     borderopacity="1.0"
     inkscape:pageopacity="0.0"
     inkscape:pageshadow="2"
     inkscape:zoom="1.4"
     inkscape:cx="274.89347"
     inkscape:cy="824.1847"
     inkscape:document-units="px"
     inkscape:current-layer="g4225"
     showgrid="false"
     inkscape:window-width="1440"
     inkscape:window-height="849"
     inkscape:window-x="0"
     inkscape:window-y="0"
     inkscape:window-maximized="1" />
  <metadata
     id="metadata7">
    <rdf:RDF>
      <cc:Work
         rdf:about="">
        <dc:format>image/svg+xml</dc:format>
        <dc:type
           rdf:resource="http://purl.org/dc/dcmitype/StillImage" />
        <dc:title></dc:title>
      </cc:Work>
    </rdf:RDF>
  </metadata>
  <g
     inkscape:label="Layer 1"
     inkscape:groupmode="layer"
     id="layer1">
    <g
       id="g4225"
       transform="matrix(2.3413235,0,0,2.3413235,275.46303,104.7535)">
      <g
         id="g4211"
         transform="translate(-0.16500878,-952.36213)"
         inkscape:export-xdpi="52"
         inkscape:export-ydpi="52">
        <path
           id="path4213"
           style="color:#000000;font-style:normal;font-variant:normal;font-weight:normal;font-stretch:normal;font-size:medium;line-height:normal;font-family:sans-serif;text-indent:0;text-align:start;text-decoration:none;text-decoration-line:none;text-decoration-style:solid;text-decoration-color:#000000;letter-spacing:normal;word-spacing:normal;text-transform:none;direction:ltr;block-progression:tb;writing-mode:lr-tb;baseline-shift:baseline;text-anchor:start;white-space:normal;clip-rule:nonzero;display:inline;overflow:visible;visibility:visible;opacity:1;isolation:auto;mix-blend-mode:normal;color-interpolation:sRGB;color-interpolation-filters:linearRGB;solid-color:#000000;solid-opacity:1;fill:#000000;fill-opacity:1;fill-rule:nonzero;stroke:none;stroke-width:6.54035187;stroke-linecap:butt;stroke-linejoin:round;stroke-miterlimit:4;stroke-dasharray:none;stroke-dashoffset:0;stroke-opacity:1;color-rendering:auto;image-rendering:auto;shape-rendering:auto;text-rendering:auto;enable-background:accumulate"
           d="m 54.666453,957.3621 c -1.97156,-5.5e-4 -3.33484,1.97085 -2.63839,3.81532 -1.28839,-1.19465 -3.01038,-1.93128 -4.90973,-1.93128 -3.9607,0 -7.18275,3.22042 -7.18275,7.18109 8.7e-4,3.98541 3.22311,7.18272 7.18275,7.18272 3.98541,0 7.21474,-3.19731 7.21474,-7.18272 0,-1.40845 -0.41401,-2.71896 -1.11968,-3.82878 0.43884,0.26354 0.94116,0.40267 1.45306,0.40241 1.0638,0 2.11367,0.17586 3.12161,0.47147 l -0.17847,0.61284 c -0.0975,0.33362 0.0862,0.68465 0.41588,0.79474 1.81507,0.60611 3.48089,1.63697 4.74641,2.76972 1.2655,1.13276 2.11714,2.38456 2.36226,3.28826 0.18294,0.67448 0.21921,1.09267 0.11449,1.43457 -0.10471,0.34189 -0.37828,0.71568 -1.05232,1.23585 -1.09115,0.84207 -3.69756,1.85844 -8.12564,2.09956 -0.63329,0.0328 -1.30019,0.0509 -2.00531,0.0509 l -13.86039,0 c -0.39222,0 -0.77591,0.0112 -1.15334,0.0302 -2.63882,0.12887 -4.99155,0.73749 -6.88979,2.22421 -2.17794,1.70568 -3.25107,4.25127 -3.74796,6.91669 -0.89472,4.79937 -0.46381,10.14409 -0.37715,18.55513 0.003,0.3544 0.29208,0.6398 0.64655,0.6398 l 0.0135,0 c 0.003,0.4631 0.0101,1.6033 0.0101,2.0806 0,3.7592 5.63877,3.7592 5.63877,0 0,-0.497 -0.01,-1.5985 -0.0118,-2.0806 0.35309,-0.01 0.63419,-0.2984 0.6314,-0.6516 -0.0627,-8.58303 -0.32666,-14.12171 0.26098,-17.27377 0.32958,-1.76801 0.72573,-2.35257 1.20891,-2.73102 0.0491,-0.0388 0.19303,-0.0767 0.25761,-0.1162 -0.57883,15.39975 -1.67867,42.63079 -1.67867,42.63079 -0.0143,0.3668 0.27939,0.672 0.64654,0.6718 l 1.72413,0 0,16.6362 c -0.0586,5.4282 8.1135,5.4282 8.05493,0 l 0,-16.6362 3.38933,0 0,16.6362 c -0.0586,5.4282 8.1135,5.4282 8.05492,0 l 0,-16.6362 1.72413,0 c 0.36716,2e-4 0.66085,-0.305 0.64655,-0.6718 l -1.70729,-43.49114 c 4.69192,-0.36068 8.31693,-1.4193 10.88525,-3.4011 3.23079,-2.49309 4.31853,-6.56109 3.39269,-9.97435 -1.39866,-5.15661 -6.01417,-9.35107 -11.80793,-10.99977 -0.0586,-0.0164 -0.11931,-0.0241 -0.18015,-0.0233 -1.64053,-0.46603 -3.37701,-0.73069 -5.17071,-0.73069 z m 5.595,2.24611 c 5.1079,1.65654 9.10811,5.39868 10.31447,9.84633 0.79053,2.91447 -0.13294,6.45023 -2.93472,8.61229 -2.41133,1.86068 -5.9085,2.94498 -10.80107,3.2361 -0.35185,0.0207 -0.62217,0.31965 -0.60782,0.67181 l 1.70392,43.38666 -10.15452,0 0,-29.27544 0,-4.44058 4.46622,-14.59389 1.81238,0 c 5.83745,0 9.26772,-1.14207 10.92735,-2.42284 0.77928,-0.60137 1.28416,-1.18646 1.49682,-1.88076 0.21265,-0.6944 0.10523,-1.39138 -0.10102,-2.15172 -0.35405,-1.3056 -1.35604,-2.66576 -2.74952,-3.913 -1.25289,-1.12146 -2.86284,-2.09128 -4.62686,-2.77145 z m -14.16682,17.39448 1.04054,0 1.04053,0 c 0.62071,0 0.60615,0.49905 0.60615,1.11965 0,0.6206 -0.50074,1.12086 -1.12136,1.12138 l -0.52532,0 -0.52532,0 c -0.62062,0 -1.12136,-0.50078 -1.12136,-1.12138 0,-0.6206 -0.0146,-1.11965 0.60614,-1.11965 z m -5.89471,0.0526 1.82347,0 4.46523,14.59562 0,33.71099 -10.1562,0 c 0.034,-0.8618 1.13599,-28.08214 1.69382,-42.99103 0.0159,-0.43457 -0.39313,-0.7606 -0.81323,-0.64828 -0.68059,0.18181 -1.1933,0.42767 -1.57597,0.72741 -0.76481,0.59888 -1.32342,1.59758 -1.68036,3.51223 -0.63438,3.40283 -0.36498,8.70228 -0.29128,16.86967 l -4.34568,0 c -0.0995,-5.35826 -0.45591,-13.26805 0.36368,-17.66441 0.46271,-2.48197 1.42821,-4.68791 3.27652,-6.13549 1.85679,-1.45421 4.28803,-1.97671 7.24,-1.97671 z m 6.04624,3.48196 1.76454,0 0.24077,5.1455 -1.1163,3.64688 -1.13652,-3.71257 z m 7.80573,5.08989 c -0.24998,0 -0.45121,0.2013 -0.45124,0.45121 l 0,2.52895 -0.80145,0 0,-1.40421 c 0,-0.25 -0.20125,-0.45121 -0.45123,-0.45121 -0.24998,0 -0.45124,0.20121 -0.45124,0.45121 l 0,1.40421 -0.80314,0 0,-2.02551 c 0,-0.24999 -0.20124,-0.4512 -0.45123,-0.4512 -0.24999,0 -0.45124,0.20121 -0.45124,0.4512 l 0,2.02551 -0.45123,0 c -0.35707,0 -0.64652,0.28948 -0.64655,0.64655 l 0,3.95843 c -1.1e-4,0.20621 0.098,0.40008 0.26434,0.52198 l 2.60639,1.9093 c 0.22788,0.16759 0.53822,0.16759 0.7661,0 l 2.60809,-1.9093 c 0.1663,-0.1219 0.26449,-0.31577 0.26434,-0.52198 l 0,-3.95843 c -4e-5,-0.35707 -0.28948,-0.64655 -0.64655,-0.64655 l -0.45292,0 0,-2.52895 c 0,-0.24991 -0.20125,-0.45121 -0.45124,-0.45121 z m -3.66546,4.27326 3.92307,0 0,2.98361 -1.96322,1.4362 -1.95985,-1.4362 z"
           inkscape:connector-curvature="0" />
      </g>
      <path
         sodipodi:type="star"
         style="opacity:1;fill:none;fill-opacity:1;stroke:#ff0000;stroke-width:4.11348539;stroke-linecap:round;stroke-linejoin:round;stroke-miterlimit:4;stroke-dasharray:none;stroke-dashoffset:0;stroke-opacity:1"
         id="path4235"
         sodipodi:sides="3"
         sodipodi:cx="49.834991"
         sodipodi:cy="56.333279"
         sodipodi:r1="90.882454"
         sodipodi:r2="45.441227"
         sodipodi:arg1="0.52359878"
         sodipodi:arg2="1.5707963"
         inkscape:flatsided="false"
         inkscape:rounded="0"
         inkscape:randomized="0"
         d="m 128.54151,101.77451 -78.706517,0 -78.706516,0 39.353257,-68.161844 39.353258,-68.161841 39.353256,68.161839 z"
         inkscape:transform-center-y="-53.196304"
         inkscape:export-xdpi="52"
         inkscape:export-ydpi="52" />
    </g>
  </g>
</svg>
